<svg width="20" height="20" viewBox="0 0 20 20" fill="none" xmlns="http://www.w3.org/2000/svg">
<path d="M9.26809 0.599617C9.67879 0.354815 10.3037 0.354815 10.7144 0.599617L14.9051 3.09761C15.1525 3.24504 15.2883 3.46473 15.3127 3.69153H15.3167V16.2476C15.3112 16.495 15.1741 16.7408 14.9051 16.9011L10.7144 19.3991C10.3037 19.6439 9.67879 19.6439 9.26809 19.3991L5.07735 16.9011C4.80952 16.7414 4.68099 16.494 4.67462 16.2476C4.67397 16.2224 4.67391 16.2015 4.6746 16.1844L4.67462 3.77607C4.674 3.75861 4.67399 3.74123 4.67461 3.72393L4.67462 3.69153H4.6765C4.69511 3.46222 4.82479 3.24814 5.07735 3.09761L9.26809 0.599617ZM14.657 10.6965L10.7144 13.0466C10.3037 13.2914 9.67879 13.2914 9.26809 13.0466L5.33423 10.7017V16.2229L9.26809 18.5554C9.50057 18.6955 9.74228 18.8321 9.97766 18.8381L9.99124 18.8383C10.2262 18.8391 10.4542 18.7045 10.6855 18.5771L14.657 16.2028V10.6965ZM3.993 15.9747C3.993 16.4557 4.04255 16.7719 4.14091 16.9947C4.22245 17.1793 4.34478 17.3204 4.56815 17.4921L4.5809 17.5019C4.62992 17.5392 4.68392 17.5783 4.74965 17.6242L4.82717 17.6777L5.0652 17.8399L4.7238 18.4768L4.45738 18.2952L4.4126 18.2642C4.33557 18.2105 4.27172 18.1644 4.21216 18.1191C3.57555 17.6348 3.33813 17.1067 3.33344 16.0081L3.33337 15.9747H3.993ZM9.66143 7.33109C9.63089 7.3429 9.60226 7.35661 9.57617 7.37215L5.38541 9.87015C5.38101 9.87276 5.37682 9.87536 5.37283 9.87792L5.36928 9.88023L5.37586 9.8845L5.38541 9.89033L9.57617 12.3883C9.60226 12.4039 9.63089 12.4176 9.66143 12.4294V7.33109ZM10.3211 7.33109V12.4294C10.3516 12.4176 10.3802 12.4039 10.4063 12.3883L14.5971 9.89033C14.6015 9.88773 14.6057 9.88512 14.6097 9.88256L14.6132 9.88023L14.6066 9.87598L14.5971 9.87015L10.4063 7.37215C10.3802 7.35661 10.3516 7.3429 10.3211 7.33109ZM14.657 4.58221L10.8976 6.8231L14.657 9.06398V4.58221ZM5.33423 4.58745V9.05874L9.08486 6.8231L5.33423 4.58745ZM10.4063 1.25788C10.1884 1.12797 9.7941 1.12797 9.57617 1.25788L5.38541 3.75586C5.38101 3.75849 5.37682 3.76107 5.37283 3.76365L5.36928 3.76596L5.37586 3.77021L5.38541 3.77607L9.57617 6.27404C9.7941 6.40396 10.1884 6.40396 10.4063 6.27404L14.5971 3.77607C14.6015 3.77344 14.6057 3.77085 14.6097 3.7683L14.6132 3.76596L14.6066 3.76172L14.5971 3.75586L10.4063 1.25788ZM15.2763 1.53181L15.5427 1.7134L15.5875 1.74442C15.6645 1.79808 15.7284 1.84419 15.7879 1.8895C16.4245 2.37387 16.662 2.90195 16.6666 4.00051L16.6667 4.03397H16.0071C16.0071 3.55287 15.9575 3.23669 15.8592 3.01392C15.7776 2.8293 15.6553 2.6882 15.4319 2.51651L15.4192 2.50676C15.3702 2.46946 15.3162 2.43038 15.2504 2.38447L15.1729 2.33089L14.9349 2.16878L15.2763 1.53181Z" fill="white"/>
</svg>
