<svg width="24" height="24" xmlns="http://www.w3.org/2000/svg">
    <g fill="none" fill-rule="evenodd">
        <path fill="none" d="M0 0h24v24H0z"/>
        <path d="M0 0h24v24H0z"/>
        <path d="m6.21 4.35 2.111 1.265 3.711-2.15 3.647 2.15 2.11-1.265L11.969 1 6.21 4.35zM17.214 6.5l2.11 1.264v2.466L21.5 8.965V6.5l-2.175-1.264L17.214 6.5zm-7.357 0 2.111 1.264L14.143 6.5l-2.175-1.264L9.857 6.5zM2.5 6.5v2.465l2.111 1.265V7.764L6.786 6.5 4.611 5.236 2.5 6.5zm9.468 3.034L8.321 7.385 6.147 8.649v2.466l3.774 2.15v4.298l2.111 1.264 2.111-1.264v-4.299l3.647-2.15V8.65l-2.175-1.264-3.647 2.15zM19.261 12v4.236l-3.646 2.149v2.465l5.821-3.35v-6.764L19.261 12zM2.5 17.5l5.758 3.35v-2.465l-3.647-2.15V12L2.5 10.736V17.5zm13.179-3.35v2.465l2.11-1.265v-2.465l-2.11 1.264zm-9.532 1.2 2.11 1.265v-2.466l-2.11-1.264v2.465zm5.821 5.185L9.857 19.27v2.466L11.968 23l2.175-1.264V19.27l-2.175 1.265z" fill="#F3BA2F"/>
    </g>
</svg>
