<svg width="1em" height="1em" viewBox="0 0 24 24" fill="none" xmlns="http://www.w3.org/2000/svg">
<path d="M17.1436 8.73469C16.7781 8.53529 16.3081 8.53529 15.8903 8.73469L12.9661 10.3798L10.9817 11.4267L8.10966 13.0718C7.74412 13.2712 7.27415 13.2712 6.8564 13.0718L4.61097 11.7756C4.24543 11.5762 3.98433 11.1774 3.98433 10.7288V8.23618C3.98433 7.83736 4.19321 7.43855 4.61097 7.18929L6.8564 5.943C7.22193 5.7436 7.69191 5.7436 8.10966 5.943L10.3551 7.23914C10.7206 7.43855 10.9817 7.83736 10.9817 8.28603V9.93113L12.9661 8.8344V7.13944C12.9661 6.74063 12.7572 6.34182 12.3394 6.09256L8.16188 3.74953C7.79634 3.55012 7.32637 3.55012 6.90862 3.74953L2.62663 6.14241C2.20888 6.34182 2 6.74063 2 7.13944V11.8255C2 12.2243 2.20888 12.6231 2.62663 12.8724L6.8564 15.2154C7.22193 15.4148 7.69191 15.4148 8.10966 15.2154L10.9817 13.6202L12.9661 12.5234L15.8381 10.9282C16.2037 10.7288 16.6736 10.7288 17.0914 10.9282L19.3368 12.1745C19.7023 12.3739 19.9634 12.7727 19.9634 13.2213V15.7139C19.9634 16.1127 19.7546 16.5115 19.3368 16.7608L17.1436 18.0071C16.7781 18.2065 16.3081 18.2065 15.8903 18.0071L13.6449 16.7608C13.2794 16.5614 13.0183 16.1626 13.0183 15.7139V14.1187L11.0339 15.2154V16.8605C11.0339 17.2593 11.2428 17.6581 11.6606 17.9074L15.8903 20.2504C16.2559 20.4498 16.7258 20.4498 17.1436 20.2504L21.3734 17.9074C21.7389 17.708 22 17.3092 22 16.8605V12.1246C22 11.7258 21.7911 11.327 21.3734 11.0777L17.1436 8.73469Z" fill="white"/>
</svg>
