<svg width="1em" height="1em" viewbox="0 0 24 24" xmlns="http://www.w3.org/2000/svg">
    <g fill="none" fill-rule="evenodd">
        <path fill="none" d="M0 0h24v24H0z"/>
        <path d="M0 0h24v24H0z"/>
        <path d="M21.7 18.121 14.146 3.368C13.705 2.516 12.906 2 11.98 2c-.926 0-1.725.516-2.167 1.368L2.303 18.12c-.42.83-.4 1.794.042 2.601C2.787 21.529 3.586 22 4.47 22h15.042c.883 0 1.683-.47 2.124-1.278a2.72 2.72 0 0 0 .063-2.6zM11.075 8.525a1.21 1.21 0 0 1 .904-.426c.673 0 1.22.583 1.22 1.3v.18l-.63 5.38a1.711 1.711 0 0 0-.59-.089c-.19 0-.4.022-.568.09l-.631-5.382a1.51 1.51 0 0 1 .295-1.053zm.904 10c-.673 0-1.22-.583-1.22-1.3 0-.718.547-1.301 1.22-1.301.673 0 1.22.583 1.22 1.3.021.718-.526 1.3-1.22 1.3z" fill="#F25B3D" fill-rule="nonzero"/>
    </g>
</svg>
