<svg width="24" height="24" viewBox="0 0 24 24" fill="none" xmlns="http://www.w3.org/2000/svg">
<path d="M12 20C16.4334 20 20 16.4334 20 12C20 7.56664 16.4334 4 12 4C7.56664 4 4 7.56664 4 12C4 16.4334 7.56664 20 12 20Z" fill="#2775CA"/>
<path d="M7.33401 10.3667C6.36729 12.9334 7.70065 15.8334 10.3006 16.7667C10.4006 16.8334 10.5006 16.9667 10.5006 17.0667V17.5334C10.5006 17.6001 10.5006 17.6334 10.4673 17.6667C10.434 17.8001 10.3007 17.8667 10.1673 17.8001C8.30065 17.2001 6.86729 15.7667 6.26729 13.9001C5.26729 10.7334 7.00065 7.36666 10.1673 6.36665C10.2007 6.33337 10.2673 6.33337 10.3006 6.33337C10.434 6.36665 10.5006 6.46665 10.5006 6.60002V7.06666C10.5006 7.23338 10.434 7.33338 10.3006 7.40002C8.93401 7.90002 7.83401 8.96667 7.33401 10.3667Z" fill="white"/>
<path d="M13.534 6.50001C13.5673 6.36665 13.7007 6.30001 13.834 6.36665C15.6673 6.96666 17.134 8.40002 17.734 10.3C18.734 13.4667 17.0007 16.8334 13.834 17.8334C13.8007 17.8667 13.734 17.8667 13.7007 17.8667C13.5673 17.8334 13.5006 17.7334 13.5006 17.6001V17.1334C13.5006 16.9667 13.5673 16.8667 13.7007 16.8001C15.0673 16.3001 16.1673 15.2334 16.6673 13.8334C17.634 11.2667 16.3007 8.36666 13.7007 7.43338C13.6007 7.36666 13.5006 7.23338 13.5006 7.10002V6.63338C13.5006 6.56666 13.5006 6.53337 13.534 6.50001Z" fill="white"/>
<path d="M12.101 11.5334C13.501 11.7 14.201 12.1 14.201 13.2667C14.201 14.1667 13.5343 14.8667 12.5343 15.0334V15.8334C12.501 16.0001 12.401 16.1001 12.2676 16.1001H11.7676C11.601 16.0667 11.501 15.9667 11.501 15.8334V15.0334C10.401 14.8667 9.86765 14.2667 9.73438 13.4334V13.4C9.73438 13.2667 9.83437 13.1667 9.96765 13.1667H10.5344C10.6344 13.1667 10.7344 13.2334 10.7676 13.3667C10.8676 13.8667 11.1676 14.2334 12.0344 14.2334C12.6676 14.2334 13.1343 13.8668 13.1343 13.3334C13.1343 12.8 12.8343 12.6 11.901 12.4334C10.501 12.2667 9.83437 11.8334 9.83437 10.7334C9.83437 9.90004 10.4676 9.2334 11.4676 9.10004V8.3334C11.501 8.16668 11.601 8.06667 11.7344 8.06667H12.2344C12.401 8.10003 12.501 8.20004 12.501 8.3334V9.1334C13.2676 9.20004 13.8676 9.76668 14.001 10.5V10.5334C14.001 10.6667 13.901 10.7667 13.7676 10.7667H13.2343C13.1343 10.7667 13.0343 10.7 13.001 10.6C12.8343 10.1 12.501 9.90004 11.901 9.90004C11.2344 9.90004 10.901 10.2 10.901 10.6667C10.901 11.1334 11.101 11.4 12.101 11.5334Z" fill="white"/>
<path fill-rule="evenodd" clip-rule="evenodd" d="M12 21C16.9706 21 21 16.9706 21 12C21 7.02944 16.9706 3 12 3C7.02944 3 3 7.02944 3 12C3 16.9706 7.02944 21 12 21ZM12 22C17.5228 22 22 17.5228 22 12C22 6.47715 17.5228 2 12 2C6.47715 2 2 6.47715 2 12C2 17.5228 6.47715 22 12 22Z" fill="url(#paint0_linear_456_6408)"/>
<defs>
<linearGradient id="paint0_linear_456_6408" x1="19.4559" y1="5.72645" x2="4.57586" y2="18.2465" gradientUnits="userSpaceOnUse">
<stop stop-color="#B6509E"/>
<stop offset="1" stop-color="#2EBAC6"/>
</linearGradient>
</defs>
</svg>
