<svg xmlns="http://www.w3.org/2000/svg" xmlns:xlink="http://www.w3.org/1999/xlink" width="36" height="36" viewBox="0 0 36 36">
    <defs>
        <linearGradient id="u0gc538pmb" x1="19.03%" x2="19.03%" y1="90.081%" y2="28.455%">
            <stop offset="0%" stop-color="#448AFF"/>
            <stop offset="100%" stop-color="#0E101F"/>
        </linearGradient>
        <linearGradient id="s3c39n6jrd" x1="19.03%" x2="19.03%" y1="88.482%" y2="39.997%">
            <stop offset="0%" stop-color="#448AFF"/>
            <stop offset="100%" stop-color="#0E101F"/>
        </linearGradient>
        <linearGradient id="dn394jlfhe" x1="50%" x2="50%" y1="100%" y2="0%">
            <stop offset="0%" stop-color="#448AFF"/>
            <stop offset="99.964%" stop-color="#2D40B3"/>
        </linearGradient>
        <circle id="vc6ojscloa" cx="18" cy="18" r="18"/>
    </defs>
    <g fill="none" fill-rule="evenodd">
        <g>
            <g transform="translate(-751.000000, -38.000000) translate(751.000000, 38.000000)">
                <mask id="sn60u49d1c" fill="#fff">
                    <use xlink:href="#vc6ojscloa"/>
                </mask>
                <use fill="url(#u0gc538pmb)" fill-rule="nonzero" xlink:href="#vc6ojscloa"/>
                <g fill-rule="nonzero" mask="url(#sn60u49d1c)">
                    <path fill="url(#s3c39n6jrd)" d="M2.063 20.128c2.37-4.049 5.483-5.444 9.627-5.07l.494.053.39.05.393.06.605.107.64.13.455.103.74.178 2.89.752 1.554.416 1.891.528 2.55.746 5.033 1.533 6.283 1.935 2.657.794 1.722.496 1.013.298v13.11c-26.585-.166-39.919-.128-40 .112V22.197c.32-.696.678-1.412 1.063-2.069z"/>
                    <path fill="url(#dn394jlfhe)" d="M18 0c9.941 0 18 8.059 18 18s-8.059 18-18 18S0 27.941 0 18 8.059 0 18 0zm0 1.8C9.053 1.8 1.8 9.053 1.8 18S9.053 34.2 18 34.2 34.2 26.947 34.2 18 26.947 1.8 18 1.8z"/>
                </g>
                <text fill="#F9A825" fill-rule="nonzero" font-family="Montserrat-ExtraBold, Montserrat" font-size="19" font-weight="700" mask="url(#sn60u49d1c)">
                    <tspan x="5.904" y="25.3">LP</tspan>
                </text>
            </g>
        </g>
    </g>
</svg>
