<svg width="24" height="24" viewBox="0 0 24 24" fill="none" xmlns="http://www.w3.org/2000/svg">
<path d="M12 2.6C17.1919 2.6 21.4 6.80888 21.4 12C21.4 17.192 17.192 21.4 12 21.4C6.8089 21.4 2.6 17.1915 2.6 12C2.6 6.80892 6.80892 2.6 12 2.6Z" fill="#F5AC37" stroke="#1D1D1B" stroke-width="1.2"/>
<path d="M12.2922 12.5649H15.3321C15.3969 12.5649 15.4275 12.5649 15.4321 12.4799C15.457 12.1707 15.457 11.8597 15.4321 11.5501C15.4321 11.4899 15.4023 11.4651 15.3371 11.4651H9.28724C9.21236 11.4651 9.1922 11.4899 9.1922 11.5601V12.4501C9.1922 12.5649 9.1922 12.5649 9.31208 12.5649H12.2922ZM15.0926 10.425C15.1013 10.4024 15.1013 10.3775 15.0926 10.3552C15.0419 10.2447 14.9818 10.1392 14.9119 10.0402C14.8068 9.871 14.683 9.71512 14.5418 9.57508C14.4752 9.49048 14.3982 9.41452 14.3118 9.35008C13.8791 8.98179 13.3646 8.72115 12.8117 8.59011C12.5327 8.52747 12.2475 8.49759 11.9617 8.50011H9.2768C9.20192 8.50011 9.19184 8.52999 9.19184 8.59515V10.37C9.19184 10.4448 9.19184 10.465 9.28688 10.465H15.0566C15.0566 10.465 15.1067 10.4549 15.1168 10.425H15.0923H15.0926ZM15.0926 13.605C15.0077 13.5956 14.922 13.5956 14.837 13.605H9.29228C9.2174 13.605 9.1922 13.605 9.1922 13.705V15.4402C9.1922 15.5202 9.1922 15.5403 9.29228 15.5403H11.8523C11.9747 15.5497 12.0971 15.541 12.2169 15.5155C12.5885 15.4888 12.9539 15.4082 13.3024 15.2754C13.4291 15.2314 13.5515 15.1742 13.667 15.1054H13.702C14.3021 14.7933 14.7895 14.303 15.097 13.7011C15.097 13.7011 15.1319 13.6255 15.0926 13.6057V13.605ZM8.18743 16.44V16.4101V15.2451V14.8502V13.6752C8.18743 13.61 8.18743 13.6003 8.10751 13.6003H7.02246C6.96234 13.6003 6.9375 13.6003 6.9375 13.5204V12.5703H8.09743C8.16223 12.5703 8.18743 12.5703 8.18743 12.4853V11.5454C8.18743 11.4853 8.18743 11.4705 8.10751 11.4705H7.02246C6.96234 11.4705 6.9375 11.4705 6.9375 11.3906V10.5107C6.9375 10.4556 6.9375 10.4409 7.01742 10.4409H8.09239C8.16727 10.4409 8.18743 10.4409 8.18743 10.3458V7.65086C8.18743 7.57094 8.18743 7.55078 8.28751 7.55078H12.0373C12.3095 7.56158 12.5798 7.59146 12.8473 7.64078C13.3985 7.74266 13.928 7.93958 14.4122 8.22075C14.7334 8.40975 15.0289 8.63799 15.2921 8.90079C15.4901 9.10635 15.6687 9.32884 15.8271 9.56572C15.9844 9.80584 16.1151 10.0625 16.2177 10.3307C16.2303 10.4006 16.2972 10.4477 16.3671 10.4358H17.262C17.3769 10.4358 17.3769 10.4358 17.3819 10.546V11.3661C17.3819 11.446 17.352 11.4662 17.2717 11.4662H16.5816C16.5118 11.4662 16.4916 11.4662 16.4967 11.5562C16.524 11.8607 16.524 12.1664 16.4967 12.4709C16.4967 12.5559 16.4967 12.566 16.5921 12.566H17.3815C17.4165 12.611 17.3815 12.656 17.3815 12.7013C17.3866 12.7593 17.3866 12.818 17.3815 12.8759V13.4811C17.3815 13.5661 17.3567 13.5913 17.2815 13.5913H16.3365C16.2706 13.5787 16.2065 13.6208 16.1914 13.6863C15.9664 14.2713 15.6064 14.7958 15.1412 15.2163C14.9713 15.3693 14.7928 15.5133 14.6063 15.6462C14.4061 15.7614 14.2114 15.8813 14.0062 15.9763C13.6285 16.1462 13.2325 16.2715 12.8261 16.3511C12.4401 16.4202 12.0488 16.4515 11.6561 16.4461H8.18599V16.4411L8.18743 16.44Z" fill="#FEFEFD"/>
<path d="M17 2.35C19.5677 2.35 21.65 4.4323 21.65 7C21.65 9.5677 19.5677 11.65 17 11.65C14.4323 11.65 12.35 9.5677 12.35 7C12.35 4.4323 14.4323 2.35 17 2.35Z" fill="white" stroke="black" stroke-width="0.7"/>
<path d="M19.1001 6.33401L17.7011 6.70501L17.3891 5.25301L17.8051 5.15901L17.9691 5.84701C17.9691 5.84701 18.3471 5.22701 17.8431 4.58501C17.5542 4.26397 17.4129 4.242 17.0988 4.19317L17.0721 4.18901C16.7791 4.14701 16.0981 4.24601 15.8951 5.04101C15.8091 5.55301 15.9061 5.93201 16.5661 6.42801L16.5291 6.98001C16.5291 6.98001 15.7921 6.46101 15.6021 6.09701C15.4551 5.80901 15.2031 5.24001 15.6581 4.44801C15.9031 4.05201 16.3861 3.67201 17.2371 3.71201C17.6651 3.73001 18.7101 4.25301 18.5481 5.47501C18.5201 5.70401 18.4011 6.00901 18.4011 6.00901L18.9751 5.88101L19.1001 6.33401Z" fill="#1D1D1B"/>
<path d="M16.794 9.10801V4.94801H17.247V9.10801H16.794Z" fill="#1D1D1B"/>
<path d="M18.3012 9.58901C18.0452 9.97801 17.5522 10.345 16.7032 10.283C16.2752 10.254 15.2452 9.70301 15.4392 8.48601C15.4732 8.25801 15.6002 7.95701 15.6002 7.95701L15.0232 8.06901L14.9102 7.61401L16.3192 7.28001L16.5932 8.74001L16.1742 8.82301L16.0282 8.13001C16.0282 8.13001 15.6342 8.73901 16.1202 9.39501C16.3998 9.72319 16.5399 9.74875 16.8526 9.80579L16.8812 9.81101C17.1722 9.86101 17.8562 9.77901 18.0802 8.99001C18.1792 8.48101 18.0922 8.09901 17.4462 7.58501L17.4982 7.03402C17.4982 7.03402 18.2212 7.57201 18.4012 7.94101C18.5392 8.23401 18.7762 8.81001 18.3012 9.58901Z" fill="#1D1D1B"/>
</svg>
