<svg width="24" height="24" viewBox="0 0 24 24" fill="none" xmlns="http://www.w3.org/2000/svg">
<path d="M12 4C16.4187 4 20 7.58204 20 12C20 16.4187 16.4187 20 12 20C7.58204 20 4 16.4183 4 12C4 7.58204 7.58204 4 12 4Z" fill="#F5AC37"/>
<path d="M12.2922 12.5649H15.3321C15.3969 12.5649 15.4275 12.5649 15.4321 12.48C15.457 12.1707 15.457 11.8597 15.4321 11.5501C15.4321 11.4899 15.4023 11.4651 15.3371 11.4651H9.28724C9.21236 11.4651 9.1922 11.4899 9.1922 11.5601V12.4501C9.1922 12.5649 9.1922 12.5649 9.31208 12.5649H12.2922ZM15.0927 10.425C15.1013 10.4024 15.1013 10.3775 15.0927 10.3552C15.0419 10.2447 14.9818 10.1392 14.9119 10.0402C14.8068 9.871 14.683 9.71512 14.5419 9.57508C14.4753 9.49048 14.3982 9.41452 14.3118 9.35008C13.8791 8.9818 13.3646 8.72115 12.8117 8.59011C12.5327 8.52747 12.2476 8.49759 11.9617 8.50011H9.2768C9.20192 8.50011 9.19184 8.52999 9.19184 8.59515V10.37C9.19184 10.4448 9.19184 10.465 9.28688 10.465H15.0567C15.0567 10.465 15.1067 10.4549 15.1168 10.425H15.0923H15.0927ZM15.0927 13.605C15.0077 13.5956 14.922 13.5956 14.8371 13.605H9.29228C9.2174 13.605 9.1922 13.605 9.1922 13.705V15.4403C9.1922 15.5202 9.1922 15.5403 9.29228 15.5403H11.8523C11.9747 15.5497 12.0971 15.5411 12.217 15.5155C12.5885 15.4889 12.9539 15.4082 13.3024 15.2754C13.4291 15.2315 13.5515 15.1742 13.667 15.1055H13.702C14.3021 14.7933 14.7895 14.303 15.097 13.7011C15.097 13.7011 15.1319 13.6255 15.0927 13.6057V13.605ZM8.18743 16.44V16.4101V15.2451V14.8502V13.6752C8.18743 13.61 8.18743 13.6003 8.10751 13.6003H7.02246C6.96234 13.6003 6.9375 13.6003 6.9375 13.5204V12.5703H8.09743C8.16223 12.5703 8.18743 12.5703 8.18743 12.4854V11.5454C8.18743 11.4853 8.18743 11.4705 8.10751 11.4705H7.02246C6.96234 11.4705 6.9375 11.4705 6.9375 11.3906V10.5107C6.9375 10.4557 6.9375 10.4409 7.01742 10.4409H8.09239C8.16727 10.4409 8.18743 10.4409 8.18743 10.3458V7.65086C8.18743 7.57094 8.18743 7.55078 8.28751 7.55078H12.0373C12.3095 7.56158 12.5798 7.59146 12.8473 7.64078C13.3985 7.74266 13.9281 7.93959 14.4123 8.22075C14.7334 8.40975 15.0289 8.63799 15.2921 8.90079C15.4901 9.10636 15.6687 9.32884 15.8271 9.56572C15.9844 9.80584 16.1151 10.0625 16.2177 10.3307C16.2303 10.4006 16.2972 10.4477 16.3671 10.4359H17.262C17.3769 10.4359 17.3769 10.4358 17.3819 10.546V11.3661C17.3819 11.446 17.352 11.4662 17.2718 11.4662H16.5816C16.5118 11.4662 16.4916 11.4662 16.4967 11.5562C16.524 11.8607 16.524 12.1664 16.4967 12.471C16.4967 12.5559 16.4967 12.566 16.5921 12.566H17.3816C17.4165 12.611 17.3816 12.656 17.3816 12.7014C17.3866 12.7593 17.3866 12.818 17.3816 12.876V13.4811C17.3816 13.5661 17.3567 13.5913 17.2815 13.5913H16.3365C16.2706 13.5787 16.2065 13.6208 16.1914 13.6863C15.9664 14.2713 15.6064 14.7959 15.1413 15.2163C14.9713 15.3693 14.7928 15.5133 14.6063 15.6462C14.4061 15.7614 14.2114 15.8813 14.0062 15.9763C13.6285 16.1462 13.2325 16.2715 12.8261 16.3511C12.4402 16.4202 12.0488 16.4515 11.6561 16.4461H8.18599V16.4411L8.18743 16.44Z" fill="#FEFEFD"/>
<path fill-rule="evenodd" clip-rule="evenodd" d="M12 21C16.9706 21 21 16.9706 21 12C21 7.02944 16.9706 3 12 3C7.02944 3 3 7.02944 3 12C3 16.9706 7.02944 21 12 21ZM12 22C17.5228 22 22 17.5228 22 12C22 6.47715 17.5228 2 12 2C6.47715 2 2 6.47715 2 12C2 17.5228 6.47715 22 12 22Z" fill="url(#paint0_linear_456_6406)"/>
<defs>
<linearGradient id="paint0_linear_456_6406" x1="19.4559" y1="5.72645" x2="4.57586" y2="18.2465" gradientUnits="userSpaceOnUse">
<stop stop-color="#B6509E"/>
<stop offset="1" stop-color="#2EBAC6"/>
</linearGradient>
</defs>
</svg>
