<svg width="24" height="24" viewBox="0 0 24 24" fill="none" xmlns="http://www.w3.org/2000/svg">
<circle cx="12" cy="12" r="10" fill="white"/>
<path d="M12 3C16.9706 3 21 7.02944 21 12C21 16.9706 16.9706 21 12 21C7.02944 21 3 16.9706 3 12C3 7.02944 7.02944 3 12 3ZM12 4.1C7.63695 4.1 4.1 7.63695 4.1 12C4.1 16.363 7.63695 19.9 12 19.9C16.363 19.9 19.9 16.363 19.9 12C19.9 7.63695 16.363 4.1 12 4.1ZM18.1529 10.0804C18.1452 10.1069 18.1347 10.133 18.1214 10.1586C18.1051 10.2368 18.0548 10.3703 17.9803 10.5405L17.8799 10.7612L17.7601 11.01L17.6248 11.2798L17.4777 11.5635L17.3227 11.8538L17.1636 12.1437L17.0041 12.426L16.8482 12.6936L16.6996 12.9393L16.5622 13.156L16.4988 13.2512L16.3853 13.411C16.3506 13.4568 16.3195 13.4948 16.2924 13.5238L16.2549 13.5605L15.7319 14.0047L18.2935 15.2876C17.0542 17.4649 14.7114 18.9333 12.0254 18.9333C9.30248 18.9333 6.93231 17.4243 5.70688 15.1975L8.21523 14.0018L7.67807 13.5605C7.63378 13.5223 7.57502 13.4492 7.50587 13.3494L7.39486 13.1806L7.20583 12.8661L7.06927 12.6245L6.92786 12.3648L6.78466 12.093L6.64273 11.8155L6.50515 11.5384L6.37497 11.2681L6.25527 11.0106L6.14911 10.7723L6.05956 10.5594L5.98967 10.3781C5.97 10.3237 5.95411 10.2755 5.94252 10.2347C5.9244 10.2095 5.90885 10.1841 5.89538 10.1573C6.3544 10.4674 7.26418 10.7722 8.45542 10.9862L8.82107 11.0476C9.00795 11.0768 9.20078 11.1039 9.39898 11.1284L9.80241 11.1739C10.2127 11.2159 10.6429 11.2471 11.0886 11.2651L11.3353 11.2736L11.5849 11.2794L11.9717 11.2828L12.3585 11.2794L12.7947 11.2674C15.1845 11.1775 17.1394 10.7086 17.9607 10.2127L18.0416 10.1613L18.1529 10.0804ZM8.63971 11.7605L8.79558 12.3244C8.89918 12.6565 9.01751 12.972 9.15839 13.2924L9.2684 13.534L9.52514 14.0388C9.55535 14.0986 9.59558 14.1515 9.64632 14.1994L9.70057 14.2457L9.91706 14.4062C10.2869 14.655 10.6967 14.8324 11.1821 14.9639L11.3677 15.0111L11.8792 15.1114L11.976 15.1208H12.0513L12.1479 15.1114L12.6746 15.0079C13.1648 14.8906 13.5882 14.7283 13.9795 14.4893L14.1248 14.3961L14.3313 14.2422C14.3843 14.2018 14.4299 14.1538 14.4671 14.0981L14.5016 14.0398L14.765 13.5216C14.9128 13.2073 15.0399 12.8954 15.1533 12.5634L15.2359 12.3102L15.3811 11.7841C15.0666 12.3814 14.443 12.8052 13.6899 12.8782L13.5864 12.8859L13.4759 12.8736C12.9164 12.7957 12.424 12.4972 12.1121 12.0617L12.0522 11.9728L12.0197 11.9185L11.9567 12.016C11.6509 12.4546 11.1658 12.7608 10.5931 12.8594L10.4774 12.8763L10.3721 12.8866L10.272 12.8783C9.54626 12.8004 8.93593 12.3654 8.63971 11.7605ZM12.0104 5.6C12.4113 5.6 12.9246 5.87589 13.6457 6.42193L13.9677 6.67247L14.104 6.78193L14.4941 7.1037L15.5338 7.98375L16.405 8.21519L16.6308 8.27876L16.8303 8.33746L16.9921 8.38759L17.2059 8.45894L17.3332 8.50522L17.4454 8.54903C17.9432 8.7502 18.1901 8.96506 18.1901 9.24955L18.1861 9.30797L18.1744 9.36546L18.0625 9.45185C17.5111 9.84211 16.323 10.2237 14.7828 10.4453L14.3104 10.5068L13.8186 10.5578C13.4846 10.5881 13.1389 10.6108 12.7836 10.6247L12.361 10.6368L11.9729 10.6404L11.5848 10.6368L11.3344 10.6306C8.76184 10.5518 6.66204 10.0079 5.87687 9.44753C5.84644 9.38312 5.83078 9.31707 5.83078 9.24955C5.83078 8.93507 6.09558 8.68124 6.6718 8.45615C6.57997 8.35933 6.5375 8.2707 6.4258 8.19791C6.60007 7.99886 6.92157 7.83496 7.14266 7.80389C7.58188 7.73115 7.85187 7.8612 8.14815 7.88514C7.9191 7.7872 7.47741 7.35839 7.3218 7.16357C7.13651 6.74639 7.26904 6.38748 7.38202 6.18842L7.40581 6.14824L7.44622 6.08688L7.49496 6.02179L7.52445 6.01834L7.64935 6.01531C7.83735 6.01656 8.14346 6.04159 8.25388 6.16464C8.43457 6.42036 8.52012 6.6821 8.57405 6.91506L8.61978 7.13713C8.65304 7.31204 8.67903 7.45891 8.73454 7.55757L8.76721 7.43024L8.81845 7.18239C8.85323 7.017 8.89846 6.84705 9.00926 6.64701C9.20316 6.29693 9.87709 5.8175 10.3545 5.91293L10.3681 5.98975L10.4204 6.17809C10.4333 6.2389 10.436 6.30419 10.4119 6.39325C11.1133 5.86695 11.6176 5.6 12.0104 5.6Z" fill="#3EBD93"/>
</svg>
