<svg width="24" height="24" viewBox="0 0 24 24" fill="none" xmlns="http://www.w3.org/2000/svg">
<path d="M12 2C17.5234 2 22 6.47754 22 12C22 17.5234 17.5234 22 12 22C6.47754 22 2 17.5229 2 12C2 6.47754 6.47754 2 12 2Z" fill="#F5AC37"/>
<path d="M12.3652 12.7061H16.1651C16.2461 12.7061 16.2843 12.7061 16.2902 12.5999C16.3212 12.2134 16.3212 11.8246 16.2902 11.4376C16.2902 11.3624 16.2528 11.3314 16.1714 11.3314H8.60906C8.51545 11.3314 8.49025 11.3624 8.49025 11.4502V12.5626C8.49025 12.7061 8.49025 12.7061 8.64011 12.7061H12.3652ZM15.8658 10.0313C15.8766 10.003 15.8766 9.97191 15.8658 9.94401C15.8024 9.80586 15.7272 9.67401 15.6399 9.55026C15.5085 9.33876 15.3537 9.1439 15.1773 8.96885C15.0941 8.8631 14.9978 8.76815 14.8898 8.6876C14.3489 8.22724 13.7058 7.90144 13.0146 7.73764C12.6658 7.65934 12.3094 7.62199 11.9521 7.62514H8.596C8.5024 7.62514 8.4898 7.66249 8.4898 7.74394V9.96246C8.4898 10.0561 8.4898 10.0813 8.6086 10.0813H15.8208C15.8208 10.0813 15.8834 10.0687 15.896 10.0313H15.8654H15.8658ZM15.8658 14.0062C15.7596 13.9945 15.6525 13.9945 15.5463 14.0062H8.61536C8.52175 14.0062 8.49025 14.0062 8.49025 14.1313V16.3003C8.49025 16.4002 8.49025 16.4254 8.61536 16.4254H11.8153C11.9683 16.4371 12.1213 16.4263 12.2712 16.3944C12.7356 16.3611 13.1924 16.2603 13.628 16.0942C13.7864 16.0393 13.9394 15.9678 14.0838 15.8818H14.1275C14.8776 15.4917 15.4869 14.8788 15.8712 14.1264C15.8712 14.1264 15.9149 14.0319 15.8658 14.0071V14.0062ZM7.23429 17.55V17.5126V16.0564V15.5628V14.094C7.23429 14.0125 7.23429 14.0004 7.13439 14.0004H5.77808C5.70293 14.0004 5.67188 14.0004 5.67188 13.9005V12.7129H7.12179C7.20279 12.7129 7.23429 12.7129 7.23429 12.6067V11.4317C7.23429 11.3566 7.23429 11.3381 7.13439 11.3381H5.77808C5.70293 11.3381 5.67188 11.3381 5.67188 11.2382V10.1384C5.67188 10.0696 5.67188 10.0511 5.77178 10.0511H7.11549C7.20909 10.0511 7.23429 10.0511 7.23429 9.93231V6.56358C7.23429 6.46368 7.23429 6.43848 7.35939 6.43848H12.0466C12.3868 6.45198 12.7248 6.48933 13.0592 6.55098C13.7481 6.67833 14.4101 6.92448 15.0153 7.27593C15.4167 7.51219 15.7862 7.79749 16.1151 8.12599C16.3626 8.38295 16.5858 8.66105 16.7838 8.95715C16.9805 9.2573 17.1438 9.57816 17.2721 9.91341C17.2878 10.0007 17.3715 10.0597 17.4588 10.0448H18.5776C18.7211 10.0448 18.7211 10.0448 18.7274 10.1825V11.2076C18.7274 11.3075 18.6901 11.3327 18.5897 11.3327H17.727C17.6397 11.3327 17.6145 11.3327 17.6208 11.4452C17.655 11.8259 17.655 12.208 17.6208 12.5887C17.6208 12.6949 17.6208 12.7075 17.7401 12.7075H18.727C18.7706 12.7637 18.727 12.82 18.727 12.8767C18.7333 12.9491 18.7333 13.0225 18.727 13.0949V13.8514C18.727 13.9576 18.6959 13.9891 18.6019 13.9891H17.4206C17.3382 13.9734 17.2581 14.026 17.2392 14.1079C16.958 14.8392 16.508 15.4948 15.9266 16.0204C15.7142 16.2117 15.491 16.3917 15.2579 16.5577C15.0077 16.7017 14.7642 16.8516 14.5077 16.9704C14.0357 17.1828 13.5407 17.3394 13.0326 17.4388C12.5502 17.5252 12.061 17.5644 11.5701 17.5576H7.23249V17.5513L7.23429 17.55Z" fill="#FEFEFD"/>
</svg>
