<svg width="24" height="24" viewBox="0 0 24 24" fill="none" xmlns="http://www.w3.org/2000/svg">
<path d="M12 2.6C17.1912 2.6 21.4 6.80877 21.4 12C21.4 17.1912 17.191 21.4 12 21.4C6.80892 21.4 2.6 17.1924 2.6 12C2.6 6.80759 6.80815 2.6 12 2.6Z" fill="#53AE94" stroke="#1D1D1B" stroke-width="1.2"/>
<path d="M13.2339 10.9542V9.46661H16.6357V7.20001H7.37246V9.46661H10.7747V10.953C8.00967 11.08 5.93066 11.6276 5.93066 12.2836C5.93066 12.9396 8.01066 13.4872 10.7747 13.615V18.38H13.2347V13.6146C15.9947 13.4872 18.0695 12.94 18.0695 12.2846C18.0695 11.6292 15.9947 11.082 13.2347 10.9546L13.2339 10.9542ZM13.2347 13.211V13.2098C13.1653 13.2142 12.8087 13.2356 12.0147 13.2356C11.3799 13.2356 10.9333 13.2176 10.7759 13.2094V13.2114C8.33307 13.1032 6.50966 12.6778 6.50966 12.1688C6.50966 11.6598 8.33327 11.235 10.7759 11.1266V12.7876C10.9359 12.7986 11.3935 12.8256 12.0251 12.8256C12.7837 12.8256 13.1651 12.794 13.2351 12.7876V11.1266C15.6731 11.2352 17.4923 11.661 17.4923 12.1682C17.4923 12.6754 15.6723 13.1014 13.2351 13.21" fill="white"/>
<path d="M17 2.35C19.5677 2.35 21.65 4.4323 21.65 7C21.65 9.5677 19.5677 11.65 17 11.65C14.4323 11.65 12.35 9.5677 12.35 7C12.35 4.4323 14.4323 2.35 17 2.35Z" fill="white" stroke="black" stroke-width="0.7"/>
<path d="M19.1001 6.33401L17.7011 6.70501L17.3891 5.25301L17.8051 5.15901L17.9691 5.84701C17.9691 5.84701 18.3471 5.22701 17.8431 4.58501C17.5542 4.26397 17.4129 4.242 17.0988 4.19317L17.0721 4.18901C16.7791 4.14701 16.0981 4.24601 15.8951 5.04101C15.8091 5.55301 15.9061 5.93201 16.5661 6.42801L16.5291 6.98001C16.5291 6.98001 15.7921 6.46101 15.6021 6.09701C15.4551 5.80901 15.2031 5.24001 15.6581 4.44801C15.9031 4.05201 16.3861 3.67201 17.2371 3.71201C17.6651 3.73001 18.7101 4.25301 18.5481 5.47501C18.5201 5.70401 18.4011 6.00901 18.4011 6.00901L18.9751 5.88101L19.1001 6.33401Z" fill="#1D1D1B"/>
<path d="M16.794 9.10801V4.94801H17.247V9.10801H16.794Z" fill="#1D1D1B"/>
<path d="M18.3012 9.58901C18.0452 9.97801 17.5522 10.345 16.7032 10.283C16.2752 10.254 15.2452 9.70301 15.4392 8.48601C15.4732 8.25801 15.6002 7.95701 15.6002 7.95701L15.0232 8.06901L14.9102 7.61401L16.3192 7.28001L16.5932 8.74001L16.1742 8.82301L16.0282 8.13001C16.0282 8.13001 15.6342 8.73901 16.1202 9.39501C16.3998 9.72319 16.5399 9.74875 16.8526 9.80579L16.8812 9.81101C17.1722 9.86101 17.8562 9.77901 18.0802 8.99001C18.1792 8.48101 18.0922 8.09901 17.4462 7.58501L17.4982 7.03402C17.4982 7.03402 18.2212 7.57201 18.4012 7.94101C18.5392 8.23401 18.7762 8.81001 18.3012 9.58901Z" fill="#1D1D1B"/>
</svg>
