<svg width="24" height="24" viewBox="0 0 24 24" fill="none" xmlns="http://www.w3.org/2000/svg">
<path d="M21.4 12C21.4 17.2103 17.2103 21.4 12 21.4C6.78967 21.4 2.6 17.2103 2.6 12C2.6 6.78967 6.78967 2.6 12 2.6C17.2103 2.6 21.4 6.78967 21.4 12Z" fill="#2775CA" stroke="#1D1D1B" stroke-width="1.2"/>
<path fill-rule="evenodd" clip-rule="evenodd" d="M19.0002 11.85C19.0002 15.8123 15.8125 19 11.8502 19C7.88788 19 4.7002 15.8123 4.7002 11.85C4.7002 7.8877 7.88788 4.70001 11.8502 4.70001C15.8125 4.70001 19.0002 7.8877 19.0002 11.85ZM7.67987 10.3902C6.81586 12.6842 8.00755 15.2761 10.3313 16.1103C10.4207 16.1699 10.5101 16.289 10.5101 16.3784V16.7955C10.5101 16.8551 10.5101 16.8849 10.4802 16.9146C10.4505 17.0338 10.3313 17.0934 10.2121 17.0338C8.5438 16.4976 7.26274 15.2165 6.72649 13.5482C5.83274 10.718 7.38193 7.70896 10.2121 6.81521C10.2419 6.78546 10.3015 6.78546 10.3313 6.78546C10.4505 6.81521 10.5101 6.90458 10.5101 7.02377V7.44083C10.5101 7.58984 10.4505 7.67922 10.3313 7.73878C9.10987 8.18565 8.12674 9.13897 7.67987 10.3902ZM13.2211 6.9344C13.2509 6.81521 13.3701 6.75565 13.4892 6.81521C15.1277 7.35146 16.4386 8.63253 16.9749 10.3307C17.8686 13.1609 16.3194 16.1699 13.4892 17.0636C13.4594 17.0934 13.3999 17.0934 13.3701 17.0934C13.2509 17.0636 13.1913 16.9743 13.1913 16.8551V16.438C13.1913 16.289 13.2509 16.1996 13.3701 16.1401C14.5915 15.6932 15.5746 14.7399 16.0215 13.4886C16.8855 11.1946 15.6938 8.60272 13.3701 7.76859C13.2807 7.70896 13.1913 7.58984 13.1913 7.47065V7.05359C13.1913 6.99396 13.1913 6.96421 13.2211 6.9344ZM13.8172 12.9821C13.8172 11.9394 13.1916 11.5819 11.9404 11.433C11.0466 11.3138 10.8679 11.0755 10.8679 10.6584C10.8679 10.2412 11.1658 9.97317 11.7616 9.97317C12.2979 9.97317 12.5958 10.1519 12.7447 10.5988C12.7745 10.6882 12.8639 10.7477 12.9533 10.7477H13.4299C13.5491 10.7477 13.6385 10.6584 13.6385 10.5392V10.5094C13.5193 9.85398 12.983 9.34754 12.2979 9.28798V8.57298C12.2979 8.45379 12.2085 8.36441 12.0596 8.3346H11.6127C11.4935 8.3346 11.4041 8.42397 11.3743 8.57298V9.25817C10.4806 9.37736 9.91457 9.97317 9.91457 10.718C9.91457 11.7011 10.5104 12.0884 11.7616 12.2374C12.5958 12.3863 12.8639 12.5651 12.8639 13.0417C12.8639 13.5184 12.4468 13.8461 11.8808 13.8461C11.1062 13.8461 10.8381 13.5184 10.7487 13.0715C10.7189 12.9524 10.6296 12.8927 10.5402 12.8927H10.0337C9.91457 12.8927 9.8252 12.9821 9.8252 13.1013V13.1311C9.94431 13.8759 10.421 14.4121 11.4041 14.5611V15.2761C11.4041 15.3952 11.4935 15.4846 11.6424 15.5144H12.0893C12.2085 15.5144 12.2979 15.4251 12.3277 15.2761V14.5611C13.2214 14.4121 13.8172 13.7865 13.8172 12.9821Z" fill="white"/>
<path d="M17 2.35C19.5677 2.35 21.65 4.4323 21.65 7C21.65 9.5677 19.5677 11.65 17 11.65C14.4323 11.65 12.35 9.5677 12.35 7C12.35 4.4323 14.4323 2.35 17 2.35Z" fill="white" stroke="black" stroke-width="0.7"/>
<path d="M19.1001 6.33401L17.7011 6.70501L17.3891 5.25301L17.8051 5.15901L17.9691 5.84701C17.9691 5.84701 18.3471 5.22701 17.8431 4.58501C17.5542 4.26397 17.4129 4.242 17.0988 4.19317L17.0721 4.18901C16.7791 4.14701 16.0981 4.24601 15.8951 5.04101C15.8091 5.55301 15.9061 5.93201 16.5661 6.42801L16.5291 6.98001C16.5291 6.98001 15.7921 6.46101 15.6021 6.09701C15.4551 5.80901 15.2031 5.24001 15.6581 4.44801C15.9031 4.05201 16.3861 3.67201 17.2371 3.71201C17.6651 3.73001 18.7101 4.25301 18.5481 5.47501C18.5201 5.70401 18.4011 6.00901 18.4011 6.00901L18.9751 5.88101L19.1001 6.33401Z" fill="#1D1D1B"/>
<path d="M16.794 9.10801V4.94801H17.247V9.10801H16.794Z" fill="#1D1D1B"/>
<path d="M18.3012 9.58901C18.0452 9.97801 17.5522 10.345 16.7032 10.283C16.2752 10.254 15.2452 9.70301 15.4392 8.48601C15.4732 8.25801 15.6002 7.95701 15.6002 7.95701L15.0232 8.06901L14.9102 7.61401L16.3192 7.28001L16.5932 8.74001L16.1742 8.82301L16.0282 8.13001C16.0282 8.13001 15.6342 8.73901 16.1202 9.39501C16.3998 9.72319 16.5399 9.74875 16.8526 9.80579L16.8812 9.81101C17.1722 9.86101 17.8562 9.77901 18.0802 8.99001C18.1792 8.48101 18.0922 8.09901 17.4462 7.58501L17.4982 7.03402C17.4982 7.03402 18.2212 7.57201 18.4012 7.94101C18.5392 8.23401 18.7762 8.81001 18.3012 9.58901Z" fill="#1D1D1B"/>
</svg>
