<svg width="24" height="24" viewBox="0 0 24 24" fill="none" xmlns="http://www.w3.org/2000/svg">
<path d="M12 22C17.5417 22 22 17.5417 22 12C22 6.4583 17.5417 2 12 2C6.4583 2 2 6.4583 2 12C2 17.5417 6.4583 22 12 22Z" fill="#2775CA"/>
<path d="M6.16654 9.95831C4.95814 13.1667 6.62484 16.7917 9.87484 17.9584C9.99984 18.0418 10.1248 18.2084 10.1248 18.3334V18.9168C10.1248 19.0001 10.1248 19.0418 10.0831 19.0834C10.0415 19.2501 9.87484 19.3334 9.70814 19.2501C7.37484 18.5001 5.58314 16.7083 4.83314 14.375C3.58314 10.4167 5.74984 6.20829 9.70814 4.95829C9.74984 4.91669 9.83314 4.91669 9.87484 4.91669C10.0415 4.95829 10.1248 5.08329 10.1248 5.24999V5.83329C10.1248 6.04169 10.0415 6.16669 9.87484 6.24999C8.16654 6.875 6.79154 8.2083 6.16654 9.95831Z" fill="white"/>
<path d="M13.9165 5.12499C13.9581 4.95829 14.1248 4.87499 14.2915 4.95829C16.5831 5.70829 18.4165 7.5 19.1665 9.87501C20.4165 13.8333 18.2498 18.0418 14.2915 19.2918C14.2498 19.3334 14.1665 19.3334 14.1248 19.3334C13.9581 19.2918 13.8748 19.1668 13.8748 19.0001V18.4168C13.8748 18.2084 13.9581 18.0834 14.1248 18.0001C15.8331 17.3751 17.2081 16.0417 17.8331 14.2917C19.0415 11.0833 17.3748 7.4583 14.1248 6.29169C13.9998 6.20829 13.8748 6.04169 13.8748 5.87499V5.29169C13.8748 5.20829 13.8748 5.16669 13.9165 5.12499Z" fill="white"/>
<path d="M12.1253 11.4167C13.8752 11.625 14.7502 12.125 14.7502 13.5833C14.7502 14.7083 13.9169 15.5833 12.667 15.7917V16.7917C12.6253 17 12.5003 17.125 12.3336 17.125H11.7086C11.5003 17.0833 11.3753 16.9583 11.3753 16.7917V15.7917C10.0003 15.5833 9.33359 14.8333 9.16699 13.7917V13.75C9.16699 13.5833 9.29199 13.4583 9.45859 13.4583H10.167C10.292 13.4583 10.417 13.5417 10.4586 13.7083C10.5836 14.3333 10.9586 14.7917 12.042 14.7917C12.8336 14.7917 13.417 14.3334 13.417 13.6667C13.417 13 13.042 12.75 11.8753 12.5417C10.1253 12.3333 9.29199 11.7917 9.29199 10.4167C9.29199 9.37502 10.0836 8.54172 11.3336 8.37502V7.41671C11.3753 7.20831 11.5003 7.08331 11.667 7.08331H12.292C12.5003 7.12501 12.6253 7.25001 12.6253 7.41671V8.41672C13.5836 8.50002 14.3335 9.20832 14.5002 10.125V10.1667C14.5002 10.3333 14.3752 10.4583 14.2085 10.4583H13.542C13.417 10.4583 13.292 10.375 13.2503 10.25C13.042 9.62502 12.6253 9.37502 11.8753 9.37502C11.042 9.37502 10.6253 9.74992 10.6253 10.3333C10.6253 10.9167 10.8753 11.25 12.1253 11.4167Z" fill="white"/>
</svg>
