<svg width="24" height="24" viewBox="0 0 24 24" fill="none" xmlns="http://www.w3.org/2000/svg">
<path d="M12.0005 22C17.5231 22 22.0001 17.5246 22.0001 12.0039C22.0001 6.48326 17.5231 2.00787 12.0005 2.00787C6.47793 2.00787 2.00098 6.48326 2.00098 12.0039C2.00098 17.5246 6.47793 22 12.0005 22Z" fill="#EDF0F2"/>
<path d="M18.3502 19.7194C16.8256 20.9777 14.957 21.7514 12.9868 21.939C10.3521 22.1969 7.71732 21.3997 5.66112 19.7194C3.61274 18.0391 2.3149 15.6162 2.04908 12.9746C1.85363 11.0051 2.24454 9.02775 3.17491 7.28489C4.10529 5.54203 5.53603 4.11179 7.2795 3.18174C9.02297 2.25169 11.001 1.8531 12.9712 2.04849C14.9414 2.24387 16.8021 3.0098 18.3345 4.2681L16.3174 6.72999C15.2776 5.8781 14.0032 5.34664 12.6585 5.22159C11.3137 5.08873 9.96898 5.36227 8.7806 5.99533C7.59223 6.62839 6.62277 7.60533 5.98167 8.79329C5.34839 9.98125 5.08257 11.3333 5.21548 12.6698C5.3953 14.4674 6.27876 16.1243 7.67823 17.2653C9.0777 18.4142 10.8759 18.9535 12.6741 18.7737C14.0188 18.6409 15.2854 18.1094 16.3252 17.2575L18.3502 19.7194Z" fill="url(#paint0_linear_456_6407)"/>
<path d="M12.0304 20.1861C16.5416 20.1861 20.1927 16.5284 20.1927 12.0267C20.1927 7.5171 16.5416 3.85944 12.0304 3.85944C7.5193 3.85944 3.86035 7.5171 3.86035 12.0267C3.86035 16.5362 7.5193 20.1861 12.0304 20.1861Z" fill="white"/>
<path d="M13.3928 12.6756C13.3928 11.9097 12.9237 11.6517 12.009 11.5345C11.3366 11.4407 11.2037 11.2844 11.2037 10.9718C11.2037 10.6592 11.4304 10.4716 11.8683 10.4716C12.267 10.4716 12.4937 10.6045 12.5875 10.9249C12.5954 10.9562 12.6188 10.9874 12.6501 11.0109C12.6814 11.0343 12.7126 11.0421 12.7517 11.0421H13.1035C13.127 11.0421 13.1505 11.0343 13.1661 11.0265C13.1895 11.0187 13.2052 11.003 13.2208 10.9874C13.2365 10.9718 13.2443 10.9483 13.2521 10.9327C13.2599 10.9093 13.2599 10.8858 13.2521 10.8624C13.1426 10.3622 12.7986 10.0652 12.267 9.9714V9.44776C12.267 9.40086 12.2513 9.36179 12.2201 9.33052C12.1888 9.29926 12.1497 9.28363 12.1028 9.28363H11.7666C11.7197 9.28363 11.6806 9.29926 11.6493 9.33052C11.6181 9.36179 11.6024 9.40086 11.6024 9.44776V9.95577C10.9379 10.0496 10.5157 10.4794 10.5157 11.0343C10.5157 11.7533 10.9613 12.0269 11.8839 12.1519C12.5172 12.2535 12.697 12.3864 12.697 12.7381C12.697 13.0898 12.3921 13.3243 11.9621 13.3243C11.3835 13.3243 11.1881 13.0742 11.1177 12.7537C11.1099 12.7147 11.0864 12.6834 11.063 12.6599C11.0317 12.6365 10.9926 12.6209 10.9613 12.6209H10.5782C10.5548 12.6209 10.5313 12.6287 10.5157 12.6365C10.4922 12.6443 10.4766 12.6599 10.461 12.6756C10.4453 12.6912 10.4375 12.7147 10.4297 12.7303C10.4219 12.7537 10.4219 12.7772 10.4297 12.7928C10.5235 13.3399 10.8832 13.7385 11.6103 13.8323V14.3481C11.6103 14.395 11.6259 14.4341 11.6572 14.4653C11.6884 14.4966 11.7275 14.5122 11.7744 14.5122H12.1106C12.1575 14.5122 12.1966 14.4966 12.2279 14.4653C12.2592 14.4341 12.2748 14.395 12.2748 14.3481V13.8323C12.955 13.7229 13.3928 13.2617 13.3928 12.6756Z" fill="#283947"/>
<path d="M10.8673 15.0207C10.234 14.794 9.68677 14.372 9.29585 13.8249C8.90494 13.2778 8.70167 12.6213 8.70167 11.957C8.70167 11.2927 8.91276 10.6361 9.29585 10.0891C9.68677 9.54197 10.234 9.11994 10.8673 8.89329C10.9064 8.87765 10.9455 8.84639 10.969 8.80732C10.9924 8.76824 11.0081 8.72916 11.0081 8.68227V8.37746C11.0081 8.35401 11.0081 8.32275 10.9924 8.29931C10.9846 8.27586 10.9611 8.25241 10.9377 8.23678C10.9142 8.22115 10.8908 8.21334 10.8595 8.20552C10.8282 8.1977 10.8048 8.20552 10.7813 8.22115C9.98386 8.47125 9.28804 8.97144 8.78767 9.64358C8.29512 10.3157 8.0293 11.1207 8.0293 11.957C8.0293 12.7854 8.29512 13.5982 8.78767 14.2704C9.28022 14.9425 9.97604 15.4349 10.7813 15.6928C10.8048 15.7006 10.8361 15.7084 10.8595 15.7084C10.883 15.7084 10.9142 15.6928 10.9377 15.6772C10.9611 15.6615 10.9768 15.6381 10.9924 15.6146C11.0002 15.5912 11.0081 15.5599 11.0081 15.5365V15.2317C11.0081 15.1848 10.9924 15.1457 10.969 15.1066C10.9455 15.0675 10.9142 15.0363 10.8673 15.0207Z" fill="#657786"/>
<path d="M13.1349 8.22895C13.1115 8.22113 13.0802 8.21332 13.0568 8.21332C13.0333 8.21332 13.002 8.22895 12.9786 8.24458C12.9551 8.26021 12.9395 8.28366 12.9238 8.3071C12.916 8.33055 12.9082 8.36181 12.9082 8.38526V8.69007C12.9082 8.73696 12.9238 8.77604 12.9473 8.81511C12.9707 8.85419 13.0098 8.87764 13.0489 8.90108C13.6822 9.12773 14.2295 9.54977 14.6204 10.0969C15.0113 10.6439 15.2146 11.3005 15.2146 11.9648C15.2146 12.6291 15.0035 13.2856 14.6204 13.8327C14.2295 14.3798 13.6822 14.8018 13.0489 15.0285C13.0098 15.0441 12.9707 15.0754 12.9473 15.1066C12.9238 15.1457 12.9082 15.1848 12.9082 15.2317V15.5365C12.9082 15.5599 12.9082 15.5912 12.9238 15.6146C12.9317 15.6381 12.9551 15.6615 12.9786 15.6771C13.002 15.6928 13.0255 15.7006 13.0568 15.7084C13.0802 15.7084 13.1115 15.7084 13.1349 15.6928C13.9324 15.4427 14.6282 14.9425 15.1286 14.2704C15.6211 13.5982 15.887 12.7932 15.887 11.957C15.887 11.1285 15.6211 10.3157 15.1286 9.64356C14.6282 8.97924 13.9324 8.47905 13.1349 8.22895Z" fill="#657786"/>
<defs>
<linearGradient id="paint0_linear_456_6407" x1="9.18668" y1="3.10714" x2="12.3192" y2="20.4809" gradientUnits="userSpaceOnUse">
<stop stop-color="#27D3A2"/>
<stop offset="1" stop-color="#9388FD"/>
</linearGradient>
</defs>
</svg>
