<svg width="24" height="24" viewBox="0 0 24 24" fill="none" xmlns="http://www.w3.org/2000/svg">
<path d="M12 2C17.5226 2 22 6.4774 22 12C22 17.5226 17.5224 22 12 22C6.4776 22 2 17.5238 2 12C2 6.4762 6.4768 2 12 2Z" fill="#53AE94"/>
<path d="M13.2339 10.6676V9.17999H16.6357V6.91339H7.37246V9.17999H10.7747V10.6664C8.00967 10.7934 5.93066 11.341 5.93066 11.997C5.93066 12.653 8.01066 13.2006 10.7747 13.3284V18.0934H13.2347V13.328C15.9947 13.2006 18.0695 12.6534 18.0695 11.998C18.0695 11.3426 15.9947 10.7954 13.2347 10.668L13.2339 10.6676ZM13.2347 12.9244V12.9232C13.1653 12.9276 12.8087 12.949 12.0147 12.949C11.3799 12.949 10.9333 12.931 10.7759 12.9228V12.9248C8.33307 12.8166 6.50966 12.3912 6.50966 11.8822C6.50966 11.3732 8.33327 10.9484 10.7759 10.84V12.501C10.9359 12.512 11.3935 12.539 12.0251 12.539C12.7837 12.539 13.1651 12.5074 13.2351 12.501V10.84C15.6731 10.9486 17.4923 11.3744 17.4923 11.8816C17.4923 12.3888 15.6723 12.8148 13.2351 12.9234" fill="white"/>
</svg>
