<svg width="24" height="24" viewBox="0 0 24 24" fill="none" xmlns="http://www.w3.org/2000/svg">
<path d="M12 4C16.4181 4 20 7.58192 20 12C20 16.4181 16.4179 20 12 20C7.58208 20 4 16.419 4 12C4 7.58096 7.58144 4 12 4Z" fill="#53AE94"/>
<path d="M12.9871 10.9341V9.74401H15.7085V7.93073H8.29797V9.74401H11.0197V10.9331C8.80773 11.0347 7.14453 11.4728 7.14453 11.9976C7.14453 12.5224 8.80853 12.9605 11.0197 13.0627V16.8747H12.9877V13.0624C15.1957 12.9605 16.8556 12.5227 16.8556 11.9984C16.8556 11.4741 15.1957 11.0363 12.9877 10.9344L12.9871 10.9341ZM12.9877 12.7395V12.7386C12.9322 12.7421 12.6469 12.7592 12.0117 12.7592C11.5039 12.7592 11.1466 12.7448 11.0207 12.7383V12.7399C9.06645 12.6533 7.60773 12.313 7.60773 11.9058C7.60773 11.4986 9.06661 11.1587 11.0207 11.072V12.4008C11.1487 12.4096 11.5148 12.4312 12.0201 12.4312C12.6269 12.4312 12.9321 12.4059 12.9881 12.4008V11.072C14.9385 11.1589 16.3938 11.4995 16.3938 11.9053C16.3938 12.311 14.9378 12.6518 12.9881 12.7387" fill="white"/>
<path fill-rule="evenodd" clip-rule="evenodd" d="M12 21C16.9706 21 21 16.9706 21 12C21 7.02944 16.9706 3 12 3C7.02944 3 3 7.02944 3 12C3 16.9706 7.02944 21 12 21ZM12 22C17.5228 22 22 17.5228 22 12C22 6.47715 17.5228 2 12 2C6.47715 2 2 6.47715 2 12C2 17.5228 6.47715 22 12 22Z" fill="url(#paint0_linear_2381_15162)"/>
<defs>
<linearGradient id="paint0_linear_2381_15162" x1="19.4559" y1="5.72645" x2="4.57586" y2="18.2465" gradientUnits="userSpaceOnUse">
<stop stop-color="#B6509E"/>
<stop offset="1" stop-color="#2EBAC6"/>
</linearGradient>
</defs>
</svg>
