<svg width="24" height="24" viewBox="0 0 24 24" fill="none" xmlns="http://www.w3.org/2000/svg">
<path d="M12.0022 21.9952C17.524 21.9952 22.0004 17.5215 22.0004 12.003C22.0004 6.48446 17.524 2.0108 12.0022 2.0108C6.48028 2.0108 2.00391 6.48446 2.00391 12.003C2.00391 17.5215 6.48028 21.9952 12.0022 21.9952Z" fill="#EDF0F2"/>
<path d="M18.348 19.7125C16.8237 20.9703 14.9553 21.7438 12.9854 21.9313C10.351 22.1891 7.71658 21.3922 5.66064 19.7125C3.61253 18.0328 2.31486 15.611 2.04908 12.9703C1.85365 11.0016 2.24451 9.02503 3.17476 7.28284C4.10501 5.54066 5.53557 4.11097 7.27881 3.18128C9.02206 2.25159 10.9998 1.85315 12.9698 2.04847C14.9397 2.24378 16.8002 3.0094 18.3324 4.26722L16.3156 6.72815C15.2759 5.87659 14.0016 5.34534 12.6571 5.22034C11.3125 5.08753 9.96795 5.36097 8.77973 5.99378C7.5915 6.62659 6.62217 7.60315 5.98115 8.79065C5.34795 9.97815 5.08217 11.3297 5.21506 12.6657C5.39486 14.4625 6.27821 16.1188 7.67749 17.2594C9.07678 18.4078 10.8747 18.9469 12.6727 18.7672C14.0173 18.6344 15.2837 18.1032 16.3234 17.2516L18.348 19.7125Z" fill="url(#paint0_linear_456_6405)"/>
<path d="M12.0313 20.1813C16.5419 20.1813 20.1925 16.525 20.1925 12.025C20.1925 7.51721 16.5419 3.86096 12.0313 3.86096C7.52078 3.86096 3.8623 7.51721 3.8623 12.025C3.8623 16.5328 7.52078 20.1813 12.0313 20.1813Z" fill="white"/>
<path d="M15.5883 10.9704H14.83C14.4157 9.81415 13.2978 9.02509 11.8203 9.02509H9.397V10.9704H8.55273V11.6657H9.397V12.4001H8.55273V13.0954H9.397V15.0173H11.8203C13.2744 15.0173 14.3844 14.236 14.8143 13.0954H15.5883V12.4001H14.9863C15.002 12.2751 15.0098 12.1501 15.0098 12.0251V12.0095C15.0098 11.8923 15.002 11.7829 14.9941 11.6735H15.5883V10.9704ZM10.0771 9.65008H11.8203C12.8991 9.65008 13.7043 10.1813 14.0795 10.9704H10.0771V9.65008ZM11.8203 14.3923H10.0771V13.0954H14.0795C13.7043 13.8766 12.8991 14.3923 11.8203 14.3923ZM14.3062 12.0407C14.3062 12.1657 14.2984 12.2829 14.2828 12.4001H10.0771V11.6657H14.2828C14.2984 11.7829 14.3062 11.9001 14.3062 12.0173V12.0407Z" fill="url(#paint1_linear_456_6405)"/>
<defs>
<linearGradient id="paint0_linear_456_6405" x1="9.18575" y1="3.10671" x2="12.3163" y2="20.474" gradientUnits="userSpaceOnUse">
<stop stop-color="#27D3A2"/>
<stop offset="1" stop-color="#9388FD"/>
</linearGradient>
<linearGradient id="paint1_linear_456_6405" x1="12.0705" y1="8.1804" x2="12.0705" y2="15.6501" gradientUnits="userSpaceOnUse">
<stop stop-color="#283947"/>
<stop offset="1" stop-color="#657786"/>
</linearGradient>
</defs>
</svg>
