<svg width="32" height="32" viewBox="0 0 32 32" fill="none" xmlns="http://www.w3.org/2000/svg">
<rect width="32" height="32" rx="6" fill="url(#paint0_linear_1882_13944)"/>
<path d="M31.8917 16.1525L31.9459 16.2196L32 16.2867V6C32 2.68629 29.3137 0 26 0H6C2.68629 0 0 2.68629 0 6V18.7343L0.0541458 18.7967L0.108292 18.8588L0.162434 18.9207L0.216581 18.9823L0.270727 19.0437L0.324869 19.1047L0.379019 19.1655L0.433163 19.226L0.487307 19.2862L0.541452 19.3461L0.595598 19.4057L0.649748 19.465L0.70389 19.524L0.758039 19.5826L0.812183 19.641L0.866325 19.699L0.920473 19.7566L0.974619 19.8139L1.02876 19.8708L1.08291 19.9274L1.13706 19.9836L1.1912 20.0395L1.24534 20.095L1.29949 20.1501L1.35364 20.2048L1.40779 20.2591L1.46193 20.313L1.51607 20.3665L1.57022 20.4196L1.62436 20.4723L1.67851 20.5246L1.73266 20.5765L1.7868 20.6279L1.84095 20.6789L1.89509 20.7294L1.94924 20.7795L2.00338 20.8292L2.05753 20.8784L2.11168 20.9271L2.16582 20.9754L2.21996 21.0232L2.27411 21.0706L2.32826 21.1174L2.3824 21.1638L2.43655 21.2097L2.49069 21.2551L2.54484 21.3L2.59898 21.3444L2.65313 21.3883L2.70727 21.4317L2.76142 21.4745L2.81557 21.5169L2.86971 21.5587L2.92386 21.6L2.978 21.6408L3.03215 21.681L3.08629 21.7207L3.14044 21.7598L3.19459 21.7984L3.24873 21.8365L3.30287 21.874L3.35702 21.9109L3.41117 21.9473L3.46531 21.9831L3.51946 22.0183L3.5736 22.053L3.62775 22.0871L3.68189 22.1206L3.73604 22.1535L3.79019 22.1859L3.84433 22.2176L3.89848 22.2488L3.95262 22.2793L4.00677 22.3093L4.06091 22.3386L4.11506 22.3674L4.1692 22.3955L4.22335 22.4231L4.27749 22.45L4.33164 22.4763L4.38579 22.502L4.43993 22.5271L4.49408 22.5515L4.54823 22.5753L4.60237 22.5985L4.65651 22.621L4.71066 22.643L4.7648 22.6642L4.81895 22.6849L4.87309 22.7049L4.92724 22.7243L4.98139 22.743L5.03553 22.7611L5.08968 22.7785L5.14382 22.7953L5.19797 22.8114L5.25212 22.8269L5.30626 22.8417L5.3604 22.8559L5.41455 22.8694L5.4687 22.8822L5.52284 22.8944L5.57699 22.9059L5.63113 22.9168L5.68528 22.927L5.73942 22.9366L5.79357 22.9454L5.84772 22.9536L5.90186 22.9612L5.95601 22.9681L6.01015 22.9743L6.0643 22.9798L6.11844 22.9847L6.17259 22.9889L6.22673 22.9924L6.28088 22.9953L6.33503 22.9975L6.38917 22.999L6.44331 22.9998L6.49746 23L6.55161 22.9995L6.60575 22.9983L6.6599 22.9965L6.71404 22.994L6.76819 22.9908L6.82233 22.987L6.87648 22.9824L6.93063 22.9772L6.98477 22.9714L7.03892 22.9649L7.09306 22.9577L7.14721 22.9498L7.20135 22.9413L7.2555 22.9321L7.30965 22.9222L7.36379 22.9117L7.41793 22.9005L7.47208 22.8887L7.52623 22.8762L7.58037 22.863L7.63452 22.8492L7.68866 22.8347L7.74281 22.8196L7.79695 22.8038L7.8511 22.7873L7.90524 22.7702L7.95939 22.7525L8.01354 22.7341L8.06768 22.7151L8.12183 22.6954L8.17597 22.6751L8.23012 22.6542L8.28426 22.6326L8.33841 22.6103L8.39256 22.5875L8.4467 22.564L8.50084 22.5399L8.55499 22.5152L8.60914 22.4898L8.66328 22.4638L8.71743 22.4372L8.77157 22.41L8.82572 22.3822L8.87987 22.3537L8.93401 22.3247L8.98815 22.2951L9.0423 22.2648L9.09645 22.234L9.15059 22.2025L9.20473 22.1705L9.25888 22.1379L9.31303 22.1047L9.36717 22.0709L9.42132 22.0365L9.47547 22.0016L9.52961 21.9661L9.58376 21.93L9.6379 21.8933L9.69205 21.8561L9.74619 21.8184L9.80034 21.7801L9.85448 21.7412L9.90863 21.7018L9.96277 21.6618L10.0169 21.6213L10.0711 21.5803L10.1252 21.5388L10.1794 21.4967L10.2335 21.4541L10.2876 21.411L10.3418 21.3674L10.3959 21.3232L10.4501 21.2786L10.5042 21.2335L10.5584 21.1878L10.6125 21.1417L10.6667 21.0951L10.7208 21.048L10.775 21.0004L10.8291 20.9524L10.8832 20.9039L10.9374 20.8549L10.9915 20.8055L11.0457 20.7556L11.0998 20.7053L11.154 20.6546L11.2081 20.6034L11.2623 20.5517L11.3164 20.4997L11.3706 20.4472L11.4247 20.3943L11.4788 20.341L11.533 20.2873L11.5871 20.2332L11.6413 20.1787L11.6954 20.1238L11.7496 20.0685L11.8037 20.0128L11.8579 19.9568L11.912 19.9004L11.9662 19.8437L12.0203 19.7866L12.0744 19.7291L12.1286 19.6713L12.1827 19.6131L12.2369 19.5547L12.291 19.4959L12.3452 19.4367L12.3993 19.3773L12.4535 19.3175L12.5076 19.2575L12.5618 19.1971L12.6159 19.1365L12.67 19.0756L12.7242 19.0144L12.7783 18.9529L12.8325 18.8912L12.8866 18.8291L12.9408 18.7669L12.9949 18.7044L13.0491 18.6416L13.1032 18.5786L13.1574 18.5154L13.2115 18.452L13.2656 18.3883L13.3198 18.3245L13.3739 18.2604L13.4281 18.1962L13.4822 18.1317L13.5364 18.0671L13.5905 18.0022L13.6447 17.9373L13.6988 17.8721L13.753 17.8068L13.8071 17.7413L13.8612 17.6757L13.9154 17.61L13.9695 17.5441L14.0237 17.4781L14.0778 17.412L14.132 17.3457L14.1861 17.2794L14.2403 17.2129L14.2944 17.1464L14.3486 17.0798L14.4027 17.0131L14.4569 16.9463L14.511 16.8795L14.5651 16.8126L14.6193 16.7456L14.6734 16.6786L14.7276 16.6116L14.7817 16.5445L14.8359 16.4774L14.89 16.4103L14.9442 16.3432L14.9983 16.276L15.0525 16.2089L15.1066 16.1418L15.1607 16.0747L15.2149 16.0076L15.269 15.9405L15.3232 15.8735L15.3773 15.8065L15.4315 15.7396L15.4856 15.6727L15.5398 15.6059L15.5939 15.5391L15.6481 15.4724L15.7022 15.4058L15.7563 15.3393L15.8105 15.2729L15.8646 15.2066L15.9188 15.1404L15.9729 15.0743L16.0271 15.0084L16.0812 14.9425L16.1354 14.8768L16.1895 14.8112L16.2437 14.7458L16.2978 14.6806L16.3519 14.6155L16.4061 14.5505L16.4602 14.4858L16.5144 14.4212L16.5685 14.3568L16.6227 14.2926L16.6768 14.2286L16.731 14.1648L16.7851 14.1012L16.8393 14.0378L16.8934 13.9747L16.9475 13.9118L17.0017 13.8491L17.0558 13.7867L17.11 13.7245L17.1641 13.6626L17.2183 13.6009L17.2724 13.5395L17.3266 13.4784L17.3807 13.4176L17.4349 13.357L17.489 13.2968L17.5431 13.2368L17.5973 13.1772L17.6514 13.1178L17.7056 13.0588L17.7597 13.0001L17.8139 12.9417L17.868 12.8837L17.9222 12.826L17.9763 12.7687L18.0305 12.7117L18.0846 12.655L18.1387 12.5987L18.1929 12.5428L18.247 12.4873L18.3012 12.4321L18.3553 12.3774L18.4095 12.323L18.4636 12.269L18.5178 12.2154L18.5719 12.1622L18.6261 12.1095L18.6802 12.0571L18.7343 12.0052L18.7885 11.9537L18.8426 11.9027L18.8968 11.852L18.9509 11.8019L19.0051 11.7521L19.0592 11.7029L19.1134 11.654L19.1675 11.6057L19.2217 11.5578L19.2758 11.5104L19.3299 11.4635L19.3841 11.417L19.4382 11.371L19.4924 11.3256L19.5465 11.2806L19.6007 11.2361L19.6548 11.1921L19.709 11.1487L19.7631 11.1057L19.8173 11.0633L19.8714 11.0214L19.9256 10.98L19.9797 10.9391L20.0338 10.8988L20.088 10.859L20.1421 10.8198L20.1963 10.7811L20.2504 10.743L20.3046 10.7054L20.3587 10.6684L20.4129 10.6319L20.467 10.596L20.5211 10.5607L20.5753 10.5259L20.6294 10.4917L20.6836 10.4581L20.7377 10.4251L20.7919 10.3927L20.846 10.3608L20.9002 10.3296L20.9543 10.2989L21.0085 10.2689L21.0626 10.2394L21.1168 10.2106L21.1709 10.1823L21.225 10.1547L21.2792 10.1277L21.3333 10.1013L21.3875 10.0755L21.4416 10.0503L21.4958 10.0258L21.5499 10.0019L21.6041 9.9786L21.6582 9.95595L21.7124 9.93393L21.7665 9.91254L21.8206 9.89179L21.8748 9.87168L21.9289 9.85222L21.9831 9.83339L22.0372 9.81522L22.0914 9.79769L22.1455 9.7808L22.1997 9.76457L22.2538 9.74899L22.308 9.73407L22.3621 9.7198L22.4162 9.70618L22.4704 9.69323L22.5245 9.68093L22.5787 9.6693L22.6328 9.65832L22.687 9.64801L22.7411 9.63836L22.7953 9.62938L22.8494 9.62106L22.9036 9.61341L22.9577 9.60643L23.0118 9.60012L23.066 9.59447L23.1201 9.58949L23.1743 9.58519L23.2284 9.58155L23.2826 9.57858L23.3367 9.57629L23.3909 9.57466L23.445 9.57371L23.4992 9.57343L23.5533 9.57382L23.6074 9.57487L23.6616 9.57661L23.7157 9.57901L23.7699 9.58208L23.824 9.58583L23.8782 9.59024L23.9323 9.59532L23.9865 9.60108L24.0406 9.6075L24.0948 9.61459L24.1489 9.62234L24.203 9.63077L24.2572 9.63985L24.3113 9.64961L24.3655 9.66002L24.4196 9.6711L24.4738 9.68284L24.5279 9.69525L24.5821 9.70831L24.6362 9.72202L24.6904 9.7364L24.7445 9.75143L24.7986 9.76711L24.8528 9.78345L24.9069 9.80043L24.9611 9.81807L25.0152 9.83635L25.0694 9.85528L25.1235 9.87484L25.1777 9.89505L25.2318 9.9159L25.286 9.93739L25.3401 9.95951L25.3942 9.98227L25.4484 10.0057L25.5025 10.0297L25.5567 10.0543L25.6108 10.0796L25.665 10.1054L25.7191 10.1319L25.7733 10.1591L25.8274 10.1868L25.8816 10.2151L25.9357 10.2441L25.9898 10.2736L26.044 10.3038L26.0981 10.3345L26.1523 10.3659L26.2064 10.3978L26.2606 10.4303L26.3147 10.4634L26.3689 10.4971L26.423 10.5314L26.4772 10.5663L26.5313 10.6017L26.5854 10.6377L26.6396 10.6742L26.6937 10.7113L26.7479 10.749L26.802 10.7872L26.8562 10.826L26.9103 10.8653L26.9645 10.9052L27.0186 10.9456L27.0728 10.9865L27.1269 11.028L27.181 11.07L27.2352 11.1125L27.2893 11.1556L27.3435 11.1991L27.3976 11.2432L27.4518 11.2877L27.5059 11.3328L27.5601 11.3783L27.6142 11.4244L27.6684 11.4709L27.7225 11.5179L27.7766 11.5654L27.8308 11.6134L27.8849 11.6618L27.9391 11.7107L27.9932 11.76L28.0474 11.8098L28.1015 11.8601L28.1557 11.9108L28.2098 11.9619L28.264 12.0135L28.3181 12.0654L28.3723 12.1179L28.4264 12.1707L28.4805 12.2239L28.5347 12.2776L28.5888 12.3316L28.643 12.3861L28.6971 12.4409L28.7513 12.4961L28.8054 12.5517L28.8596 12.6077L28.9137 12.664L28.9679 12.7207L29.022 12.7778L29.0761 12.8352L29.1303 12.8929L29.1844 12.951L29.2386 13.0094L29.2927 13.0682L29.3469 13.1273L29.401 13.1867L29.4552 13.2464L29.5093 13.3064L29.5635 13.3667L29.6176 13.4273L29.6717 13.4881L29.7259 13.5493L29.78 13.6107L29.8342 13.6724L29.8883 13.7344L29.9425 13.7966L29.9966 13.8591L30.0508 13.9218L30.1049 13.9847L30.1591 14.0479L30.2132 14.1113L30.2673 14.1749L30.3215 14.2388L30.3756 14.3028L30.4298 14.367L30.4839 14.4315L30.5381 14.4961L30.5922 14.5609L30.6464 14.6258L30.7005 14.691L30.7547 14.7562L30.8088 14.8217L30.8629 14.8873L30.9171 14.953L30.9712 15.0189L31.0254 15.0848L31.0795 15.1509L31.1337 15.2172L31.1878 15.2835L31.242 15.3499L31.2961 15.4164L31.3503 15.4831L31.4044 15.5497L31.4585 15.6165L31.5127 15.6833L31.5668 15.7502L31.621 15.8172L31.6751 15.8842L31.7293 15.9512L31.7834 16.0183L31.8376 16.0854L31.8917 16.1525Z" fill="url(#paint1_linear_1882_13944)"/>
<defs>
<linearGradient id="paint0_linear_1882_13944" x1="16" y1="32" x2="16" y2="16" gradientUnits="userSpaceOnUse">
<stop stop-color="#131833"/>
<stop offset="1" stop-color="#0F1C4D"/>
</linearGradient>
<linearGradient id="paint1_linear_1882_13944" x1="-2.00338" y1="23" x2="31.9998" y2="22.9185" gradientUnits="userSpaceOnUse">
<stop stop-color="#F29C24"/>
<stop offset="1" stop-color="#EF7000"/>
</linearGradient>
</defs>
</svg>