<svg width="392" height="124" viewBox="0 0 392 124" fill="none" xmlns="http://www.w3.org/2000/svg">
<path d="M248.243 0C248.229 0.134965 248.222 0.271915 248.222 0.410511V11.3679C248.222 13.577 246.432 15.3679 244.222 15.3679H237.996C235.787 15.3679 233.996 17.1588 233.996 19.3679V34.3878C233.996 36.5969 232.206 38.3878 229.996 38.3878H223.204C221.307 38.3878 219.77 36.8505 219.77 34.9542C219.77 33.0579 218.233 31.5207 216.337 31.5207H209.544C207.335 31.5207 205.544 33.3115 205.544 35.5207V72.7772C205.544 74.9864 203.753 76.7772 201.544 76.7772H195.318C193.109 76.7772 191.318 74.9864 191.318 72.7772V52.9452C191.318 50.7361 189.527 48.9452 187.318 48.9452H181.092C178.883 48.9452 177.092 50.7361 177.092 52.9452V60.8028C177.092 63.0119 175.301 64.8028 173.092 64.8028H166.849C164.64 64.8028 162.849 66.5936 162.849 68.8028V88.9355C162.849 91.1447 161.059 92.9355 158.849 92.9355H152.623C150.414 92.9355 148.623 94.7264 148.623 96.9355V103.998C148.623 106.207 146.832 107.998 144.623 107.998H114.772C112.563 107.998 110.772 106.207 110.772 103.998V88.9355C110.772 86.7264 108.981 84.9355 106.772 84.9355H100.546C98.3369 84.9355 96.546 83.1447 96.546 80.9355V76.5953C96.546 74.3861 94.7552 72.5953 92.546 72.5953H86.32C84.1109 72.5953 82.32 74.3861 82.32 76.5953V88.9355C82.32 91.1447 80.5291 92.9355 78.32 92.9355H72.0938C69.8846 92.9355 68.0938 94.7264 68.0938 96.9355V103.998C68.0938 106.207 66.3029 107.998 64.0938 107.998H50.563C48.3539 107.998 46.563 106.207 46.563 103.998V88.9355C46.563 86.7264 44.7721 84.9355 42.563 84.9355H36.3369C34.1278 84.9355 32.3369 86.7264 32.3369 88.9355V103.998C32.3369 106.207 30.5461 107.998 28.3369 107.998H16C13.7909 107.998 12 109.788 12 111.998V124H392V0H374.377V1.79091C374.377 4.00005 372.586 5.79091 370.377 5.79091H364.151C361.941 5.79091 360.151 7.58177 360.151 9.79091V17.8665C360.151 20.0756 358.36 21.8665 356.15 21.8665H349.924C347.715 21.8665 345.924 23.6574 345.924 25.8665V46.0799C345.924 48.2891 344.133 50.0799 341.924 50.0799H323.361C321.152 50.0799 319.361 48.2891 319.361 46.0799V33.9519C319.361 31.7428 317.57 29.9519 315.361 29.9519H309.135C306.926 29.9519 305.135 28.1611 305.135 25.9519V15.8616C305.135 13.6525 303.344 11.8616 301.135 11.8616H294.909C292.7 11.8616 290.909 13.6525 290.909 15.8616V20.2067C290.909 22.4159 289.118 24.2067 286.909 24.2067H280.683C278.474 24.2067 276.683 25.9976 276.683 28.2067V34.3878C276.683 36.5969 274.892 38.3878 272.683 38.3878H266.449C264.239 38.3878 262.449 36.5969 262.449 34.3878V0.410508C262.449 0.271912 262.442 0.134964 262.428 0H248.243Z" fill="url(#paint0_linear_2975_20357)"/>
<path d="M14 124V111.998C14 110.893 14.8954 109.998 16 109.998H28.3369C31.6507 109.998 34.3369 107.311 34.3369 103.998V88.9355C34.3369 87.8309 35.2324 86.9355 36.3369 86.9355H42.563C43.6675 86.9355 44.563 87.8309 44.563 88.9355V103.998C44.563 107.311 47.2493 109.998 50.563 109.998H64.0938C67.4075 109.998 70.0938 107.311 70.0938 103.998V96.9355C70.0938 95.8309 70.9892 94.9355 72.0938 94.9355H78.32C81.6337 94.9355 84.32 92.2492 84.32 88.9355V76.5953C84.32 75.4907 85.2154 74.5953 86.32 74.5953H92.546C93.6506 74.5953 94.546 75.4907 94.546 76.5953V80.9355C94.546 84.2492 97.2323 86.9355 100.546 86.9355H106.772C107.877 86.9355 108.772 87.8309 108.772 88.9355V103.998C108.772 107.311 111.458 109.998 114.772 109.998H144.623C147.937 109.998 150.623 107.311 150.623 103.998V96.9355C150.623 95.8309 151.519 94.9355 152.623 94.9355H158.849C162.163 94.9355 164.849 92.2492 164.849 88.9355V68.8028C164.849 67.6982 165.745 66.8028 166.849 66.8028H173.092C176.406 66.8028 179.092 64.1165 179.092 60.8028V52.9452C179.092 51.8407 179.987 50.9452 181.092 50.9452H187.318C188.423 50.9452 189.318 51.8407 189.318 52.9452V72.7772C189.318 76.091 192.004 78.7772 195.318 78.7772H201.544C204.858 78.7772 207.544 76.091 207.544 72.7772V35.5207C207.544 34.4161 208.44 33.5207 209.544 33.5207H216.337C217.128 33.5207 217.77 34.1625 217.77 34.9542C217.77 37.9551 220.203 40.3878 223.204 40.3878H229.996C233.31 40.3878 235.996 37.7015 235.996 34.3878V19.3679C235.996 18.2633 236.892 17.3679 237.996 17.3679H244.222C247.536 17.3679 250.222 14.6816 250.222 11.3679V0.410511C250.222 0.269808 250.237 0.132498 250.265 0H248.243C248.229 0.134965 248.222 0.271915 248.222 0.410511V11.3679C248.222 13.577 246.432 15.3679 244.222 15.3679H237.996C235.787 15.3679 233.996 17.1588 233.996 19.3679V34.3878C233.996 36.5969 232.206 38.3878 229.996 38.3878H223.204C221.307 38.3878 219.77 36.8505 219.77 34.9542C219.77 33.0579 218.233 31.5207 216.337 31.5207H209.544C207.335 31.5207 205.544 33.3115 205.544 35.5207V72.7772C205.544 74.9864 203.753 76.7772 201.544 76.7772H195.318C193.109 76.7772 191.318 74.9864 191.318 72.7772V52.9452C191.318 50.7361 189.527 48.9452 187.318 48.9452H181.092C178.883 48.9452 177.092 50.7361 177.092 52.9452V60.8028C177.092 63.0119 175.301 64.8028 173.092 64.8028H166.849C164.64 64.8028 162.849 66.5936 162.849 68.8028V88.9355C162.849 91.1447 161.059 92.9355 158.849 92.9355H152.623C150.414 92.9355 148.623 94.7264 148.623 96.9355V103.998C148.623 106.207 146.832 107.998 144.623 107.998H114.772C112.563 107.998 110.772 106.207 110.772 103.998V88.9355C110.772 86.7264 108.981 84.9355 106.772 84.9355H100.546C98.3369 84.9355 96.546 83.1447 96.546 80.9355V76.5953C96.546 74.3861 94.7552 72.5953 92.546 72.5953H86.32C84.1109 72.5953 82.32 74.3861 82.32 76.5953V88.9355C82.32 91.1447 80.5291 92.9355 78.32 92.9355H72.0938C69.8846 92.9355 68.0938 94.7264 68.0938 96.9355V103.998C68.0938 106.207 66.3029 107.998 64.0938 107.998H50.563C48.3539 107.998 46.563 106.207 46.563 103.998V88.9355C46.563 86.7264 44.7721 84.9355 42.563 84.9355H36.3369C34.1278 84.9355 32.3369 86.7264 32.3369 88.9355V103.998C32.3369 106.207 30.5461 107.998 28.3369 107.998H16C13.7909 107.998 12 109.788 12 111.998V124H14Z" fill="url(#paint1_linear_2975_20357)"/>
<path d="M376.377 0H374.377V1.79091C374.377 4.00005 372.586 5.79091 370.377 5.79091H364.151C361.941 5.79091 360.151 7.58177 360.151 9.79091V17.8665C360.151 20.0756 358.36 21.8665 356.151 21.8665H349.924C347.715 21.8665 345.924 23.6574 345.924 25.8665V46.0799C345.924 48.2891 344.133 50.0799 341.924 50.0799H323.361C321.152 50.0799 319.361 48.2891 319.361 46.0799V33.9519C319.361 31.7428 317.57 29.9519 315.361 29.9519H309.135C306.926 29.9519 305.135 28.1611 305.135 25.9519V15.8616C305.135 13.6525 303.344 11.8616 301.135 11.8616H294.909C292.7 11.8616 290.909 13.6525 290.909 15.8616V20.2067C290.909 22.4159 289.118 24.2067 286.909 24.2067H280.683C278.474 24.2067 276.683 25.9976 276.683 28.2067V34.3878C276.683 36.5969 274.892 38.3878 272.683 38.3878H266.449C264.239 38.3878 262.449 36.5969 262.449 34.3878V0.410507C262.449 0.271912 262.442 0.134963 262.428 0H260.406C260.434 0.132497 260.449 0.269805 260.449 0.410507V34.3878C260.449 37.7015 263.135 40.3878 266.449 40.3878H272.683C275.997 40.3878 278.683 37.7015 278.683 34.3878V28.2067C278.683 27.1022 279.578 26.2067 280.683 26.2067H286.909C290.223 26.2067 292.909 23.5204 292.909 20.2067V15.8616C292.909 14.757 293.804 13.8616 294.909 13.8616H301.135C302.24 13.8616 303.135 14.757 303.135 15.8616V25.9519C303.135 29.2656 305.821 31.9519 309.135 31.9519H315.361C316.466 31.9519 317.361 32.8473 317.361 33.9519V46.0799C317.361 49.3936 320.047 52.0799 323.361 52.0799H341.924C345.238 52.0799 347.924 49.3936 347.924 46.0799V25.8665C347.924 24.7619 348.82 23.8665 349.924 23.8665H356.151C359.464 23.8665 362.151 21.1802 362.151 17.8665V9.79091C362.151 8.68634 363.046 7.79091 364.151 7.79091H370.377C373.69 7.79091 376.377 5.10461 376.377 1.79091V0Z" fill="url(#paint2_linear_2975_20357)"/>
<path d="M116.344 44.2545L111.27 49.0202C110.692 49.5631 111.105 50.4859 111.926 50.4859H113.354L113.354 50.4901V63.1399C113.354 63.6149 113.768 64 114.278 64H119.722C120.232 64 120.646 63.6149 120.646 63.1399V50.4901L120.646 50.4859H122.074C122.895 50.4859 123.308 49.5631 122.73 49.0202L117.656 44.2545C117.295 43.9152 116.705 43.9152 116.344 44.2545Z" fill="url(#paint3_linear_2975_20357)"/>
<path d="M5.34407 72.2545L0.269621 77.0202C-0.308461 77.5631 0.104516 78.4859 0.925548 78.4859H2.35442L2.35441 78.4901V89.1399C2.35441 89.6149 2.76797 90 3.27811 90H8.72182C9.23196 90 9.64552 89.6149 9.64552 89.1399V78.4901L9.64551 78.4859H11.0745C11.8955 78.4859 12.3085 77.5631 11.7304 77.0202L6.65593 72.2545C6.29457 71.9152 5.70543 71.9152 5.34407 72.2545Z" fill="url(#paint4_linear_2975_20357)"/>
<path d="M326.344 8.25452L321.27 13.0202C320.692 13.5631 321.105 14.4859 321.926 14.4859H323.354L323.354 14.4901V25.1399C323.354 25.6149 323.768 26 324.278 26H329.722C330.232 26 330.646 25.6149 330.646 25.1399V14.4901L330.646 14.4859H332.074C332.895 14.4859 333.308 13.5631 332.73 13.0202L327.656 8.25452C327.295 7.91516 326.705 7.91516 326.344 8.25452Z" fill="url(#paint5_linear_2975_20357)"/>
<defs>
<linearGradient id="paint0_linear_2975_20357" x1="329" y1="-10.5" x2="329" y2="124" gradientUnits="userSpaceOnUse">
<stop stop-color="#284389"/>
<stop offset="0.250563" stop-color="#1F2D66"/>
<stop offset="1" stop-color="#131833"/>
</linearGradient>
<linearGradient id="paint1_linear_2975_20357" x1="375.5" y1="-21" x2="335.5" y2="59" gradientUnits="userSpaceOnUse">
<stop stop-color="#435FA8"/>
<stop offset="1" stop-color="#435FA8" stop-opacity="0"/>
</linearGradient>
<linearGradient id="paint2_linear_2975_20357" x1="375.5" y1="-21" x2="335.5" y2="59" gradientUnits="userSpaceOnUse">
<stop stop-color="#435FA8"/>
<stop offset="1" stop-color="#435FA8" stop-opacity="0"/>
</linearGradient>
<linearGradient id="paint3_linear_2975_20357" x1="117" y1="44" x2="117" y2="64" gradientUnits="userSpaceOnUse">
<stop stop-color="#1F2D66"/>
<stop offset="1" stop-color="#1F2D66" stop-opacity="0"/>
</linearGradient>
<linearGradient id="paint4_linear_2975_20357" x1="6" y1="72" x2="6" y2="90" gradientUnits="userSpaceOnUse">
<stop stop-color="#1A244F"/>
<stop offset="1" stop-color="#1A244F" stop-opacity="0"/>
</linearGradient>
<linearGradient id="paint5_linear_2975_20357" x1="327" y1="8" x2="327" y2="24" gradientUnits="userSpaceOnUse">
<stop stop-color="#344C91"/>
<stop offset="1" stop-color="#233878" stop-opacity="0"/>
</linearGradient>
</defs>
</svg>
