<svg width="717" height="264" viewBox="0 0 717 264" fill="none" xmlns="http://www.w3.org/2000/svg">
<mask id="mask0_1740_16636" style="mask-type:alpha" maskUnits="userSpaceOnUse" x="0" y="0" width="717" height="264">
<rect width="717" height="264" fill="#C4C4C4"/>
</mask>
<g mask="url(#mask0_1740_16636)">
<path d="M9.60665 123.176C-26.8028 233.643 -23.9475 394 -23.9475 394H762V88.5292C704.301 82.3127 612.304 71.2893 495.792 53.6382C365.24 33.8598 261.051 12.71 171.667 12.71C133.829 12.71 46.0178 12.71 9.60665 123.176Z" fill="url(#paint0_linear_1740_16636)"/>
<path fill-rule="evenodd" clip-rule="evenodd" d="M-23.9475 394C-23.9475 394 -26.8028 233.643 9.60665 123.177C46.0178 12.7102 133.829 12.7102 171.667 12.7102C261.051 12.7102 365.24 33.86 495.792 53.6385C612.304 71.2896 704.301 82.313 762 88.5294V0H-24L-23.9475 394Z" fill="url(#paint1_radial_1740_16636)"/>
<path d="M-23.9475 394C-23.9475 394 -26.8028 233.643 9.60665 123.176C46.0178 12.71 133.829 12.71 171.667 12.71C261.051 12.71 365.24 33.8598 495.792 53.6382C612.304 71.2893 704.301 82.3127 762 88.5292" stroke="url(#paint2_linear_1740_16636)" stroke-width="2" stroke-linecap="round"/>
</g>
<defs>
<linearGradient id="paint0_linear_1740_16636" x1="215.791" y1="-28" x2="215.791" y2="147.5" gradientUnits="userSpaceOnUse">
<stop stop-color="#0F1C4D"/>
<stop offset="1" stop-color="#131833"/>
</linearGradient>
<radialGradient id="paint1_radial_1740_16636" cx="0" cy="0" r="1" gradientUnits="userSpaceOnUse" gradientTransform="translate(183 -13.5) rotate(90) scale(302.5 1460.38)">
<stop stop-color="#F29C24"/>
<stop offset="0.0372566" stop-color="#EF6E00"/>
<stop offset="0.180207" stop-color="#0F1B4C"/>
<stop offset="1" stop-color="#131833"/>
</radialGradient>
<linearGradient id="paint2_linear_1740_16636" x1="369" y1="92.5" x2="369" y2="13" gradientUnits="userSpaceOnUse">
<stop offset="0.129894" stop-color="#0F1C4D"/>
<stop offset="0.881088" stop-color="#EF7000"/>
<stop offset="1" stop-color="#F29C24"/>
</linearGradient>
</defs>
</svg>
