<svg width="343" height="204" viewBox="0 0 343 204" fill="none" xmlns="http://www.w3.org/2000/svg">
<path d="M199.243 0C199.229 0.134965 199.222 0.271915 199.222 0.410511V11.3679C199.222 13.577 197.432 15.3679 195.222 15.3679H188.996C186.787 15.3679 184.996 17.1588 184.996 19.3679V34.3878C184.996 36.5969 183.206 38.3878 180.996 38.3878H174.204C172.307 38.3878 170.77 36.8505 170.77 34.9542C170.77 33.0579 169.233 31.5207 167.337 31.5207H160.544C158.335 31.5207 156.544 33.3115 156.544 35.5207V72.7772C156.544 74.9864 154.753 76.7772 152.544 76.7772H146.318C144.109 76.7772 142.318 74.9864 142.318 72.7772V52.9452C142.318 50.7361 140.527 48.9452 138.318 48.9452H132.092C129.883 48.9452 128.092 50.7361 128.092 52.9452V60.8028C128.092 63.0119 126.301 64.8028 124.092 64.8028H117.849C115.64 64.8028 113.849 66.5936 113.849 68.8028V88.9355C113.849 91.1447 112.059 92.9355 109.849 92.9355H103.623C101.414 92.9355 99.6232 94.7264 99.6232 96.9355V103.998C99.6232 106.207 97.8324 107.998 95.6232 107.998H65.7722C63.563 107.998 61.7722 106.207 61.7722 103.998V88.9355C61.7722 86.7264 59.9813 84.9355 57.7722 84.9355H51.546C49.3369 84.9355 47.546 83.1447 47.546 80.9355V76.5953C47.546 74.3861 45.7552 72.5953 43.546 72.5953H37.32C35.1109 72.5953 33.32 74.3861 33.32 76.5953V88.9355C33.32 91.1447 31.5291 92.9355 29.32 92.9355H23.0938C20.8846 92.9355 19.0938 94.7264 19.0938 96.9355V103.998C19.0938 106.207 17.3029 107.998 15.0938 107.998H1.563C-0.646145 107.998 -2.43701 106.207 -2.43701 103.998V88.9355C-2.43701 86.7264 -4.22787 84.9355 -6.43701 84.9355H-12.6631C-14.8722 84.9355 -16.6631 86.7264 -16.6631 88.9355V103.998C-16.6631 106.207 -18.4539 107.998 -20.6631 107.998H-33C-35.2091 107.998 -37 109.788 -37 111.998V204H343V0H325.377V1.79091C325.377 4.00005 323.586 5.79091 321.377 5.79091H315.151C312.941 5.79091 311.151 7.58177 311.151 9.79091V17.8665C311.151 20.0756 309.36 21.8665 307.15 21.8665H300.924C298.715 21.8665 296.924 23.6574 296.924 25.8665V46.0799C296.924 48.2891 295.133 50.0799 292.924 50.0799H274.361C272.152 50.0799 270.361 48.2891 270.361 46.0799V33.9519C270.361 31.7428 268.57 29.9519 266.361 29.9519H260.135C257.926 29.9519 256.135 28.1611 256.135 25.9519V15.8616C256.135 13.6525 254.344 11.8616 252.135 11.8616H245.909C243.7 11.8616 241.909 13.6525 241.909 15.8616V20.2067C241.909 22.4159 240.118 24.2067 237.909 24.2067H231.683C229.474 24.2067 227.683 25.9976 227.683 28.2067V34.3878C227.683 36.5969 225.892 38.3878 223.683 38.3878H217.449C215.239 38.3878 213.449 36.5969 213.449 34.3878V0.410508C213.449 0.271912 213.442 0.134964 213.428 0H199.243Z" fill="url(#paint0_linear_2998_22018)"/>
<path d="M-35 124V111.998C-35 110.893 -34.1046 109.998 -33 109.998H-20.6631C-17.3493 109.998 -14.6631 107.311 -14.6631 103.998V88.9355C-14.6631 87.8309 -13.7676 86.9355 -12.6631 86.9355H-6.43701C-5.33246 86.9355 -4.43701 87.8309 -4.43701 88.9355V103.998C-4.43701 107.311 -1.7507 109.998 1.56299 109.998H15.0938C18.4075 109.998 21.0938 107.311 21.0938 103.998V96.9355C21.0938 95.8309 21.9892 94.9355 23.0938 94.9355H29.32C32.6337 94.9355 35.32 92.2492 35.32 88.9355V76.5953C35.32 75.4907 36.2154 74.5953 37.32 74.5953H43.546C44.6506 74.5953 45.546 75.4907 45.546 76.5953V80.9355C45.546 84.2492 48.2323 86.9355 51.546 86.9355H57.7722C58.8767 86.9355 59.7722 87.8309 59.7722 88.9355V103.998C59.7722 107.311 62.4585 109.998 65.7722 109.998H95.6232C98.937 109.998 101.623 107.311 101.623 103.998V96.9355C101.623 95.8309 102.519 94.9355 103.623 94.9355H109.849C113.163 94.9355 115.849 92.2492 115.849 88.9355V68.8028C115.849 67.6982 116.745 66.8028 117.849 66.8028H124.092C127.406 66.8028 130.092 64.1165 130.092 60.8028V52.9452C130.092 51.8407 130.987 50.9452 132.092 50.9452H138.318C139.423 50.9452 140.318 51.8407 140.318 52.9452V72.7772C140.318 76.091 143.004 78.7772 146.318 78.7772H152.544C155.858 78.7772 158.544 76.091 158.544 72.7772V35.5207C158.544 34.4161 159.44 33.5207 160.544 33.5207H167.337C168.128 33.5207 168.77 34.1625 168.77 34.9542C168.77 37.9551 171.203 40.3878 174.204 40.3878H180.996C184.31 40.3878 186.996 37.7015 186.996 34.3878V19.3679C186.996 18.2633 187.892 17.3679 188.996 17.3679H195.222C198.536 17.3679 201.222 14.6816 201.222 11.3679V0.410511C201.222 0.269808 201.237 0.132498 201.265 0H199.243C199.229 0.134965 199.222 0.271915 199.222 0.410511V11.3679C199.222 13.577 197.432 15.3679 195.222 15.3679H188.996C186.787 15.3679 184.996 17.1588 184.996 19.3679V34.3878C184.996 36.5969 183.206 38.3878 180.996 38.3878H174.204C172.307 38.3878 170.77 36.8505 170.77 34.9542C170.77 33.0579 169.233 31.5207 167.337 31.5207H160.544C158.335 31.5207 156.544 33.3115 156.544 35.5207V72.7772C156.544 74.9864 154.753 76.7772 152.544 76.7772H146.318C144.109 76.7772 142.318 74.9864 142.318 72.7772V52.9452C142.318 50.7361 140.527 48.9452 138.318 48.9452H132.092C129.883 48.9452 128.092 50.7361 128.092 52.9452V60.8028C128.092 63.0119 126.301 64.8028 124.092 64.8028H117.849C115.64 64.8028 113.849 66.5936 113.849 68.8028V88.9355C113.849 91.1447 112.059 92.9355 109.849 92.9355H103.623C101.414 92.9355 99.6232 94.7264 99.6232 96.9355V103.998C99.6232 106.207 97.8324 107.998 95.6232 107.998H65.7722C63.563 107.998 61.7722 106.207 61.7722 103.998V88.9355C61.7722 86.7264 59.9813 84.9355 57.7722 84.9355H51.546C49.3369 84.9355 47.546 83.1447 47.546 80.9355V76.5953C47.546 74.3861 45.7552 72.5953 43.546 72.5953H37.32C35.1109 72.5953 33.32 74.3861 33.32 76.5953V88.9355C33.32 91.1447 31.5291 92.9355 29.32 92.9355H23.0938C20.8846 92.9355 19.0938 94.7264 19.0938 96.9355V103.998C19.0938 106.207 17.3029 107.998 15.0938 107.998H1.56299C-0.646149 107.998 -2.43701 106.207 -2.43701 103.998V88.9355C-2.43701 86.7264 -4.22787 84.9355 -6.43701 84.9355H-12.6631C-14.8722 84.9355 -16.6631 86.7264 -16.6631 88.9355V103.998C-16.6631 106.207 -18.4539 107.998 -20.6631 107.998H-33C-35.2091 107.998 -37 109.788 -37 111.998V124H-35Z" fill="url(#paint1_linear_2998_22018)"/>
<path d="M327.377 0H325.377V1.79091C325.377 4.00005 323.586 5.79091 321.377 5.79091H315.151C312.941 5.79091 311.151 7.58177 311.151 9.79091V17.8665C311.151 20.0756 309.36 21.8665 307.151 21.8665H300.924C298.715 21.8665 296.924 23.6574 296.924 25.8665V46.0799C296.924 48.2891 295.133 50.0799 292.924 50.0799H274.361C272.152 50.0799 270.361 48.2891 270.361 46.0799V33.9519C270.361 31.7428 268.57 29.9519 266.361 29.9519H260.135C257.926 29.9519 256.135 28.1611 256.135 25.9519V15.8616C256.135 13.6525 254.344 11.8616 252.135 11.8616H245.909C243.7 11.8616 241.909 13.6525 241.909 15.8616V20.2067C241.909 22.4159 240.118 24.2067 237.909 24.2067H231.683C229.474 24.2067 227.683 25.9976 227.683 28.2067V34.3878C227.683 36.5969 225.892 38.3878 223.683 38.3878H217.449C215.239 38.3878 213.449 36.5969 213.449 34.3878V0.410507C213.449 0.271912 213.442 0.134963 213.428 0H211.406C211.434 0.132497 211.449 0.269805 211.449 0.410507V34.3878C211.449 37.7015 214.135 40.3878 217.449 40.3878H223.683C226.997 40.3878 229.683 37.7015 229.683 34.3878V28.2067C229.683 27.1022 230.578 26.2067 231.683 26.2067H237.909C241.223 26.2067 243.909 23.5204 243.909 20.2067V15.8616C243.909 14.757 244.804 13.8616 245.909 13.8616H252.135C253.24 13.8616 254.135 14.757 254.135 15.8616V25.9519C254.135 29.2656 256.821 31.9519 260.135 31.9519H266.361C267.466 31.9519 268.361 32.8473 268.361 33.9519V46.0799C268.361 49.3936 271.047 52.0799 274.361 52.0799H292.924C296.238 52.0799 298.924 49.3936 298.924 46.0799V25.8665C298.924 24.7619 299.82 23.8665 300.924 23.8665H307.151C310.464 23.8665 313.151 21.1802 313.151 17.8665V9.79091C313.151 8.68634 314.046 7.79091 315.151 7.79091H321.377C324.69 7.79091 327.377 5.10461 327.377 1.79091V0Z" fill="url(#paint2_linear_2998_22018)"/>
<path d="M67.3441 44.2545L62.2696 49.0202C61.6915 49.5631 62.1045 50.4859 62.9255 50.4859H64.3544L64.3544 50.4901V63.1399C64.3544 63.6149 64.768 64 65.2781 64H70.7218C71.232 64 71.6455 63.6149 71.6455 63.1399V50.4901L71.6455 50.4859H73.0745C73.8955 50.4859 74.3085 49.5631 73.7304 49.0202L68.6559 44.2545C68.2946 43.9152 67.7054 43.9152 67.3441 44.2545Z" fill="url(#paint3_linear_2998_22018)"/>
<path d="M277.344 8.25452L272.27 13.0202C271.692 13.5631 272.105 14.4859 272.926 14.4859H274.354L274.354 14.4901V25.1399C274.354 25.6149 274.768 26 275.278 26H280.722C281.232 26 281.646 25.6149 281.646 25.1399V14.4901L281.646 14.4859H283.074C283.895 14.4859 284.308 13.5631 283.73 13.0202L278.656 8.25452C278.295 7.91516 277.705 7.91516 277.344 8.25452Z" fill="url(#paint4_linear_2998_22018)"/>
<defs>
<linearGradient id="paint0_linear_2998_22018" x1="280" y1="-10.5" x2="280" y2="124" gradientUnits="userSpaceOnUse">
<stop stop-color="#284389"/>
<stop offset="0.250563" stop-color="#1F2D66"/>
<stop offset="1" stop-color="#131833"/>
</linearGradient>
<linearGradient id="paint1_linear_2998_22018" x1="326.5" y1="-21" x2="286.5" y2="59" gradientUnits="userSpaceOnUse">
<stop stop-color="#435FA8"/>
<stop offset="1" stop-color="#435FA8" stop-opacity="0"/>
</linearGradient>
<linearGradient id="paint2_linear_2998_22018" x1="326.5" y1="-21" x2="286.5" y2="59" gradientUnits="userSpaceOnUse">
<stop stop-color="#435FA8"/>
<stop offset="1" stop-color="#435FA8" stop-opacity="0"/>
</linearGradient>
<linearGradient id="paint3_linear_2998_22018" x1="68" y1="44" x2="68" y2="64" gradientUnits="userSpaceOnUse">
<stop stop-color="#1F2D66"/>
<stop offset="1" stop-color="#1F2D66" stop-opacity="0"/>
</linearGradient>
<linearGradient id="paint4_linear_2998_22018" x1="278" y1="8" x2="278" y2="24" gradientUnits="userSpaceOnUse">
<stop stop-color="#344C91"/>
<stop offset="1" stop-color="#233878" stop-opacity="0"/>
</linearGradient>
</defs>
</svg>
