<svg width="200" height="144" viewBox="0 0 200 144" fill="none" xmlns="http://www.w3.org/2000/svg">
<path d="M200 7.89616V144H0V68.8239C0 67.6807 0.923126 66.754 2.06186 66.754H8.42111C9.55984 66.754 10.483 65.8272 10.483 64.6841V53.7848C10.483 52.6416 11.4061 51.7149 12.5448 51.7149H15.7541C16.8928 51.7149 17.816 52.6416 17.816 53.7848V64.6841C17.816 65.8272 18.7391 66.754 19.8778 66.754H26.8525C27.9912 66.754 28.9143 65.8272 28.9143 64.6841V57.9247C28.9143 56.7815 29.8374 55.8547 30.9762 55.8547H34.1856C35.3243 55.8547 36.2474 54.928 36.2474 53.7848V47.3989C36.2474 46.2558 37.1706 45.329 38.3093 45.329H41.5186C42.6573 45.329 43.5804 46.2558 43.5804 47.3989V49.645C43.5804 50.7881 44.5035 51.7149 45.6423 51.7149H48.8516C49.9904 51.7149 50.9135 52.6416 50.9135 53.7848V64.6841C50.9135 65.8272 51.8366 66.754 52.9753 66.754H68.3625C69.5012 66.754 70.4243 65.8272 70.4243 64.6841V61.0296C70.4243 59.8864 71.3475 58.9596 72.4862 58.9596H75.6956C76.8343 58.9596 77.7574 58.0329 77.7574 56.8897V43.3665C77.7574 42.2233 78.6806 41.2965 79.8193 41.2965H83.0371C84.1758 41.2965 85.0989 40.3698 85.0989 39.2266V35.1605C85.0989 34.0173 86.022 33.0905 87.1608 33.0905H90.3701C91.5088 33.0905 92.4319 34.0173 92.4319 35.1605V41.2833C92.4319 42.4265 93.355 43.3533 94.4938 43.3533H97.7032C98.8419 43.3533 99.765 42.4265 99.765 41.2833V29.2485C99.765 28.1053 100.688 27.1785 101.827 27.1785H105.328C106.306 27.1785 107.098 27.974 107.098 28.9553C107.098 29.9366 107.89 30.7321 108.868 30.7321H112.369C113.508 30.7321 114.431 29.8054 114.431 28.6622V20.8897C114.431 19.7465 115.354 18.8198 116.493 18.8198H119.702C120.841 18.8198 121.764 17.893 121.764 16.7498V11.0796C121.764 9.93637 122.687 9.00963 123.826 9.00963H127.035C128.174 9.00963 129.097 9.93637 129.097 11.0796V28.6622C129.097 29.8054 130.02 30.7321 131.159 30.7321H134.373C135.511 30.7321 136.434 29.8054 136.434 28.6622V25.4636C136.434 24.3204 137.358 23.3937 138.496 23.3937H141.706C142.844 23.3937 143.768 22.467 143.768 21.3238V19.0752C143.768 17.932 144.691 17.0053 145.829 17.0053H149.039C150.177 17.0053 151.101 17.932 151.101 19.0752V24.2968C151.101 25.44 152.024 26.3667 153.162 26.3667H156.372C157.51 26.3667 158.434 27.2935 158.434 28.4367V34.7127C158.434 35.8559 159.357 36.7826 160.495 36.7826H170.064C171.203 36.7826 172.126 35.8559 172.126 34.7127V24.2526C172.126 23.1094 173.049 22.1827 174.188 22.1827H177.397C178.536 22.1827 179.459 21.2559 179.459 20.1127V15.9338C179.459 14.7906 180.382 13.8638 181.521 13.8638H184.73C185.869 13.8638 186.792 12.9371 186.792 11.7939V2.06993C186.792 0.926739 187.715 0 188.854 0H192.063C193.202 0 194.125 0.926738 194.125 2.06993V5.73738C194.125 6.88057 195.048 7.80731 196.187 7.80731H199.4C199.609 7.80731 199.81 7.83838 200 7.89616Z" fill="url(#paint0_linear_2975_18355)"/>
<path d="M200 7.89616C199.81 7.83838 199.609 7.80731 199.4 7.80731H196.187C195.048 7.80731 194.125 6.88057 194.125 5.73738V2.06993C194.125 0.926738 193.202 0 192.063 0H188.854C187.715 0 186.792 0.926739 186.792 2.06993V11.7939C186.792 12.9371 185.869 13.8638 184.73 13.8638H181.521C180.382 13.8638 179.459 14.7906 179.459 15.9338V20.1127C179.459 21.2559 178.536 22.1827 177.397 22.1827H174.188C173.049 22.1827 172.126 23.1094 172.126 24.2526V34.7127C172.126 35.8559 171.203 36.7826 170.064 36.7826H160.495C159.357 36.7826 158.434 35.8559 158.434 34.7127V28.4367C158.434 27.2935 157.51 26.3667 156.372 26.3667H153.162C152.024 26.3667 151.101 25.44 151.101 24.2968V19.0752C151.101 17.932 150.177 17.0053 149.039 17.0053H145.829C144.691 17.0053 143.768 17.932 143.768 19.0752V21.3238C143.768 22.467 142.844 23.3937 141.706 23.3937H138.496C137.358 23.3937 136.434 24.3204 136.434 25.4636V28.6622C136.434 29.8054 135.511 30.7321 134.373 30.7321H131.159C130.02 30.7321 129.097 29.8054 129.097 28.6622V11.0796C129.097 9.93637 128.174 9.00963 127.035 9.00963H123.826C122.687 9.00963 121.764 9.93637 121.764 11.0796V16.7498C121.764 17.893 120.841 18.8198 119.702 18.8198H116.493C115.354 18.8198 114.431 19.7465 114.431 20.8897V28.6622C114.431 29.8054 113.508 30.7321 112.369 30.7321H108.868C107.89 30.7321 107.098 29.9366 107.098 28.9553C107.098 27.974 106.306 27.1785 105.328 27.1785H101.827C100.688 27.1785 99.765 28.1053 99.765 29.2485V41.2833C99.765 42.4265 98.8419 43.3533 97.7032 43.3533H94.4938C93.355 43.3533 92.4319 42.4265 92.4319 41.2833V35.1605C92.4319 34.0173 91.5088 33.0905 90.3701 33.0905H87.1608C86.022 33.0905 85.0989 34.0173 85.0989 35.1605V39.2266C85.0989 40.3698 84.1758 41.2965 83.0371 41.2965H79.8193C78.6806 41.2965 77.7574 42.2233 77.7574 43.3665V56.8897C77.7574 58.0329 76.8343 58.9596 75.6956 58.9596H72.4862C71.3475 58.9596 70.4243 59.8864 70.4243 61.0296V64.6841C70.4243 65.8272 69.5012 66.754 68.3625 66.754H52.9753C51.8366 66.754 50.9135 65.8272 50.9135 64.6841V53.7848C50.9135 52.6416 49.9904 51.7149 48.8516 51.7149H45.6423C44.5035 51.7149 43.5804 50.7881 43.5804 49.645V47.3989C43.5804 46.2558 42.6573 45.329 41.5186 45.329H38.3093C37.1706 45.329 36.2474 46.2558 36.2474 47.3989V53.7848C36.2474 54.928 35.3243 55.8547 34.1856 55.8547H30.9762C29.8374 55.8547 28.9143 56.7815 28.9143 57.9247V64.6841C28.9143 65.8272 27.9912 66.754 26.8525 66.754H19.8778C18.7391 66.754 17.816 65.8272 17.816 64.6841V53.7848C17.816 52.6416 16.8928 51.7149 15.7541 51.7149H12.5448C11.4061 51.7149 10.483 52.6416 10.483 53.7848V64.6841C10.483 65.8272 9.55984 66.754 8.42111 66.754H2.06186C0.923126 66.754 0 67.6807 0 68.8239V144H1.03093V68.8239C1.03093 68.2523 1.49249 67.7889 2.06186 67.7889H8.42111C10.1292 67.7889 11.5139 66.3988 11.5139 64.6841V53.7848C11.5139 53.2132 11.9754 52.7499 12.5448 52.7499H15.7541C16.3235 52.7499 16.785 53.2132 16.785 53.7848V64.6841C16.785 66.3988 18.1697 67.7889 19.8778 67.7889H26.8525C28.5606 67.7889 29.9452 66.3988 29.9452 64.6841V57.9247C29.9452 57.3531 30.4068 56.8897 30.9762 56.8897H34.1856C35.8937 56.8897 37.2783 55.4996 37.2783 53.7848V47.3989C37.2783 46.8274 37.7399 46.364 38.3093 46.364H41.5186C42.0879 46.364 42.5495 46.8274 42.5495 47.3989V49.645C42.5495 51.3597 43.9342 52.7499 45.6423 52.7499H48.8516C49.421 52.7499 49.8826 53.2132 49.8826 53.7848V64.6841C49.8826 66.3988 51.2673 67.7889 52.9753 67.7889H68.3625C70.0706 67.7889 71.4553 66.3988 71.4553 64.6841V61.0296C71.4553 60.458 71.9168 59.9946 72.4862 59.9946H75.6956C77.4037 59.9946 78.7884 58.6045 78.7884 56.8897V43.3665C78.7884 42.7949 79.2499 42.3315 79.8193 42.3315H83.0371C84.7452 42.3315 86.1299 40.9414 86.1299 39.2266V35.1605C86.1299 34.5889 86.5914 34.1255 87.1608 34.1255H90.3701C90.9394 34.1255 91.401 34.5889 91.401 35.1605V41.2833C91.401 42.9981 92.7857 44.3882 94.4938 44.3882H97.7032C99.4113 44.3882 100.796 42.9981 100.796 41.2833V29.2485C100.796 28.6769 101.258 28.2135 101.827 28.2135H105.328C105.736 28.2135 106.067 28.5456 106.067 28.9553C106.067 30.5082 107.321 31.7671 108.868 31.7671H112.369C114.077 31.7671 115.462 30.377 115.462 28.6622V20.8897C115.462 20.3181 115.924 19.8547 116.493 19.8547H119.702C121.41 19.8547 122.795 18.4646 122.795 16.7498V11.0796C122.795 10.508 123.257 10.0446 123.826 10.0446H127.035C127.605 10.0446 128.066 10.508 128.066 11.0796V28.6622C128.066 30.377 129.451 31.7671 131.159 31.7671H134.373C136.081 31.7671 137.465 30.377 137.465 28.6622V25.4636C137.465 24.892 137.927 24.4287 138.496 24.4287H141.706C143.414 24.4287 144.798 23.0385 144.798 21.3238V19.0752C144.798 18.5036 145.26 18.0403 145.829 18.0403H149.039C149.608 18.0403 150.07 18.5036 150.07 19.0752V24.2968C150.07 26.0116 151.454 27.4017 153.162 27.4017H156.372C156.941 27.4017 157.403 27.8651 157.403 28.4367V34.7127C157.403 36.4275 158.787 37.8176 160.495 37.8176H170.064C171.772 37.8176 173.157 36.4275 173.157 34.7127V24.2526C173.157 23.681 173.618 23.2176 174.188 23.2176H177.397C179.105 23.2176 180.49 21.8275 180.49 20.1127V15.9338C180.49 15.3622 180.952 14.8988 181.521 14.8988H184.73C186.438 14.8988 187.823 13.5087 187.823 11.7939V2.06993C187.823 1.49832 188.285 1.03497 188.854 1.03497H192.063C192.633 1.03497 193.094 1.49833 193.094 2.06993V5.73738C193.094 7.45217 194.479 8.84227 196.187 8.84227H199.4C199.624 8.84227 199.831 8.91374 200 9.03517V7.89616Z" fill="url(#paint1_linear_2975_18355)"/>
<defs>
<linearGradient id="paint0_linear_2975_18355" x1="71.6495" y1="-84.8671" x2="42.5651" y2="66.1957" gradientUnits="userSpaceOnUse">
<stop stop-color="#284389"/>
<stop offset="1" stop-color="#284389" stop-opacity="0"/>
</linearGradient>
<linearGradient id="paint1_linear_2975_18355" x1="212.371" y1="-8.27973" x2="157.003" y2="150.638" gradientUnits="userSpaceOnUse">
<stop stop-color="#F29C24"/>
<stop offset="0.180224" stop-color="#478CFF" stop-opacity="0.5"/>
<stop offset="0.377163" stop-color="#478CFF" stop-opacity="0"/>
</linearGradient>
</defs>
</svg>
