<svg width="343" height="172" viewBox="0 0 343 172" fill="none" xmlns="http://www.w3.org/2000/svg">
<mask id="mask0_2134_15353" style="mask-type:alpha" maskUnits="userSpaceOnUse" x="0" y="0" width="540" height="172">
<rect width="540" height="172" fill="#C4C4C4"/>
</mask>
<g mask="url(#mask0_2134_15353)">
<path d="M7.23513 87.0168C-20.1862 165.055 -18.0358 278.337 -18.0358 278.337H573.891V62.5407C530.436 58.1491 461.15 50.3618 373.4 37.8924C275.076 23.92 196.608 8.979 129.289 8.979C100.792 8.979 34.6577 8.979 7.23513 87.0168Z" fill="url(#paint0_linear_2134_15353)"/>
<path fill-rule="evenodd" clip-rule="evenodd" d="M-18.0358 278.337C-18.0358 278.337 -20.1862 165.055 7.23513 87.0168C34.6577 8.97898 100.792 8.97898 129.289 8.97898C196.608 8.97898 275.076 23.92 373.4 37.8923C461.15 50.3618 530.436 58.1491 573.891 62.5407V0H-18.0753L-18.0358 278.337Z" fill="url(#paint1_radial_2134_15353)"/>
<path d="M-18.0358 278.337C-18.0358 278.337 -20.1862 165.055 7.23513 87.0168C34.6577 8.979 100.792 8.979 129.289 8.979C196.608 8.979 275.076 23.92 373.4 37.8924C461.15 50.3618 530.436 58.1491 573.891 62.5407" stroke="url(#paint2_linear_2134_15353)" stroke-width="2" stroke-linecap="round"/>
</g>
<defs>
<linearGradient id="paint0_linear_2134_15353" x1="162.521" y1="-19.7801" x2="162.521" y2="104.2" gradientUnits="userSpaceOnUse">
<stop stop-color="#0F1C4D"/>
<stop offset="1" stop-color="#131833"/>
</linearGradient>
<radialGradient id="paint1_radial_2134_15353" cx="0" cy="0" r="1" gradientUnits="userSpaceOnUse" gradientTransform="translate(137.824 -9.53694) rotate(90) scale(213.698 1099.87)">
<stop stop-color="#F29C24"/>
<stop offset="0.0372566" stop-color="#EF6E00"/>
<stop offset="0.180207" stop-color="#0F1B4C"/>
<stop offset="1" stop-color="#131833"/>
</radialGradient>
<linearGradient id="paint2_linear_2134_15353" x1="277.908" y1="65.3458" x2="277.908" y2="9.18391" gradientUnits="userSpaceOnUse">
<stop offset="0.129894" stop-color="#0F1C4D"/>
<stop offset="0.881088" stop-color="#EF7000"/>
<stop offset="1" stop-color="#F29C24"/>
</linearGradient>
</defs>
</svg>
