<svg width="1280" height="248" viewBox="0 0 1280 248" fill="none" xmlns="http://www.w3.org/2000/svg">
<path d="M677.647 84C675.475 83.3228 673.187 82.6351 670.719 82.154C662.671 80.6275 654.623 79.1026 645.226 77.7951C641.018 77.1114 636.442 76.5465 632.075 76.0076C628.09 75.5158 624.28 75.0456 621.083 74.5262C617.729 74.0907 614.041 73.6549 610.352 73.2191L610.35 73.2188L610.349 73.2187C606.661 72.7829 602.969 72.3465 599.616 71.9111L579.496 68.6422C572.786 67.3347 566.076 65.8082 559.376 64.0642C552.666 62.3203 544.618 60.1416 537.909 57.7439C534.024 56.4817 530.14 55.0739 525.736 53.4777L525.734 53.4768L525.731 53.4758C522.529 52.3154 519.053 51.0554 515.103 49.6796C511.749 48.481 508.732 47.228 505.714 45.975L505.713 45.9746L505.711 45.9736C502.693 44.7207 499.676 43.4677 496.322 42.2692L492.298 40.7427C485.588 37.9086 477.54 34.6396 469.492 31.8057C463.08 29.5749 457.296 35.7497 452.139 34.1225L452.136 34.1214C449.738 33.3647 447.475 32.6508 445.349 31.9589C435.953 29.3438 426.567 27.3809 415.834 26.0735C395.714 23.4583 376.933 23.8932 367.537 24.3295C354.118 24.9833 342.045 26.7272 329.973 29.5611C321.925 31.7414 312.53 26.7927 304.481 30.4981C298.886 32.923 293.937 35.664 288.287 38.7939C285.81 40.1658 283.198 41.6126 280.338 43.1401C273.628 47.499 265.58 52.731 257.532 58.8336C253.132 61.9315 249.133 65.0947 245.096 68.2876L245.095 68.2883L245.093 68.2895L245.091 68.2911C241.745 70.9376 238.373 73.6044 234.727 76.2713L232.773 77.9286C230.22 80.0085 227.667 82.0884 225.882 84C225.843 84.0622 225.82 84.1226 225.82 84.1793C218.857 89.8746 211.893 94.4014 205.824 98.3468L205.821 98.3492C204.986 98.8921 204.167 99.4239 203.369 99.9463C200.917 101.321 198.651 102.636 196.497 103.885L196.496 103.885C190.53 107.346 185.421 110.31 179.6 112.689C170.359 116.577 162.437 119.385 153.187 121.328C138.658 124.352 124.129 125 113.562 125C109.6 125 105.638 125 102.994 124.785C88.466 124.137 76.5818 122.192 64.6971 118.952C55.4466 116.576 47.5234 113.335 39.6003 109.016C33.004 105.343 25.0719 100.808 15.8313 95.4081C11.634 92.6617 7.80627 89.7942 4.5456 87.3515L4.54404 87.3503L4.54362 87.35C2.87097 86.097 1.34755 84.9557 0 84V0H1280V84C1275.94 81.1191 1270.77 77.3511 1266.24 73.7953C1258.33 67.9612 1250.43 63.2482 1243.84 59.4333C1235.94 54.72 1228.03 51.1307 1220.13 48.437C1209.59 44.8461 1200.37 42.6028 1188.51 41.2552C1171.38 39.2359 1150.3 39.6836 1133.17 42.3775C1122.63 44.173 1113.41 46.6417 1104.19 50.6802C1096.28 54.0456 1088.38 58.3096 1080.48 63.6958L1079.74 64.2204C1073.3 68.8241 1065.69 74.2673 1058.08 80.7503C1056.47 81.8492 1055.35 82.8636 1054.12 84L1051.21 86.2985C1049.82 87.3953 1048.43 88.492 1047.04 89.5892L1037.43 97.815C1035.37 99.7627 1032.97 101.711 1030.57 103.659L1030.56 103.661C1028.16 105.608 1025.76 107.556 1023.71 109.503C1020.55 112.062 1017.7 114.435 1015.04 116.644L1015.03 116.652L1014.95 116.714L1014.92 116.744L1014.92 116.745L1014.91 116.747C1009.53 121.218 1004.96 125.017 1000.39 128.334C992.156 134.828 983.927 140.024 977.066 144.352C968.837 149.331 960.607 153.228 952.377 156.258C942.771 159.939 933.172 162.319 922.197 163.835C911.222 165.351 900.246 166 889.27 166C881.041 166 872.812 165.567 865.95 164.917C853.606 163.836 842.63 161.887 831.654 158.641C823.425 156.259 815.196 153.012 806.966 149.116C802.657 147.077 798.351 144.782 793.363 142.122L793.358 142.12C790.407 140.546 787.217 138.845 783.646 136.995C779.532 134.831 775.758 132.558 771.986 130.285C768.214 128.012 764.441 125.74 760.326 123.575L758.958 122.926C755.528 120.87 751.756 118.76 747.985 116.65L747.982 116.649C744.209 114.538 740.437 112.428 737.006 110.371C730.608 106.669 724.209 103.49 718.453 100.631L718.447 100.628C716.803 99.8108 715.211 99.0199 713.686 98.2503C706.785 94.9824 699.885 92.1721 693.791 89.6904C692.617 89.2125 691.474 88.7468 690.366 88.2924C688.178 87.5146 686.205 86.8747 684.277 86.2493C682.095 85.5414 679.968 84.8516 677.647 84Z" fill="url(#paint0_radial_1740_16794)"/>
<path d="M677.647 83.8556C675.475 83.1799 673.187 82.4936 670.719 82.0135C662.671 80.4903 654.623 78.9686 645.226 77.6639C641.018 76.9816 636.442 76.418 632.075 75.8802C628.09 75.3895 624.28 74.9202 621.083 74.402C617.728 73.9673 614.039 73.5323 610.35 73.0973C606.662 72.6624 602.969 72.2269 599.616 71.7924L579.496 68.5305C572.786 67.2257 566.076 65.7025 559.376 63.9621C552.666 62.2219 544.618 60.0479 537.909 57.6553C534.024 56.3958 530.14 54.991 525.737 53.3983L525.734 53.3972L525.731 53.3963C522.529 52.2383 519.053 50.981 515.103 49.6081C511.749 48.412 508.731 47.1616 505.714 45.9113L505.713 45.911L505.711 45.91C502.693 44.6597 499.676 43.4094 496.322 42.2134L492.298 40.6901C485.588 37.8621 477.54 34.6001 469.492 31.7721C463.08 29.546 457.296 27.7247 452.139 26.1011L452.136 26.0999C449.738 25.3448 447.475 24.6325 445.349 23.942C435.953 21.3324 426.567 19.3737 415.834 18.0691C395.714 15.4595 376.933 15.8934 367.537 16.3288C354.118 16.9812 342.045 18.7214 329.973 21.5493C321.925 23.7249 312.53 26.7697 304.481 30.4673C298.886 32.887 293.937 35.6222 288.287 38.7455C285.81 40.1145 283.198 41.5582 280.338 43.0825C273.628 47.4321 265.58 52.653 257.532 58.7427C253.132 61.834 249.133 64.9905 245.096 68.1766L245.095 68.1773L245.093 68.1785L245.091 68.1801L245.091 68.1802C241.745 70.821 238.373 73.4821 234.727 76.1433L232.773 77.7971C230.22 79.8726 227.667 81.9481 225.882 83.8556C225.843 83.9177 225.82 83.9779 225.82 84.0345C218.857 89.7177 211.893 94.235 205.824 98.172L205.821 98.1744C204.986 98.7161 204.167 99.2468 203.369 99.7681C200.918 101.14 198.652 102.451 196.498 103.698L196.496 103.699C190.53 107.152 185.421 110.109 179.6 112.484C170.359 116.363 162.437 119.165 153.187 121.105C138.658 124.122 124.129 124.769 113.562 124.769C109.6 124.769 105.638 124.769 102.994 124.554C88.466 123.907 76.5818 121.966 64.6971 118.734C55.4466 116.363 47.5234 113.129 39.6003 108.819C33.004 105.153 25.0719 100.628 15.8313 95.2395C11.634 92.4989 7.80627 89.6375 4.5456 87.2L4.54404 87.1988L4.543 87.1981C2.87059 85.9479 1.34738 84.8092 0 83.8556V248H1280V83.8556C1275.94 80.9809 1270.77 77.2208 1266.24 73.6726C1258.33 67.8508 1250.43 63.1479 1243.84 59.3411C1235.94 54.6378 1228.03 51.0561 1220.13 48.3681C1209.59 44.7849 1200.37 42.5464 1188.51 41.2016C1171.38 39.1866 1150.3 39.6333 1133.17 42.3215C1122.63 44.1132 1113.41 46.5766 1104.19 50.6066C1096.28 53.9649 1088.38 58.2198 1080.48 63.5945L1079.74 64.1181C1073.3 68.7119 1065.69 74.1436 1058.08 80.6128C1056.47 81.7094 1055.35 82.7217 1054.12 83.8556L1051.21 86.1493C1049.82 87.2437 1048.43 88.3381 1047.04 89.433L1037.43 97.6413C1035.37 99.5849 1032.97 101.529 1030.57 103.473L1030.56 103.475C1028.16 105.418 1025.76 107.361 1023.71 109.304C1020.55 111.859 1017.7 114.227 1015.03 116.431L1015.03 116.439L1014.95 116.5L1014.92 116.53L1014.92 116.531L1014.91 116.533C1009.53 120.995 1004.96 124.785 1000.39 128.096C992.156 134.576 983.927 139.76 977.066 144.08C968.837 149.048 960.607 152.936 952.377 155.96C942.771 159.634 933.172 162.008 922.197 163.521C911.222 165.034 900.246 165.682 889.27 165.682C881.041 165.682 872.812 165.249 865.95 164.601C853.606 163.522 842.63 161.577 831.654 158.338C823.425 155.962 815.196 152.721 806.966 148.834C802.657 146.799 798.351 144.508 793.363 141.854L793.358 141.852C790.407 140.282 787.217 138.584 783.646 136.738C779.532 134.579 775.758 132.31 771.986 130.043L771.986 130.042C768.213 127.774 764.441 125.507 760.326 123.347L758.958 122.699C755.528 120.647 751.756 118.542 747.985 116.437L747.982 116.435C744.209 114.329 740.437 112.223 737.006 110.171C730.608 106.476 724.209 103.304 718.453 100.451L718.447 100.448C716.803 99.6329 715.211 98.8436 713.686 98.0756C706.785 94.8148 699.885 92.0104 693.791 89.5339C692.617 89.0571 691.474 88.5924 690.366 88.139C688.178 87.3627 686.205 86.7243 684.277 86.1002C682.095 85.3937 679.968 84.7054 677.647 83.8556Z" fill="url(#paint1_linear_1740_16794)"/>
<g style="mix-blend-mode:lighten">
<path d="M669.719 82.154C672.187 82.6351 674.475 83.3228 676.647 84C678.968 84.8516 681.095 85.5414 683.277 86.2493C685.205 86.8747 687.178 87.5146 689.366 88.2924C690.474 88.7468 691.617 89.2125 692.791 89.6904C698.885 92.1721 705.785 94.9824 712.686 98.2503C714.201 99.0152 715.784 99.8013 717.417 100.613L717.447 100.628L717.453 100.631C723.209 103.49 729.607 106.669 736.006 110.371C739.437 112.428 743.209 114.538 746.982 116.649L746.985 116.65C750.756 118.76 754.528 120.87 757.958 122.926L759.326 123.575C763.441 125.74 767.214 128.012 770.986 130.285C774.758 132.558 778.532 134.831 782.646 136.995C786.217 138.845 789.407 140.546 792.358 142.12L792.363 142.122C797.35 144.782 801.656 147.077 805.966 149.116C814.196 153.012 822.425 156.259 830.654 158.641C841.63 161.887 852.606 163.836 864.95 164.917C871.811 165.567 880.041 166 888.27 166C899.246 166 910.222 165.351 921.197 163.835C932.172 162.319 941.771 159.939 951.377 156.258C959.607 153.228 967.836 149.331 976.066 144.352C982.927 140.024 991.156 134.828 999.386 128.334C1003.96 125.017 1008.53 121.218 1013.91 116.747L1013.92 116.745L1013.92 116.744L1013.95 116.714L1014.03 116.652L1014.03 116.647C1016.69 114.437 1019.55 112.063 1022.71 109.503C1024.76 107.556 1027.16 105.608 1029.56 103.661L1029.57 103.659C1031.97 101.711 1034.37 99.7627 1036.43 97.815L1046.04 89.5892C1047.43 88.492 1048.82 87.3953 1050.21 86.2985L1053.12 84C1054.35 82.8636 1055.47 81.8492 1057.08 80.7503C1064.69 74.2673 1072.3 68.8241 1078.74 64.2204L1079.48 63.6958C1079.82 63.4617 1080.16 63.2298 1080.51 63H554.333C555.718 63.3701 557.072 63.7253 558.376 64.0642C565.076 65.8082 571.786 67.3347 578.496 68.6422L598.616 71.9111C601.969 72.3465 605.661 72.7829 609.349 73.2187L609.35 73.2188L609.352 73.2191C613.041 73.6549 616.729 74.0908 620.083 74.5262C623.28 75.0456 627.09 75.5158 631.074 76.0076C635.442 76.5465 640.018 77.1114 644.226 77.7951C653.623 79.1026 661.671 80.6275 669.719 82.154Z" fill="url(#paint2_radial_1740_16794)" fill-opacity="0.3"/>
</g>
<path d="M0 63H251.864C249.57 64.7493 247.338 66.5139 245.096 68.2876L245.095 68.2883L245.091 68.2911C241.745 70.9376 238.373 73.6044 234.727 76.2713L232.773 77.9286C230.22 80.0085 227.667 82.0884 225.882 84C225.843 84.0622 225.82 84.1226 225.82 84.1793C218.857 89.8746 211.893 94.4014 205.824 98.3468L205.821 98.3492L205.814 98.3537C204.981 98.895 204.165 99.4254 203.369 99.9463C200.919 101.32 198.654 102.634 196.501 103.883L196.496 103.885C190.53 107.346 185.421 110.31 179.6 112.689C170.359 116.577 162.437 119.385 153.187 121.328C138.658 124.352 124.129 125 113.562 125C109.6 125 105.638 125 102.994 124.785C88.466 124.137 76.5818 122.192 64.6971 118.952C55.4466 116.576 47.5234 113.335 39.6003 109.016C33.004 105.343 25.0719 100.808 15.8313 95.4081C11.634 92.6617 7.80627 89.7942 4.5456 87.3515L4.54362 87.35C2.87097 86.097 1.34755 84.9557 0 84V63Z" fill="url(#paint3_radial_1740_16794)"/>
<path d="M1278 63H1248.53C1249.09 63.3273 1249.65 63.6606 1250.22 64H1278V63Z" fill="url(#paint4_linear_1740_16794)"/>
<path d="M1080.02 64H1249.22C1248.65 63.6606 1248.09 63.3273 1247.53 63H1081.58C1081.06 63.3286 1080.54 63.662 1080.02 64Z" fill="url(#paint5_linear_1740_16794)"/>
<path d="M1079.58 63H557.126C558.305 63.3418 559.485 63.6755 560.655 64H1078.02C1078.54 63.662 1079.06 63.3286 1079.58 63Z" fill="url(#paint6_linear_1740_16794)"/>
<path d="M252 64H555.656C554.485 63.6755 553.305 63.3418 552.126 63H253.343C252.892 63.3327 252.445 63.666 252 64Z" fill="url(#paint7_linear_1740_16794)"/>
<path d="M249.186 64C249.63 63.666 250.078 63.3327 250.529 63H0V64H249.186Z" fill="url(#paint8_linear_1740_16794)"/>
<path d="M0 84C1.34766 84.9558 2.87122 86.0972 4.54404 87.3503L4.5456 87.3515C7.80627 89.7942 11.634 92.6617 15.8313 95.4081C25.0719 100.808 33.004 105.343 39.6003 109.016C47.5234 113.335 55.4466 116.576 64.6971 118.952C76.5818 122.192 88.466 124.137 102.994 124.785C105.638 125 109.6 125 113.562 125C124.129 125 138.658 124.352 153.187 121.328C162.437 119.385 170.36 116.577 179.6 112.689C185.421 110.31 190.53 107.346 196.496 103.885C198.651 102.636 200.917 101.321 203.369 99.9463C204.167 99.4239 204.986 98.8921 205.821 98.3492L205.824 98.3468C215.5 92.0568 223.972 85.0986 232.773 77.9286L234.727 76.2713C238.373 73.6044 241.745 70.9376 245.091 68.2911L245.093 68.2895L245.095 68.2883C249.132 65.0952 253.132 61.9317 257.532 58.8336C265.58 52.731 273.628 47.499 280.338 43.1401C283.198 41.6126 285.81 40.1658 288.287 38.7939C293.937 35.664 298.886 32.923 304.481 30.4981C312.53 26.7927 321.925 23.7414 329.973 21.5611C342.045 18.7272 354.118 16.9833 367.537 16.3295C376.933 15.8932 395.714 15.4583 415.834 18.0735C426.567 19.3809 435.953 21.3438 445.349 23.9589C447.475 24.6509 449.738 25.3647 452.136 26.1214L452.139 26.1225C457.296 27.7497 463.08 29.5749 469.492 31.8057C477.54 34.6396 485.588 37.9086 492.298 40.7427L496.322 42.2692C499.676 43.4677 502.693 44.7207 505.711 45.9736L505.713 45.9746C508.731 47.2277 511.749 48.4808 515.103 49.6796C519.053 51.0554 522.53 52.3154 525.731 53.4758L525.734 53.4768C530.138 55.0733 534.024 56.4815 537.909 57.7439C544.618 60.1416 552.666 62.3203 559.376 64.0642C566.076 65.8082 572.786 67.3347 579.496 68.6422L599.616 71.9111C602.969 72.3465 606.662 72.783 610.35 73.2188C614.039 73.6547 617.728 74.0907 621.083 74.5262C624.28 75.0456 628.09 75.5158 632.075 76.0076C636.442 76.5465 641.018 77.1114 645.226 77.7951C654.623 79.1026 662.671 80.6275 670.719 82.154C673.187 82.6351 675.475 83.3228 677.647 84C679.968 84.8516 682.095 85.5414 684.277 86.2493C686.205 86.8747 688.178 87.5146 690.366 88.2924C691.474 88.7468 692.617 89.2125 693.791 89.6904C699.885 92.1721 706.785 94.9824 713.686 98.2503C715.211 99.0199 716.803 99.8108 718.447 100.628L718.453 100.631C724.209 103.49 730.608 106.669 737.006 110.371C740.437 112.428 744.209 114.538 747.982 116.649L747.985 116.65C751.756 118.76 755.528 120.87 758.958 122.926L760.326 123.575C764.441 125.74 768.214 128.012 771.986 130.285C775.758 132.558 779.532 134.831 783.646 136.995C787.219 138.846 790.41 140.548 793.363 142.122C798.351 144.782 802.657 147.077 806.966 149.116C815.196 153.012 823.425 156.259 831.654 158.641C842.63 161.887 853.606 163.836 865.95 164.917C872.812 165.567 881.041 166 889.27 166C900.246 166 911.222 165.351 922.197 163.835C933.172 162.319 942.771 159.939 952.377 156.258C960.607 153.228 968.837 149.331 977.066 144.352C983.927 140.024 992.156 134.828 1000.39 128.334C1004.96 125.017 1009.53 121.218 1014.91 116.747L1014.92 116.745L1014.92 116.744L1014.95 116.714L1015.03 116.652C1017.69 114.441 1020.55 112.066 1023.71 109.503C1025.76 107.555 1028.17 105.607 1030.57 103.659C1032.97 101.711 1035.37 99.7627 1037.43 97.815L1047.04 89.5892C1048.43 88.492 1049.82 87.3953 1051.21 86.2985L1054.12 84C1055.35 82.8636 1056.47 81.8492 1058.08 80.7503C1065.69 74.2673 1073.3 68.8241 1079.74 64.2204L1080.48 63.6958C1088.38 58.3096 1096.28 54.0456 1104.19 50.6802C1113.41 46.6417 1122.63 44.173 1133.17 42.3775C1150.3 39.6836 1171.38 39.2359 1188.51 41.2552C1200.37 42.6028 1209.59 44.8461 1220.13 48.437C1228.03 51.1307 1235.94 54.72 1243.84 59.4333C1250.43 63.2482 1258.33 67.9612 1266.24 73.7953C1270.77 77.3511 1275.94 81.1191 1280 84" stroke="url(#paint9_linear_1740_16794)" stroke-width="2" stroke-linecap="round"/>
<path d="M0 84C1.34766 84.9558 2.87122 86.0972 4.54404 87.3503L4.5456 87.3515C7.80627 89.7942 11.634 92.6617 15.8313 95.4081C25.0719 100.808 33.004 105.343 39.6003 109.016C47.5234 113.335 55.4466 116.576 64.6971 118.952C76.5818 122.192 88.466 124.137 102.994 124.785C105.638 125 109.6 125 113.562 125C124.129 125 138.658 124.352 153.187 121.328C162.437 119.385 170.36 116.577 179.6 112.689C185.421 110.31 190.53 107.346 196.496 103.885C198.651 102.636 200.917 101.321 203.369 99.9463C204.167 99.4239 204.986 98.8921 205.821 98.3492L205.824 98.3468C215.5 92.0568 223.972 85.0986 232.773 77.9286L234.727 76.2713C238.373 73.6044 241.745 70.9376 245.091 68.2911L245.093 68.2895L245.095 68.2883C249.132 65.0952 253.132 61.9317 257.532 58.8336C265.58 52.731 273.628 47.499 280.338 43.1401C283.198 41.6126 285.81 40.1658 288.287 38.7939C293.937 35.664 298.886 32.923 304.481 30.4981C312.53 26.7927 321.925 23.7414 329.973 21.5611C342.045 18.7272 354.118 16.9833 367.537 16.3295C376.933 15.8932 395.714 15.4583 415.834 18.0735C426.567 19.3809 435.953 21.3438 445.349 23.9589C447.475 24.6509 449.738 25.3647 452.136 26.1214L452.139 26.1225C457.296 27.7497 463.08 29.5749 469.492 31.8057C477.54 34.6396 485.588 37.9086 492.298 40.7427L496.322 42.2692C499.676 43.4677 502.693 44.7207 505.711 45.9736L505.713 45.9746C508.731 47.2277 511.749 48.4808 515.103 49.6796C519.053 51.0554 522.53 52.3154 525.731 53.4758L525.734 53.4768C530.138 55.0733 534.024 56.4815 537.909 57.7439C544.618 60.1416 552.666 62.3203 559.376 64.0642C566.076 65.8082 572.786 67.3347 579.496 68.6422L599.616 71.9111C602.969 72.3465 606.662 72.783 610.35 73.2188C614.039 73.6547 617.728 74.0907 621.083 74.5262C624.28 75.0456 628.09 75.5158 632.075 76.0076C636.442 76.5465 641.018 77.1114 645.226 77.7951C654.623 79.1026 662.671 80.6275 670.719 82.154C673.187 82.6351 675.475 83.3228 677.647 84C679.968 84.8516 682.095 85.5414 684.277 86.2493C686.205 86.8747 688.178 87.5146 690.366 88.2924C691.474 88.7468 692.617 89.2125 693.791 89.6904C699.885 92.1721 706.785 94.9824 713.686 98.2503C715.211 99.0199 716.803 99.8108 718.447 100.628L718.453 100.631C724.209 103.49 730.608 106.669 737.006 110.371C740.437 112.428 744.209 114.538 747.982 116.649L747.985 116.65C751.756 118.76 755.528 120.87 758.958 122.926L760.326 123.575C764.441 125.74 768.214 128.012 771.986 130.285C775.758 132.558 779.532 134.831 783.646 136.995C787.219 138.846 790.41 140.548 793.363 142.122C798.351 144.782 802.657 147.077 806.966 149.116C815.196 153.012 823.425 156.259 831.654 158.641C842.63 161.887 853.606 163.836 865.95 164.917C872.812 165.567 881.041 166 889.27 166C900.246 166 911.222 165.351 922.197 163.835C933.172 162.319 942.771 159.939 952.377 156.258C960.607 153.228 968.837 149.331 977.066 144.352C983.927 140.024 992.156 134.828 1000.39 128.334C1004.96 125.017 1009.53 121.218 1014.91 116.747L1014.92 116.745L1014.92 116.744L1014.95 116.714L1015.03 116.652C1017.69 114.441 1020.55 112.066 1023.71 109.503C1025.76 107.555 1028.17 105.607 1030.57 103.659C1032.97 101.711 1035.37 99.7627 1037.43 97.815L1047.04 89.5892C1048.43 88.492 1049.82 87.3953 1051.21 86.2985L1054.12 84C1055.35 82.8636 1056.47 81.8492 1058.08 80.7503C1065.69 74.2673 1073.3 68.8241 1079.74 64.2204L1080.48 63.6958C1088.38 58.3096 1096.28 54.0456 1104.19 50.6802C1113.41 46.6417 1122.63 44.173 1133.17 42.3775C1150.3 39.6836 1171.38 39.2359 1188.51 41.2552C1200.37 42.6028 1209.59 44.8461 1220.13 48.437C1228.03 51.1307 1235.94 54.72 1243.84 59.4333C1250.43 63.2482 1258.33 67.9612 1266.24 73.7953C1270.77 77.3511 1275.94 81.1191 1280 84" stroke="url(#paint10_linear_1740_16794)" stroke-width="2" stroke-linecap="round"/>
<path d="M1111.23 86.3054L1105.31 92.0242C1104.64 92.6757 1105.12 93.7831 1106.08 93.7831H1107.75L1107.75 93.7882V104.968C1107.75 105.538 1108.23 106 1108.82 106H1115.18C1115.77 106 1116.25 105.538 1116.25 104.968V93.7882L1116.25 93.7831H1117.92C1118.88 93.7831 1119.36 92.6757 1118.69 92.0242L1112.77 86.3054C1112.34 85.8982 1111.66 85.8982 1111.23 86.3054Z" fill="url(#paint11_linear_1740_16794)"/>
<path d="M425.235 112.305L419.315 118.024C418.64 118.676 419.122 119.783 420.08 119.783H421.747L421.747 119.788V130.968C421.747 131.538 422.229 132 422.824 132H429.175C429.771 132 430.253 131.538 430.253 130.968V119.788L430.253 119.783H431.92C432.878 119.783 433.36 118.676 432.685 118.024L426.765 112.305C426.344 111.898 425.656 111.898 425.235 112.305Z" fill="url(#paint12_linear_1740_16794)"/>
<path d="M897.235 39.6946L891.315 33.9758C890.64 33.3243 891.122 32.2169 892.08 32.2169H893.747L893.747 32.2118V21.0322C893.747 20.4621 894.229 20 894.824 20H901.175C901.771 20 902.253 20.4621 902.253 21.0322V32.2118L902.253 32.2169H903.92C904.878 32.2169 905.36 33.3243 904.685 33.9758L898.765 39.6946C898.344 40.1018 897.656 40.1018 897.235 39.6946Z" fill="url(#paint13_linear_1740_16794)"/>
<path d="M300.235 86.3054L294.315 92.0242C293.64 92.6757 294.122 93.7831 295.08 93.7831H296.747L296.747 93.7882V104.968C296.747 105.538 297.229 106 297.824 106H304.175C304.771 106 305.253 105.538 305.253 104.968V93.7882L305.253 93.7831H306.92C307.878 93.7831 308.36 92.6757 307.685 92.0242L301.765 86.3054C301.344 85.8982 300.656 85.8982 300.235 86.3054Z" fill="url(#paint14_linear_1740_16794)"/>
<defs>
<radialGradient id="paint0_radial_1740_16794" cx="0" cy="0" r="1" gradientUnits="userSpaceOnUse" gradientTransform="translate(885.5 179.5) rotate(-90) scale(207 788.799)">
<stop stop-color="#EF7000"/>
<stop offset="0.243694" stop-color="#0F1B4C"/>
<stop offset="1" stop-color="#0E101F"/>
</radialGradient>
<linearGradient id="paint1_linear_1740_16794" x1="390.5" y1="-60.3376" x2="390.5" y2="251.499" gradientUnits="userSpaceOnUse">
<stop stop-color="#0F1C4D"/>
<stop offset="1" stop-color="#0E101F"/>
</linearGradient>
<radialGradient id="paint2_radial_1740_16794" cx="0" cy="0" r="1" gradientUnits="userSpaceOnUse" gradientTransform="translate(888.5 167.5) rotate(-90) scale(93.5 334.793)">
<stop stop-color="#F29C24"/>
<stop offset="0.239732" stop-color="#EF7000"/>
<stop offset="1" stop-color="#0F1C4D"/>
</radialGradient>
<radialGradient id="paint3_radial_1740_16794" cx="0" cy="0" r="1" gradientUnits="userSpaceOnUse" gradientTransform="translate(111.5 147) rotate(-90) scale(81.5 232.062)">
<stop stop-color="#F29C24"/>
<stop offset="0.0915692" stop-color="#EF7000"/>
<stop offset="0.546226" stop-color="#0F1C4D"/>
<stop offset="1" stop-color="#0F1C4D" stop-opacity="0"/>
</radialGradient>
<linearGradient id="paint4_linear_1740_16794" x1="1244.53" y1="64.0017" x2="1277.67" y2="64.0017" gradientUnits="userSpaceOnUse">
<stop stop-color="#478CFF" stop-opacity="0"/>
<stop offset="1" stop-color="#478CFF" stop-opacity="0.7"/>
</linearGradient>
<linearGradient id="paint5_linear_1740_16794" x1="1080.02" y1="64.0017" x2="1243.58" y2="64.0017" gradientUnits="userSpaceOnUse">
<stop stop-color="#478CFF" stop-opacity="0.7"/>
<stop offset="1" stop-color="#478CFF" stop-opacity="0"/>
</linearGradient>
<linearGradient id="paint6_linear_1740_16794" x1="554.126" y1="64.0017" x2="1085.25" y2="64.0017" gradientUnits="userSpaceOnUse">
<stop stop-color="#478CFF" stop-opacity="0.3"/>
<stop offset="0.616718" stop-color="#F29C24"/>
<stop offset="1" stop-color="#478CFF" stop-opacity="0"/>
</linearGradient>
<linearGradient id="paint7_linear_1740_16794" x1="252.186" y1="64.0017" x2="547.69" y2="64.0017" gradientUnits="userSpaceOnUse">
<stop stop-color="#478CFF" stop-opacity="0.7"/>
<stop offset="1" stop-color="#478CFF" stop-opacity="0"/>
</linearGradient>
<linearGradient id="paint8_linear_1740_16794" x1="0" y1="64.0017" x2="252" y2="64.0017" gradientUnits="userSpaceOnUse">
<stop stop-color="#478CFF" stop-opacity="0.7"/>
<stop offset="1" stop-color="#478CFF" stop-opacity="0"/>
</linearGradient>
<linearGradient id="paint9_linear_1740_16794" x1="640" y1="16" x2="640" y2="166" gradientUnits="userSpaceOnUse">
<stop stop-color="#478CFF"/>
<stop offset="0.881088" stop-color="#EF7000"/>
<stop offset="1" stop-color="#F29C24"/>
</linearGradient>
<linearGradient id="paint10_linear_1740_16794" x1="1280" y1="102" x2="955.5" y2="102" gradientUnits="userSpaceOnUse">
<stop stop-color="#17203D"/>
<stop offset="1" stop-color="#17203D" stop-opacity="0"/>
</linearGradient>
<linearGradient id="paint11_linear_1740_16794" x1="1112" y1="86" x2="1112" y2="102" gradientUnits="userSpaceOnUse">
<stop stop-color="#478CFF"/>
<stop offset="1" stop-color="#478CFF" stop-opacity="0"/>
</linearGradient>
<linearGradient id="paint12_linear_1740_16794" x1="426" y1="112" x2="426" y2="128" gradientUnits="userSpaceOnUse">
<stop stop-color="#478CFF"/>
<stop offset="1" stop-color="#478CFF" stop-opacity="0"/>
</linearGradient>
<linearGradient id="paint13_linear_1740_16794" x1="898" y1="40" x2="898" y2="24" gradientUnits="userSpaceOnUse">
<stop stop-color="#F29C24"/>
<stop offset="0.177083" stop-color="#EF7000"/>
<stop offset="1" stop-color="#EF7000" stop-opacity="0"/>
</linearGradient>
<linearGradient id="paint14_linear_1740_16794" x1="301" y1="86" x2="301" y2="102" gradientUnits="userSpaceOnUse">
<stop stop-color="#478CFF"/>
<stop offset="1" stop-color="#478CFF" stop-opacity="0"/>
</linearGradient>
</defs>
</svg>
