<svg width="1280" height="240" viewBox="0 0 1280 240" fill="none" xmlns="http://www.w3.org/2000/svg">
<path d="M677.647 69.8556C675.475 69.1799 673.187 68.4936 670.719 68.0135C662.671 66.4903 654.623 64.9686 645.226 63.6639C641.018 62.9816 636.442 62.418 632.075 61.8802C628.09 61.3895 624.28 60.9202 621.083 60.402C617.728 59.9673 614.039 59.5323 610.35 59.0973C606.662 58.6624 602.969 58.2269 599.616 57.7924L579.496 54.5305C572.786 53.2257 566.076 51.7025 559.376 49.9621C552.666 48.2219 544.618 46.0479 537.909 43.6553C534.024 42.3958 530.14 40.991 525.737 39.3983L525.734 39.3972L525.731 39.3963C522.529 38.2383 519.053 36.981 515.103 35.6081C511.749 34.412 508.731 33.1616 505.714 31.9113L505.713 31.911L505.711 31.91C502.693 30.6597 499.676 29.4094 496.322 28.2134L492.298 26.6901C485.588 23.8621 477.54 20.6001 469.492 17.7721C463.08 15.546 457.296 13.7247 452.139 12.1011L452.136 12.0999C449.738 11.3448 447.475 10.6325 445.349 9.94202C435.953 7.33245 426.567 5.37368 415.834 4.06905C395.714 1.45949 376.933 1.8934 367.537 2.32883C354.118 2.98123 342.045 4.72145 329.973 7.54929C321.925 9.72494 312.53 12.7697 304.481 16.4673C298.886 18.887 293.937 21.6222 288.287 24.7455C285.81 26.1145 283.198 27.5582 280.338 29.0825C273.628 33.4321 265.58 38.653 257.532 44.7427C253.132 47.834 249.133 50.9905 245.096 54.1766L245.095 54.1773L245.093 54.1785L245.091 54.1801L245.091 54.1802C241.745 56.821 238.373 59.4821 234.727 62.1433L232.773 63.7971C230.22 65.8726 227.667 67.9481 225.882 69.8556C225.843 69.9177 225.82 69.9779 225.82 70.0345C218.857 75.7177 211.893 80.235 205.824 84.172L205.821 84.1744C204.986 84.7161 204.167 85.2468 203.369 85.7681C200.918 87.1398 198.652 88.4513 196.498 89.698L196.496 89.6989C190.53 93.1519 185.421 96.1094 179.6 98.4842C170.359 102.363 162.437 105.165 153.187 107.105C138.658 110.122 124.129 110.769 113.562 110.769C109.6 110.769 105.638 110.769 102.994 110.554C88.466 109.907 76.5818 107.966 64.6971 104.734C55.4466 102.363 47.5234 99.1288 39.6003 94.8185C33.004 91.1533 25.0719 86.6279 15.8313 81.2395C11.634 78.4989 7.80627 75.6375 4.5456 73.2L4.54404 73.1988L4.543 73.1981C2.87059 71.9479 1.34738 70.8092 0 69.8556V240H1280V69.8556C1275.94 66.9809 1270.77 63.2208 1266.24 59.6726C1258.33 53.8508 1250.43 49.1479 1243.84 45.3411C1235.94 40.6378 1228.03 37.0561 1220.13 34.3681C1209.59 30.7849 1200.37 28.5464 1188.51 27.2016C1171.38 25.1866 1150.3 25.6333 1133.17 28.3215C1122.63 30.1132 1113.41 32.5766 1104.19 36.6066C1096.28 39.9649 1088.38 44.2198 1080.48 49.5945L1079.74 50.1181C1073.3 54.7119 1065.69 60.1436 1058.08 66.6128C1056.47 67.7094 1055.35 68.7217 1054.12 69.8556L1051.21 72.1493C1049.82 73.2437 1048.43 74.3381 1047.04 75.433L1037.43 83.6413C1035.37 85.5849 1032.97 87.5289 1030.57 89.4728L1030.56 89.4749C1028.16 91.4182 1025.76 93.3615 1023.71 95.3044C1020.55 97.8589 1017.7 100.227 1015.03 102.431L1015.03 102.439L1014.95 102.5L1014.92 102.53L1014.92 102.531L1014.91 102.533C1009.53 106.995 1004.96 110.785 1000.39 114.096C992.156 120.576 983.927 125.76 977.066 130.08C968.837 135.048 960.607 138.936 952.377 141.96C942.771 145.634 933.172 148.008 922.197 149.521C911.222 151.034 900.246 151.682 889.27 151.682C881.041 151.682 872.812 151.249 865.95 150.601C853.606 149.522 842.63 147.577 831.654 144.338C823.425 141.962 815.196 138.721 806.966 134.834C802.657 132.799 798.351 130.508 793.363 127.854L793.358 127.852C790.407 126.282 787.217 124.584 783.646 122.738C779.532 120.579 775.758 118.31 771.986 116.043L771.986 116.042C768.213 113.774 764.441 111.507 760.326 109.347L758.958 108.699C755.528 106.647 751.756 104.542 747.985 102.437L747.982 102.435C744.209 100.329 740.437 98.2232 737.006 96.1711C730.608 92.4763 724.209 89.3043 718.453 86.4511L718.447 86.4482C716.803 85.6329 715.211 84.8436 713.686 84.0756C706.785 80.8148 699.885 78.0104 693.791 75.5339C692.617 75.0571 691.474 74.5924 690.366 74.139C688.178 73.3627 686.205 72.7243 684.277 72.1002C682.095 71.3937 679.968 70.7054 677.647 69.8556Z" fill="url(#paint0_linear_1740_16613)"/>
<path d="M677.647 70.0001C675.475 69.3229 673.187 68.6352 670.719 68.154C662.671 66.6275 654.623 65.1026 645.226 63.7951C641.018 63.1114 636.442 62.5466 632.075 62.0076C628.09 61.5159 624.28 61.0456 621.083 60.5263C617.728 60.0907 614.039 59.6548 610.35 59.2188C606.662 58.783 602.969 58.3466 599.616 57.9112L579.496 54.6423C572.786 53.3347 566.076 51.8083 559.376 50.0642C552.666 48.3203 544.618 46.1416 537.909 43.744C534.024 42.4818 530.14 41.0739 525.736 39.4778L525.734 39.4768L525.731 39.4759C522.529 38.3154 519.053 37.0555 515.103 35.6797C511.749 34.481 508.731 33.228 505.714 31.9749L505.713 31.9747L505.711 31.9737C502.693 30.7207 499.676 29.4678 496.322 28.2692L492.298 26.7427C485.588 23.9087 477.54 20.6397 469.492 17.8057C463.08 15.5749 457.296 13.7497 452.139 12.1226L452.136 12.1215C449.738 11.3648 447.475 10.6509 445.349 9.95897C435.953 7.34385 426.567 5.38092 415.834 4.07351C395.714 1.45839 376.933 1.89323 367.537 2.32959C354.118 2.98337 342.045 4.72729 329.973 7.56116C321.925 9.74144 312.53 12.7927 304.481 16.4981C298.886 18.923 293.937 21.664 288.287 24.794C285.81 26.1659 283.198 27.6126 280.338 29.1401C273.628 33.4991 265.58 38.731 257.532 44.8337C253.132 47.9315 249.133 51.0948 245.096 54.2876L245.095 54.2884L245.093 54.2895L245.091 54.2912L245.091 54.2913C241.745 56.9378 238.373 59.6045 234.727 62.2713L232.773 63.9286C223.972 71.0987 215.5 78.0569 205.824 84.3469L205.821 84.3493C204.986 84.8922 204.167 85.424 203.369 85.9464C200.917 87.3212 198.651 88.6358 196.497 89.8853L196.496 89.8855C190.53 93.3459 185.421 96.3097 179.6 98.6895C170.359 102.577 162.437 105.385 153.187 107.328C138.658 110.352 124.129 111 113.562 111C109.6 111 105.638 111 102.994 110.785C88.466 110.137 76.5818 108.192 64.6971 104.952C55.4466 102.577 47.5234 99.3355 39.6003 95.0161C33.004 91.343 25.0719 86.808 15.8313 81.4082C11.634 78.6617 7.80627 75.7942 4.5456 73.3515L4.54404 73.3504L4.54362 73.3501C2.87097 72.097 1.34755 70.9558 0 70.0001V0H1280V70.0001C1275.94 67.1192 1270.77 63.3511 1266.24 59.7954C1258.33 53.9612 1250.43 49.2483 1243.84 45.4334C1235.94 40.72 1228.03 37.1307 1220.13 34.4371C1209.59 30.8462 1200.37 28.6029 1188.51 27.2553C1171.38 25.236 1150.3 25.6836 1133.17 28.3776C1122.63 30.1731 1113.41 32.6417 1104.19 36.6802C1096.28 40.0457 1088.38 44.3097 1080.48 49.6958L1079.74 50.2205C1073.3 54.8241 1065.69 60.2674 1058.08 66.7503C1056.47 67.8492 1055.35 68.8637 1054.12 70.0001L1051.21 72.2986C1049.82 73.3953 1048.43 74.4921 1047.04 75.5893L1037.43 83.815C1035.37 85.7628 1032.97 87.7109 1030.57 89.659L1030.56 89.6611C1028.16 91.6085 1025.76 93.5559 1023.71 95.503C1020.55 98.0625 1017.7 100.435 1015.04 102.644L1015.03 102.652L1014.95 102.714L1014.92 102.744L1014.92 102.745L1014.91 102.747C1009.53 107.218 1004.96 111.017 1000.39 114.334C992.156 120.828 983.927 126.024 977.066 130.353C968.837 135.331 960.607 139.228 952.377 142.258C942.771 145.939 933.172 148.319 922.197 149.835C911.222 151.351 900.246 152 889.27 152C881.041 152 872.812 151.567 865.95 150.917C853.606 149.836 842.63 147.887 831.654 144.641C823.425 142.26 815.196 139.012 806.966 135.116C802.657 133.077 798.351 130.782 793.363 128.122L793.36 128.121C790.408 126.547 787.217 124.846 783.646 122.995C779.532 120.831 775.758 118.558 771.986 116.285L771.985 116.285C768.213 114.012 764.441 111.74 760.326 109.575L758.958 108.926C755.528 106.87 751.756 104.76 747.985 102.65L747.982 102.649C744.209 100.538 740.437 98.428 737.006 96.3715C730.608 92.6688 724.209 89.4901 718.453 86.6309L718.447 86.6279L718.417 86.6131C716.784 85.8013 715.201 85.0153 713.686 84.2503C706.785 80.9825 699.885 78.1722 693.791 75.6904C692.617 75.2126 691.474 74.7469 690.366 74.2925C688.178 73.5146 686.205 72.8748 684.277 72.2494C682.095 71.5414 679.968 70.8517 677.647 70.0001Z" fill="url(#paint1_linear_1740_16613)"/>
<path d="M1278 49H1248.53C1249.09 49.3273 1249.65 49.6606 1250.22 50H1278V49Z" fill="url(#paint2_linear_1740_16613)"/>
<path d="M1080.78 50H1249.22C1248.65 49.6606 1248.09 49.3273 1247.53 49H1082.33C1081.81 49.3286 1081.29 49.662 1080.78 50Z" fill="url(#paint3_linear_1740_16613)"/>
<path d="M1079.58 49H558.126C559.305 49.3418 560.485 49.6755 561.655 50H1078.02C1078.54 49.662 1079.06 49.3286 1079.58 49Z" fill="url(#paint4_linear_1740_16613)"/>
<path d="M252 50H555.656C554.485 49.6755 553.305 49.3418 552.126 49H253.343C252.892 49.3327 252.445 49.666 252 50Z" fill="url(#paint5_linear_1740_16613)"/>
<path d="M249.186 50C249.63 49.666 250.078 49.3327 250.529 49H0V50H249.186Z" fill="url(#paint6_linear_1740_16613)"/>
<path d="M0 70C1.34766 70.9558 2.87122 72.0972 4.54404 73.3503L4.5456 73.3515C7.80627 75.7942 11.634 78.6617 15.8313 81.4081C25.0719 86.8079 33.004 91.343 39.6003 95.016C47.5234 99.3354 55.4466 102.576 64.6971 104.952C76.5818 108.192 88.466 110.137 102.994 110.785C105.638 111 109.6 111 113.562 111C124.129 111 138.658 110.352 153.187 107.328C162.437 105.385 170.36 102.577 179.6 98.6894C185.421 96.3096 190.53 93.3458 196.496 89.8855C198.651 88.6359 200.917 87.3212 203.369 85.9463C204.167 85.4239 204.986 84.8921 205.821 84.3492L205.824 84.3468C215.5 78.0568 223.972 71.0986 232.773 63.9286L234.727 62.2713C238.373 59.6044 241.745 56.9376 245.091 54.2911L245.093 54.2895L245.095 54.2883C249.132 51.0952 253.132 47.9317 257.532 44.8336C265.58 38.731 273.628 33.499 280.338 29.1401C283.198 27.6126 285.81 26.1658 288.287 24.7939C293.937 21.664 298.886 18.923 304.481 16.4981C312.53 12.7927 321.925 9.74138 329.973 7.5611C342.045 4.72724 354.118 2.98331 367.537 2.32953C376.933 1.89317 395.714 1.45834 415.834 4.07346C426.567 5.38086 435.953 7.3438 445.349 9.95892C447.475 10.6509 449.738 11.3647 452.136 12.1214L452.139 12.1225C457.296 13.7497 463.08 15.5749 469.492 17.8057C477.54 20.6396 485.588 23.9086 492.298 26.7427L496.322 28.2692C499.676 29.4677 502.693 30.7207 505.711 31.9736L505.713 31.9746C508.731 33.2277 511.749 34.4808 515.103 35.6796C519.053 37.0554 522.53 38.3154 525.731 39.4758L525.734 39.4768C530.138 41.0733 534.024 42.4815 537.909 43.7439C544.618 46.1416 552.666 48.3203 559.376 50.0642C566.076 51.8082 572.786 53.3347 579.496 54.6422L599.616 57.9111C602.969 58.3465 606.662 58.783 610.35 59.2188C614.039 59.6547 617.728 60.0907 621.083 60.5262C624.28 61.0456 628.09 61.5158 632.075 62.0076C636.442 62.5465 641.018 63.1114 645.226 63.7951C654.623 65.1026 662.671 66.6275 670.719 68.154C673.187 68.6351 675.475 69.3228 677.647 70C679.968 70.8516 682.095 71.5414 684.277 72.2493C686.205 72.8747 688.178 73.5146 690.366 74.2924C691.474 74.7468 692.617 75.2125 693.791 75.6904C699.885 78.1721 706.785 80.9824 713.686 84.2503C715.211 85.0199 716.803 85.8108 718.447 86.6279L718.453 86.6308C724.209 89.49 730.608 92.6688 737.006 96.3715C740.437 98.4279 744.209 100.538 747.982 102.649L747.985 102.65C751.756 104.76 755.528 106.87 758.958 108.926L760.326 109.575C764.441 111.74 768.214 114.012 771.986 116.285C775.758 118.558 779.532 120.831 783.646 122.995C787.219 124.846 790.41 126.548 793.363 128.122C798.351 130.782 802.657 133.077 806.966 135.116C815.196 139.012 823.425 142.259 831.654 144.641C842.63 147.887 853.606 149.836 865.95 150.917C872.812 151.567 881.041 152 889.27 152C900.246 152 911.222 151.351 922.197 149.835C933.172 148.319 942.771 145.939 952.377 142.258C960.607 139.228 968.837 135.331 977.066 130.352C983.927 126.024 992.156 120.828 1000.39 114.334C1004.96 111.017 1009.53 107.218 1014.91 102.747L1014.92 102.745L1014.92 102.744L1014.95 102.714L1015.03 102.652C1017.69 100.441 1020.55 98.0656 1023.71 95.5029C1025.76 93.5552 1028.17 91.6071 1030.57 89.6589C1032.97 87.7108 1035.37 85.7627 1037.43 83.815L1047.04 75.5892C1048.43 74.492 1049.82 73.3953 1051.21 72.2985L1054.12 70C1055.35 68.8636 1056.47 67.8492 1058.08 66.7503C1065.69 60.2673 1073.3 54.8241 1079.74 50.2204L1080.48 49.6958C1088.38 44.3096 1096.28 40.0456 1104.19 36.6802C1113.41 32.6417 1122.63 30.173 1133.17 28.3775C1150.3 25.6836 1171.38 25.2359 1188.51 27.2552C1200.37 28.6028 1209.59 30.8461 1220.13 34.437C1228.03 37.1307 1235.94 40.72 1243.84 45.4333C1250.43 49.2482 1258.33 53.9612 1266.24 59.7953C1270.77 63.3511 1275.94 67.1191 1280 70" stroke="url(#paint7_linear_1740_16613)" stroke-width="2" stroke-linecap="round"/>
<path d="M0 70C1.34766 70.9558 2.87122 72.0972 4.54404 73.3503L4.5456 73.3515C7.80627 75.7942 11.634 78.6617 15.8313 81.4081C25.0719 86.8079 33.004 91.343 39.6003 95.016C47.5234 99.3354 55.4466 102.576 64.6971 104.952C76.5818 108.192 88.466 110.137 102.994 110.785C105.638 111 109.6 111 113.562 111C124.129 111 138.658 110.352 153.187 107.328C162.437 105.385 170.36 102.577 179.6 98.6894C185.421 96.3096 190.53 93.3458 196.496 89.8855C198.651 88.6359 200.917 87.3212 203.369 85.9463C204.167 85.4239 204.986 84.8921 205.821 84.3492L205.824 84.3468C215.5 78.0568 223.972 71.0986 232.773 63.9286L234.727 62.2713C238.373 59.6044 241.745 56.9376 245.091 54.2911L245.093 54.2895L245.095 54.2883C249.132 51.0952 253.132 47.9317 257.532 44.8336C265.58 38.731 273.628 33.499 280.338 29.1401C283.198 27.6126 285.81 26.1658 288.287 24.7939C293.937 21.664 298.886 18.923 304.481 16.4981C312.53 12.7927 321.925 9.74138 329.973 7.5611C342.045 4.72724 354.118 2.98331 367.537 2.32953C376.933 1.89317 395.714 1.45834 415.834 4.07346C426.567 5.38086 435.953 7.3438 445.349 9.95892C447.475 10.6509 449.738 11.3647 452.136 12.1214L452.139 12.1225C457.296 13.7497 463.08 15.5749 469.492 17.8057C477.54 20.6396 485.588 23.9086 492.298 26.7427L496.322 28.2692C499.676 29.4677 502.693 30.7207 505.711 31.9736L505.713 31.9746C508.731 33.2277 511.749 34.4808 515.103 35.6796C519.053 37.0554 522.53 38.3154 525.731 39.4758L525.734 39.4768C530.138 41.0733 534.024 42.4815 537.909 43.7439C544.618 46.1416 552.666 48.3203 559.376 50.0642C566.076 51.8082 572.786 53.3347 579.496 54.6422L599.616 57.9111C602.969 58.3465 606.662 58.783 610.35 59.2188C614.039 59.6547 617.728 60.0907 621.083 60.5262C624.28 61.0456 628.09 61.5158 632.075 62.0076C636.442 62.5465 641.018 63.1114 645.226 63.7951C654.623 65.1026 662.671 66.6275 670.719 68.154C673.187 68.6351 675.475 69.3228 677.647 70C679.968 70.8516 682.095 71.5414 684.277 72.2493C686.205 72.8747 688.178 73.5146 690.366 74.2924C691.474 74.7468 692.617 75.2125 693.791 75.6904C699.885 78.1721 706.785 80.9824 713.686 84.2503C715.211 85.0199 716.803 85.8108 718.447 86.6279L718.453 86.6308C724.209 89.49 730.608 92.6688 737.006 96.3715C740.437 98.4279 744.209 100.538 747.982 102.649L747.985 102.65C751.756 104.76 755.528 106.87 758.958 108.926L760.326 109.575C764.441 111.74 768.214 114.012 771.986 116.285C775.758 118.558 779.532 120.831 783.646 122.995C787.219 124.846 790.41 126.548 793.363 128.122C798.351 130.782 802.657 133.077 806.966 135.116C815.196 139.012 823.425 142.259 831.654 144.641C842.63 147.887 853.606 149.836 865.95 150.917C872.812 151.567 881.041 152 889.27 152C900.246 152 911.222 151.351 922.197 149.835C933.172 148.319 942.771 145.939 952.377 142.258C960.607 139.228 968.837 135.331 977.066 130.352C983.927 126.024 992.156 120.828 1000.39 114.334C1004.96 111.017 1009.53 107.218 1014.91 102.747L1014.92 102.745L1014.92 102.744L1014.95 102.714L1015.03 102.652C1017.69 100.441 1020.55 98.0656 1023.71 95.5029C1025.76 93.5552 1028.17 91.6071 1030.57 89.6589C1032.97 87.7108 1035.37 85.7627 1037.43 83.815L1047.04 75.5892C1048.43 74.492 1049.82 73.3953 1051.21 72.2985L1054.12 70C1055.35 68.8636 1056.47 67.8492 1058.08 66.7503C1065.69 60.2673 1073.3 54.8241 1079.74 50.2204L1080.48 49.6958C1088.38 44.3096 1096.28 40.0456 1104.19 36.6802C1113.41 32.6417 1122.63 30.173 1133.17 28.3775C1150.3 25.6836 1171.38 25.2359 1188.51 27.2552C1200.37 28.6028 1209.59 30.8461 1220.13 34.437C1228.03 37.1307 1235.94 40.72 1243.84 45.4333C1250.43 49.2482 1258.33 53.9612 1266.24 59.7953C1270.77 63.3511 1275.94 67.1191 1280 70" stroke="url(#paint8_linear_1740_16613)" stroke-width="2" stroke-linecap="round"/>
<defs>
<linearGradient id="paint0_linear_1740_16613" x1="390.5" y1="-89.5" x2="390.5" y2="240" gradientUnits="userSpaceOnUse">
<stop stop-color="#0F1C4D"/>
<stop offset="1" stop-color="#0E101F"/>
</linearGradient>
<linearGradient id="paint1_linear_1740_16613" x1="390.5" y1="220.5" x2="390.5" y2="64" gradientUnits="userSpaceOnUse">
<stop stop-color="#0F1C4D"/>
<stop offset="1" stop-color="#0E101F"/>
</linearGradient>
<linearGradient id="paint2_linear_1740_16613" x1="1244.53" y1="50.0017" x2="1277.67" y2="50.0017" gradientUnits="userSpaceOnUse">
<stop stop-color="#478CFF" stop-opacity="0"/>
<stop offset="1" stop-color="#478CFF" stop-opacity="0.7"/>
</linearGradient>
<linearGradient id="paint3_linear_1740_16613" x1="1080.02" y1="50.0017" x2="1243.58" y2="50.0017" gradientUnits="userSpaceOnUse">
<stop stop-color="#478CFF" stop-opacity="0.5"/>
<stop offset="1" stop-color="#478CFF" stop-opacity="0"/>
</linearGradient>
<linearGradient id="paint4_linear_1740_16613" x1="554.126" y1="50.0017" x2="1085.25" y2="50.0017" gradientUnits="userSpaceOnUse">
<stop stop-color="#478CFF" stop-opacity="0.3"/>
<stop offset="0.616718" stop-color="#F29C24"/>
<stop offset="1" stop-color="#478CFF" stop-opacity="0"/>
</linearGradient>
<linearGradient id="paint5_linear_1740_16613" x1="252.186" y1="50.0017" x2="547.69" y2="50.0017" gradientUnits="userSpaceOnUse">
<stop stop-color="#478CFF" stop-opacity="0.7"/>
<stop offset="1" stop-color="#478CFF" stop-opacity="0"/>
</linearGradient>
<linearGradient id="paint6_linear_1740_16613" x1="0" y1="50.0017" x2="252" y2="50.0017" gradientUnits="userSpaceOnUse">
<stop stop-color="#478CFF" stop-opacity="0.7"/>
<stop offset="1" stop-color="#478CFF" stop-opacity="0"/>
</linearGradient>
<linearGradient id="paint7_linear_1740_16613" x1="640" y1="2" x2="640" y2="152" gradientUnits="userSpaceOnUse">
<stop stop-color="#478CFF" stop-opacity="0.7"/>
<stop offset="1" stop-color="#478CFF" stop-opacity="0.2"/>
</linearGradient>
<linearGradient id="paint8_linear_1740_16613" x1="1280" y1="88" x2="955.5" y2="88.0001" gradientUnits="userSpaceOnUse">
<stop stop-color="#17203D"/>
<stop offset="1" stop-color="#17203D" stop-opacity="0"/>
</linearGradient>
</defs>
</svg>
