<svg width="60" height="60" viewBox="0 0 60 60" fill="none" xmlns="http://www.w3.org/2000/svg">
<rect width="60" height="60" fill="#131833"/>
<path d="M31.8 9.42105C31.8 8.08394 32.8745 7 34.2 7H40.2C41.5255 7 42.6 8.08394 42.6 9.42105V50.5789C42.6 51.9161 41.5255 53 40.2 53H34.2C32.8745 53 31.8 51.9161 31.8 50.5789V9.42105Z" fill="#FABA4B"/>
<path d="M28.2 16.6842C28.2 15.3471 27.1255 14.2632 25.8 14.2632H19.8C18.4745 14.2632 17.4 15.3471 17.4 16.6842V43.3158C17.4 44.6529 18.4745 45.7368 19.8 45.7368H25.8C27.1255 45.7368 28.2 44.6529 28.2 43.3158V16.6842Z" fill="#FABA4B"/>
<path d="M46.2 20.9211C46.2 19.5839 47.2745 18.5 48.6 18.5H54.6C55.9255 18.5 57 19.5839 57 20.9211V39.0789C57 40.4161 55.9255 41.5 54.6 41.5H48.6C47.2745 41.5 46.2 40.4161 46.2 39.0789V20.9211Z" fill="#FABA4B"/>
<path d="M3 23.9474C3 22.6103 4.07452 21.5263 5.4 21.5263H11.4C12.7255 21.5263 13.8 22.6103 13.8 23.9474V36.0526C13.8 37.3897 12.7255 38.4737 11.4 38.4737H5.4C4.07452 38.4737 3 37.3897 3 36.0526V23.9474Z" fill="#FABA4B"/>
<path d="M34.2 53H40.2C41.5255 53 42.6 51.9161 42.6 50.5789V30H31.8V50.5789C31.8 51.9161 32.8745 53 34.2 53Z" fill="url(#paint0_linear_1509_11947)"/>
<path d="M25.8 45.7368H19.8C18.4745 45.7368 17.4 44.6529 17.4 43.3158V30H28.2V43.3158C28.2 44.6529 27.1255 45.7368 25.8 45.7368Z" fill="url(#paint1_linear_1509_11947)"/>
<path d="M48.6 41.5H54.6C55.9255 41.5 57 40.4161 57 39.0789V30H46.2V39.0789C46.2 40.4161 47.2745 41.5 48.6 41.5Z" fill="url(#paint2_linear_1509_11947)"/>
<path d="M5.4 38.4737H11.4C12.7255 38.4737 13.8 37.3897 13.8 36.0526L13.8 30H3V36.0526C3 37.3897 4.07452 38.4737 5.4 38.4737Z" fill="url(#paint3_linear_1509_11947)"/>
<g opacity="0.2">
<path d="M17.4 30H28.2V34.8022C24.8014 34.369 21.2003 33.9355 17.4 33.5135V30Z" fill="#0F1C4D"/>
<path d="M3 30H13.8V33.1236C10.3524 32.7599 6.75168 32.4078 3 32.075V30Z" fill="#0F1C4D"/>
<path d="M31.8 35.2705V30H42.6V36.7817C39.2953 36.2975 35.6935 35.7871 31.8 35.2705Z" fill="#0F1C4D"/>
<path d="M57 38.9493C55.3807 38.7095 53.605 38.439 51.6747 38.1449C49.9699 37.8851 48.1445 37.607 46.2 37.3155V30H57V38.9493Z" fill="#0F1C4D"/>
</g>
<defs>
<linearGradient id="paint0_linear_1509_11947" x1="3" y1="44.5263" x2="36.8877" y2="22.3149" gradientUnits="userSpaceOnUse">
<stop stop-color="#478CFF"/>
<stop offset="1" stop-color="#F29C24"/>
</linearGradient>
<linearGradient id="paint1_linear_1509_11947" x1="3" y1="44.5263" x2="36.8877" y2="22.3149" gradientUnits="userSpaceOnUse">
<stop stop-color="#478CFF"/>
<stop offset="1" stop-color="#F29C24"/>
</linearGradient>
<linearGradient id="paint2_linear_1509_11947" x1="3" y1="44.5263" x2="36.8877" y2="22.3149" gradientUnits="userSpaceOnUse">
<stop stop-color="#478CFF"/>
<stop offset="1" stop-color="#F29C24"/>
</linearGradient>
<linearGradient id="paint3_linear_1509_11947" x1="3" y1="44.5263" x2="36.8877" y2="22.3149" gradientUnits="userSpaceOnUse">
<stop stop-color="#478CFF"/>
<stop offset="1" stop-color="#F29C24"/>
</linearGradient>
</defs>
</svg>
