<svg width="160" height="160" xmlns="http://www.w3.org/2000/svg">
    <defs>
        <linearGradient x1="0%" y1="50%" x2="100%" y2="50%" id="a">
            <stop stop-color="#F9A825" offset="0%"/>
            <stop stop-color="#EF6C00" offset="100%"/>
        </linearGradient>
    </defs>
    <g fill="none" fill-rule="evenodd">
        <path d="M0 0h160v160H0z"/>
        <path d="M67.68 64.915a2.68 2.68 0 0 0-1.34.504l-5.029 3.776-15.295 3.819C32.191 73.264 21 84.584 21 98.486 21 112.546 32.438 124 46.477 124a25.401 25.401 0 0 0 16.385-5.959c.15-.098.29-.21.419-.336 2.246-2.02 9.824-4.448 16.719-4.448 6.895 0 14.473 2.428 16.72 4.448.128.126.268.238.418.336l.084.042a25.376 25.376 0 0 0 16.3 5.917C127.563 124 139 112.545 139 98.486c0-13.903-11.191-25.221-25.016-25.472l-15.295-3.819-5.028-3.776a2.68 2.68 0 0 0-1.593-.504H67.932a2.678 2.678 0 0 0-.252 0zm1.174 5.371h22.292l4.652 3.483c.287.217.614.374.963.462l5.532 1.385c-8.427 4.172-14.248 12.848-14.248 22.87 0 3.773.828 7.347 2.305 10.575-3.25-.764-6.796-1.175-10.35-1.175-3.554 0-7.1.411-10.35 1.175a25.322 25.322 0 0 0 2.305-10.575c0-10.022-5.82-18.698-14.248-22.87l5.532-1.385a2.68 2.68 0 0 0 .963-.462l4.652-3.483zm2.85 5.372a2.684 2.684 0 0 0-2.261 1.451 2.692 2.692 0 0 0 .126 2.686 2.684 2.684 0 0 0 2.386 1.234h16.09a2.681 2.681 0 0 0 2.355-1.332 2.69 2.69 0 0 0 0-2.708 2.681 2.681 0 0 0-2.355-1.331h-16.09a2.678 2.678 0 0 0-.252 0zm-25.31 2.685c.083.004.167.004.25 0 11.062.091 19.947 9.043 19.947 20.143 0 5.932-2.53 11.261-6.579 14.94-.105.088-.234.16-.335.25-.09.08-.173.163-.252.253-.045.038-.08.088-.125.126-3.473 2.867-7.949 4.574-12.823 4.574-11.14 0-20.113-8.987-20.113-20.143 0-11.128 8.929-20.097 20.03-20.143zm66.835 0c.168.016.336.016.503 0 11.042.113 19.904 9.058 19.904 20.143 0 11.156-8.973 20.143-20.113 20.143-4.928 0-9.46-1.734-12.948-4.658a2.705 2.705 0 0 0-.084-.126c-.03-.026-.054-.058-.084-.084a2.702 2.702 0 0 0-.084-.084c-.101-.091-.23-.163-.335-.252-4.048-3.678-6.579-9.007-6.579-14.939 0-11.057 8.818-19.985 19.82-20.143z" fill="#243259" fill-rule="nonzero"/>
        <path d="M46.477 87.743a10.695 10.695 0 0 1 10.728 10.743 10.695 10.695 0 0 1-10.728 10.743A10.695 10.695 0 0 1 35.75 98.486a10.695 10.695 0 0 1 10.727-10.743z" fill="#8491B8"/>
        <path d="M92.523 22.831a10.695 10.695 0 0 1 10.727 10.743 10.695 10.695 0 0 1-10.727 10.743 10.695 10.695 0 0 1-10.728-10.743 10.695 10.695 0 0 1 10.728-10.743z" fill="url(#a)" transform="translate(21 64.912)"/>
        <path d="M79.707 38.016a2.685 2.685 0 0 0-2.389 2.728v14.771a2.687 2.687 0 0 0 1.33 2.358 2.679 2.679 0 0 0 2.704 0 2.687 2.687 0 0 0 1.33-2.358V40.744a2.688 2.688 0 0 0-.87-2.04 2.68 2.68 0 0 0-2.105-.688zM47.609 46.073a2.682 2.682 0 0 0-2.216 1.488 2.69 2.69 0 0 0 .162 2.667L52.26 60.97a2.69 2.69 0 0 0 4.66-.159 2.699 2.699 0 0 0-.093-2.694l-6.704-10.743a2.681 2.681 0 0 0-2.514-1.3zM112.056 46.073a2.681 2.681 0 0 0-2.179 1.301l-6.704 10.743a2.699 2.699 0 0 0-.093 2.694 2.691 2.691 0 0 0 4.66.16l6.705-10.743a2.69 2.69 0 0 0 .08-2.813 2.681 2.681 0 0 0-2.469-1.342z" fill="#8491B8"/>
    </g>
</svg>