<svg viewbox='0 0 10 10' width="1em" height="1em"  xmlns="http://www.w3.org/2000/svg">
<path fill-rule="evenodd" clip-rule="evenodd" d="M5 10C7.76142 10 10 7.76142 10 5C10 2.23858 7.76142 0 5 0C2.23858 0 0 2.23858 0 5C0 7.76142 2.23858 10 5 10ZM4.21875 7.9625C4.21875 8.4 4.56875 8.75 5.00625 8.75C5.45 8.75 5.78125 8.39375 5.7875 7.9625C5.7875 7.51875 5.45 7.18125 5.00625 7.18125C4.56875 7.18125 4.21875 7.51875 4.21875 7.9625ZM6.19909 4.91372C6.40551 4.71297 6.6432 4.48181 6.8875 4.125C7.3125 3.49375 7.15 2.65 6.875 2.2C6.55 1.66875 5.91875 1.25 4.99375 1.25C4.16875 1.25 3.53125 1.65625 3.15 2.2125C2.95 2.5 3.06875 2.9 3.4 3.03125C3.65625 3.1375 3.93125 3.03125 4.0875 2.80625C4.26875 2.5375 4.5625 2.3125 5.00625 2.3125C6.01875 2.3125 6.21875 3.2625 5.8625 3.76875C5.71181 3.98362 5.51252 4.16735 5.31082 4.3533C5.06078 4.58383 4.80701 4.81778 4.6375 5.11875C4.51875 5.33125 4.46875 5.55 4.45 5.7625C4.41875 6.0875 4.675 6.3625 5 6.3625H5.0375C5.31875 6.3625 5.56875 6.15625 5.6 5.875C5.61875 5.68125 5.65625 5.59375 5.71875 5.48125C5.83713 5.26573 6.00417 5.10329 6.19909 4.91372Z" fill="currentColor"/>
</svg>
