<svg width="96" height="96" viewBox="0 0 96 96" fill="none" xmlns="http://www.w3.org/2000/svg">
<path d="M23.8538 21C20.6362 21 18 23.6521 18 26.889V68.8474C18 71.6765 20.3096 74 23.1218 74H72.8782C75.6904 74 78 71.6765 78 68.8474V34.9862C78 32.1571 75.6904 29.8336 72.8782 29.8336H69.2196V22.4725C69.2196 21.7018 68.5224 21.0004 67.7563 21.0004L23.8538 21ZM23.8538 23.9442H66.293V29.8332H23.8538C22.2072 29.8332 20.9272 28.5454 20.9272 26.889C20.9272 25.2326 22.2073 23.9448 23.8538 23.9448V23.9442ZM20.9272 31.9723C21.7898 32.4775 22.7897 32.7774 23.8538 32.7774C40.3356 32.7625 58.7133 32.7774 72.8784 32.7774C74.1197 32.7774 75.0737 33.7371 75.0737 34.9858V43.819H53.8541C51.8528 43.819 50.1955 45.4863 50.1955 47.4996V56.3328C50.1955 58.3461 51.8528 60.0134 53.8541 60.0134H75.0737V68.8466C75.0737 70.0953 74.1197 71.055 72.8784 71.055H23.1221C21.8808 71.055 20.9268 70.0954 20.9268 68.8466L20.9272 31.9723ZM53.8542 46.7628H75.0738V57.0681H53.8542C53.4234 57.0681 53.1223 56.7652 53.1223 56.3318V47.4986C53.1223 47.0652 53.4234 46.7618 53.8542 46.7623V46.7628ZM61.1713 48.9713C59.5549 48.9713 58.2447 50.2893 58.2447 51.9155C58.2447 53.5416 59.5549 54.8597 61.1713 54.8597C62.7877 54.8597 64.0979 53.5416 64.0979 51.9155C64.0979 50.2893 62.7877 48.9713 61.1713 48.9713Z" fill="#8491B8"/>
</svg>
