<svg width="1em" height="1em" viewBox="0 0 12 12" fill="none" xmlns="http://www.w3.org/2000/svg">
<path d="M0.166626 4.99925C0.166626 4.52874 0.51191 4.14378 0.958398 4.08879L1.06555 4.08268H8.76896L6.71511 1.98066C6.56088 1.82326 6.46792 1.6135 6.45367 1.39073C6.43942 1.16797 6.50486 0.947531 6.63772 0.770783L6.71511 0.685236C7.03659 0.355269 7.54856 0.330826 7.8998 0.605799L7.98314 0.685236L11.5729 4.35154C11.8944 4.68151 11.9182 5.20701 11.6443 5.56142L11.5729 5.64697L7.98314 9.31327C7.62595 9.67379 7.0604 9.67379 6.71511 9.31327C6.56088 9.15587 6.46792 8.9461 6.45367 8.72334C6.43942 8.50058 6.50486 8.28014 6.63772 8.10339L6.71511 8.01784L8.76896 5.91583H1.06555C0.947788 5.91663 0.831028 5.89352 0.721999 5.84782C0.61297 5.80212 0.513826 5.73473 0.430274 5.64954C0.346722 5.56435 0.280413 5.46303 0.235165 5.35143C0.189917 5.23982 0.166623 5.12013 0.166626 4.99925Z" fill="currentColor"/>
</svg>
