<svg width="60" height="60" viewBox="0 0 60 60" fill="none" xmlns="http://www.w3.org/2000/svg">
<rect width="60" height="60" fill="#131833"/>
<path d="M41.3888 37.1621V43.0723C41.3888 45.7533 33.7386 47.912 24.3052 47.8946C14.8717 47.8771 7.22156 45.7011 7.23048 43.0201V37.1099L41.3888 37.1621Z" fill="url(#paint0_linear_1509_11895)"/>
<path d="M41.0775 36.9814C41.0822 34.3278 33.5093 32.1637 24.163 32.1478C14.8166 32.1319 7.23599 34.2701 7.23125 36.9237C7.2265 39.5773 14.7994 41.7414 24.1458 41.7573C33.4922 41.7733 41.0727 39.635 41.0775 36.9814Z" fill="#FABA4B"/>
<path d="M41.4065 30.0419V35.9521C41.4065 38.6331 33.7474 40.7918 24.314 40.7743C14.8805 40.7569 7.23926 38.5721 7.23926 35.8912V29.981L41.4065 30.0419Z" fill="url(#paint1_linear_1509_11895)"/>
<path d="M41.0951 29.9189C41.0998 27.2653 33.5269 25.1012 24.1805 25.0853C14.8342 25.0693 7.25357 27.2076 7.24882 29.8612C7.24408 32.5148 14.817 34.6789 24.1634 34.6948C33.5097 34.7108 41.0903 32.5725 41.0951 29.9189Z" fill="#FABA4B"/>
<path d="M40.1673 22.9738V28.8841C40.1673 31.565 32.5082 33.7237 23.0747 33.7063C13.6413 33.6889 6 31.5041 6 28.8319V22.8955L40.1673 22.9738Z" fill="url(#paint2_linear_1509_11895)"/>
<path d="M39.8802 22.9258C39.885 20.2722 32.312 18.1081 22.9657 18.0921C13.6193 18.0762 6.03871 20.2144 6.03397 22.868C6.02923 25.5217 13.6021 27.6858 22.9485 27.7017C32.2949 27.7177 39.8755 25.5794 39.8802 22.9258Z" fill="#FABA4B"/>
<path d="M41.424 15.8539V21.7642C41.424 24.4451 33.7738 26.6038 24.3403 26.5864C14.9069 26.569 7.25672 24.3842 7.26563 21.7032V15.793L41.424 15.8539Z" fill="url(#paint3_linear_1509_11895)"/>
<path opacity="0.3" d="M32.3213 24.2363C32.3213 24.2363 19.0449 28.1881 21.1759 47.8164C21.1759 47.8164 29.8337 48.095 33.9352 47.0679C37.6087 46.1452 32.3213 24.2363 32.3213 24.2363Z" fill="#0F1C4D"/>
<path d="M41.4434 15.8628C41.4481 13.2092 33.8034 11.045 24.3684 11.0289C14.9333 11.0128 7.28091 13.151 7.27617 15.8046C7.27142 18.4582 14.9162 20.6224 24.3512 20.6385C33.7862 20.6546 41.4386 18.5164 41.4434 15.8628Z" fill="#FABA4B"/>
<path d="M41.3866 49C48.3526 49 53.9997 43.4175 53.9997 36.5312C53.9997 29.6449 48.3526 24.0625 41.3866 24.0625C34.4205 24.0625 28.7734 29.6449 28.7734 36.5312C28.7734 43.4175 34.4205 49 41.3866 49Z" fill="url(#paint4_linear_1509_11895)"/>
<path d="M41.3866 45.4375C48.3526 45.4375 53.9997 39.855 53.9997 32.9687C53.9997 26.0824 48.3526 20.5 41.3866 20.5C34.4205 20.5 28.7734 26.0824 28.7734 32.9687C28.7734 39.855 34.4205 45.4375 41.3866 45.4375Z" fill="#FABA4B"/>
<defs>
<linearGradient id="paint0_linear_1509_11895" x1="24.5837" y1="47.7459" x2="-16.6726" y2="28.0726" gradientUnits="userSpaceOnUse">
<stop stop-color="#F29C24"/>
<stop offset="1" stop-color="#478CFF"/>
</linearGradient>
<linearGradient id="paint1_linear_1509_11895" x1="24.597" y1="40.6255" x2="-16.6784" y2="20.9539" gradientUnits="userSpaceOnUse">
<stop stop-color="#F29C24"/>
<stop offset="1" stop-color="#478CFF"/>
</linearGradient>
<linearGradient id="paint2_linear_1509_11895" x1="23.3577" y1="33.5572" x2="-17.9423" y2="13.9056" gradientUnits="userSpaceOnUse">
<stop stop-color="#F29C24"/>
<stop offset="1" stop-color="#478CFF"/>
</linearGradient>
<linearGradient id="paint3_linear_1509_11895" x1="24.6188" y1="26.4376" x2="-16.6498" y2="6.77434" gradientUnits="userSpaceOnUse">
<stop stop-color="#F29C24"/>
<stop offset="1" stop-color="#478CFF"/>
</linearGradient>
<linearGradient id="paint4_linear_1509_11895" x1="28.7734" y1="30" x2="53.7857" y2="49.2777" gradientUnits="userSpaceOnUse">
<stop stop-color="#478CFF"/>
<stop offset="1" stop-color="#F29C24"/>
</linearGradient>
</defs>
</svg>
