<svg width="24" height="24" viewBox="0 0 24 24" fill="none" xmlns="http://www.w3.org/2000/svg">
<path d="M17.3333 18.2222H6.66667C6.17778 18.2222 5.77778 17.8222 5.77778 17.3333V6.66667C5.77778 6.17778 6.17778 5.77778 6.66667 5.77778H11.1111C11.6 5.77778 12 5.37778 12 4.88889C12 4.4 11.6 4 11.1111 4H5.77778C4.79111 4 4 4.8 4 5.77778V18.2222C4 19.2 4.8 20 5.77778 20H18.2222C19.2 20 20 19.2 20 18.2222V12.8889C20 12.4 19.6 12 19.1111 12C18.6222 12 18.2222 12.4 18.2222 12.8889V17.3333C18.2222 17.8222 17.8222 18.2222 17.3333 18.2222ZM13.7778 4.88889C13.7778 5.37778 14.1778 5.77778 14.6667 5.77778H16.9689L8.85333 13.8933C8.50667 14.24 8.50667 14.8 8.85333 15.1467C9.2 15.4933 9.76 15.4933 10.1067 15.1467L18.2222 7.03111V9.33333C18.2222 9.82222 18.6222 10.2222 19.1111 10.2222C19.6 10.2222 20 9.82222 20 9.33333V4.88889C20 4.4 19.6 4 19.1111 4H14.6667C14.1778 4 13.7778 4.4 13.7778 4.88889Z" fill="currentColor"/>
</svg>
