<svg width="24" height="24" viewBox="0 0 24 24" fill="none" xmlns="http://www.w3.org/2000/svg">
<path d="M19.1139 6.24426C19.1053 6.23569 19.0925 6.22712 19.0796 6.21426C18.0553 5.3914 16.6839 4.9714 15.7153 4.76997C14.7596 4.56855 13.8039 5.11283 13.4953 6.03426C13.491 6.0514 13.4825 6.06426 13.4782 6.0814C15.0853 6.24426 16.521 6.68569 17.6868 7.37569C17.991 7.55569 18.0896 7.94997 17.9096 8.25855C17.7896 8.45997 17.5753 8.5714 17.3568 8.5714C17.2453 8.5714 17.1296 8.5414 17.0268 8.4814C15.7153 7.7014 13.9753 7.28997 11.9996 7.28997C10.0239 7.28997 8.2839 7.7014 6.97247 8.4814C6.6639 8.6614 6.26962 8.56283 6.08962 8.25855C5.90962 7.94997 6.00819 7.55569 6.31247 7.37569C7.47819 6.68569 8.9139 6.24426 10.521 6.0814C10.5168 6.06426 10.5082 6.0514 10.5039 6.03426C10.1953 5.11283 9.23961 4.56855 8.2839 4.76997C7.31533 4.9714 5.9439 5.3914 4.91962 6.21426C4.90676 6.22712 4.8939 6.23569 4.88533 6.24426C3.9339 7.12712 2.17676 11.6185 2.17676 15.6985C2.17676 15.81 2.20247 15.9171 2.25819 16.0157C3.3039 17.8543 5.76819 18.5271 6.7839 18.7285C6.90819 18.7543 7.03247 18.7671 7.15676 18.7671C7.76533 18.7671 8.35247 18.4757 8.71676 17.97L8.93961 17.6657C6.73247 17.1428 5.60104 16.2 5.53676 16.1443C5.26676 15.9128 5.23247 15.51 5.4639 15.24C5.69533 14.97 6.09819 14.9357 6.36819 15.1628C6.40247 15.1928 8.29247 16.7228 11.9996 16.7228C15.7239 16.7228 17.6139 15.18 17.631 15.1628C17.901 14.9357 18.3082 14.97 18.5353 15.2443C18.7625 15.5143 18.7325 15.9171 18.4625 16.1443C18.3982 16.2 17.2668 17.1428 15.0596 17.6657L15.2825 17.97C15.6468 18.4757 16.2339 18.7671 16.8425 18.7671C16.9668 18.7671 17.091 18.7543 17.2153 18.7285C18.231 18.5271 20.6953 17.8543 21.741 16.0157C21.7968 15.9171 21.8225 15.81 21.8225 15.6985C21.8225 11.6185 20.0653 7.12712 19.1139 6.24426ZM9.22676 14.5371C8.40819 14.5371 7.7439 13.7785 7.7439 12.84C7.7439 11.9014 8.40819 11.1428 9.22676 11.1428C10.0496 11.1428 10.7139 11.9014 10.7139 12.84C10.7139 13.7785 10.0496 14.5371 9.22676 14.5371ZM14.7596 14.5714C13.9325 14.5714 13.2596 13.8043 13.2596 12.8571C13.2596 11.91 13.9325 11.1428 14.7596 11.1428C15.591 11.1428 16.2596 11.91 16.2596 12.8571C16.2596 13.8043 15.591 14.5714 14.7596 14.5714Z" fill="currentColor"/>
</svg>
