<svg width="1em" height="1em" viewBox="0 0 20 20" fill="none" xmlns="http://www.w3.org/2000/svg">
<path d="M12.9165 16.6667H4.58317V5.83332C4.58317 5.37499 4.20817 4.99999 3.74984 4.99999C3.2915 4.99999 2.9165 5.37499 2.9165 5.83332V16.6667C2.9165 17.5833 3.6665 18.3333 4.58317 18.3333H12.9165C13.3748 18.3333 13.7498 17.9583 13.7498 17.5C13.7498 17.0417 13.3748 16.6667 12.9165 16.6667ZM17.0832 13.3333V3.33332C17.0832 2.41666 16.3332 1.66666 15.4165 1.66666H7.9165C6.99984 1.66666 6.24984 2.41666 6.24984 3.33332V13.3333C6.24984 14.25 6.99984 15 7.9165 15H15.4165C16.3332 15 17.0832 14.25 17.0832 13.3333ZM15.4165 13.3333H7.9165V3.33332H15.4165V13.3333Z" fill="#FABA4B"/>
</svg>
