<svg width="10" height="12" viewBox="0 0 10 12" fill="none" xmlns="http://www.w3.org/2000/svg">
<path d="M5.00089 0.583984C5.42867 0.583984 5.77867 0.904605 5.82867 1.3192L5.83422 1.4187L5.83422 8.57186L7.74533 6.66472C7.88844 6.52151 8.07915 6.43518 8.28168 6.42195C8.48421 6.40872 8.68464 6.46949 8.84533 6.59286L8.92311 6.66472C9.22311 6.96323 9.24533 7.43864 8.99533 7.76478L8.92311 7.84218L5.58978 11.1755C5.28978 11.474 4.812 11.4961 4.48978 11.2419L4.412 11.1755L1.07867 7.84218C0.750888 7.5105 0.750888 6.98534 1.07867 6.66472C1.22177 6.52151 1.41249 6.43518 1.61502 6.42195C1.81755 6.40872 2.01797 6.46949 2.17867 6.59286L2.25644 6.66472L4.16755 8.57186L4.16755 1.4187C4.16682 1.30935 4.18784 1.20093 4.22939 1.09969C4.27094 0.998447 4.3322 0.906384 4.40966 0.8288C4.48711 0.751216 4.57923 0.689643 4.6807 0.647627C4.78217 0.605611 4.89098 0.583982 5.00089 0.583984Z" fill="currentColor"/>
</svg>
