<svg width="24" height="24" viewBox="0 0 24 24" xmlns="http://www.w3.org/2000/svg">
  <path d="M7.734 6.437l1.556.92 2.734-1.564 2.686 1.563 1.556-.92L11.976 4 7.734 6.437zM15.842 8l1.555.92v1.793L19 9.793V8l-1.603-.92-1.555.92zM10.42 8l1.555.92L13.58 8l-1.603-.92-1.555.92zM5 8v1.793l1.556.92V8.919L8.158 8 6.556 7.08 5 8zm6.976 2.207L9.29 8.644l-1.603.92v1.792l2.781 1.563v3.127l1.556.92 1.555-.92v-3.127l2.687-1.563V9.563l-1.603-.92-2.687 1.564zM17.35 12v3.08l-2.687 1.564v1.793L18.953 16v-4.92L17.35 12zM5 16l4.242 2.437v-1.793L6.556 15.08V12L5 11.08V16zm9.71-2.437v1.793l1.556-.92v-1.792l-1.556.92zm-7.023.874l1.555.92v-1.794l-1.555-.92v1.794zm4.29 3.77l-1.556-.92v1.793l1.555.92 1.603-.92v-1.793l-1.603.92z" fill="currentColor" fill-rule="evenodd"/>
</svg>
