<svg width="20" height="20" viewBox="0 0 20 20" fill="none" xmlns="http://www.w3.org/2000/svg">
<path d="M0.833252 1.38912V6.11167C0.839201 6.41413 1.08609 6.65618 1.38858 6.65618C1.69106 6.65618 1.93795 6.41414 1.9439 6.11167V1.94443H6.11078C6.41324 1.93848 6.6553 1.69178 6.6553 1.3893C6.6553 1.08664 6.41326 0.839934 6.11078 0.833984H1.38858C1.24133 0.833984 1.10004 0.892363 0.995927 0.996473C0.891816 1.10077 0.833252 1.24187 0.833252 1.38912Z" fill="url(#paint0_linear_3577_19953)"/>
<path d="M13.8889 0.834032H18.6114C18.7587 0.833846 18.9 0.89241 19.0041 0.996521C19.1082 1.10063 19.1668 1.24192 19.1666 1.38917V6.11172C19.161 6.41418 18.9141 6.65642 18.6114 6.65642C18.3088 6.65642 18.0619 6.4142 18.0561 6.11172V1.94449H13.889C13.5866 1.93854 13.3445 1.69184 13.3445 1.38936C13.3444 1.08669 13.5866 0.839986 13.8889 0.834032Z" fill="url(#paint1_linear_3577_19953)"/>
<path d="M18.2187 13.497C18.3229 13.3929 18.464 13.3343 18.6114 13.3345C18.7587 13.3343 18.9 13.3929 19.0041 13.497C19.1082 13.6011 19.1668 13.7424 19.1666 13.8896V18.6122C19.1668 18.7594 19.1082 18.9007 19.0041 19.0048C18.9 19.1089 18.7587 19.1675 18.6114 19.1673H13.889C13.5866 19.1616 13.3445 18.9147 13.3445 18.6122C13.3444 18.3097 13.5866 18.0628 13.8889 18.0569H18.0562V13.8896C18.0562 13.7424 18.1145 13.6011 18.2187 13.497Z" fill="url(#paint2_linear_3577_19953)"/>
<path d="M1.94404 18.0569H6.11092C6.41339 18.0628 6.65544 18.3095 6.65544 18.6122C6.65544 18.9147 6.41341 19.1614 6.11092 19.1673H1.38872C1.24147 19.1673 1.10018 19.1089 0.99607 19.0048C0.891959 18.9005 0.833395 18.7594 0.833395 18.6122V13.8896C0.839344 13.5874 1.08624 13.3451 1.38872 13.3451C1.6912 13.3451 1.93809 13.5872 1.94404 13.8896V18.0569Z" fill="url(#paint3_linear_3577_19953)"/>
<path d="M5.28044 14.6699C5.27559 14.0772 5.54832 13.5162 6.01738 13.1538C7.26244 16.8893 12.7136 16.9445 13.9842 13.1549C14.4525 13.5174 14.7245 14.0778 14.7199 14.6699C14.7199 14.9766 14.9684 15.2252 15.2752 15.2252C15.5817 15.2252 15.8303 14.9766 15.8303 14.6699C15.8344 14.1166 15.6846 13.573 15.3975 13.1001C15.1103 12.6271 14.6974 12.2432 14.2045 11.9915C14.2369 11.4324 14.1528 10.873 13.9578 10.3482C14.2424 10.4198 14.4992 10.575 14.6948 10.7939C14.8903 11.0127 15.016 11.2851 15.0554 11.576C15.0612 11.8785 15.3081 12.1207 15.6108 12.1207C15.9134 12.1207 16.1603 11.8785 16.1659 11.576C16.1659 10.2523 14.8621 9.16602 13.2116 9.06302C13.1508 8.99108 13.0872 8.9208 13.0208 8.85257C13.8584 8.75477 14.6286 8.34613 15.1793 7.70752C15.73 7.06891 16.0207 6.24702 15.9941 5.4041C15.9941 5.09753 15.7456 4.84897 15.4388 4.84897C15.1322 4.84897 14.8837 5.09753 14.8837 5.4041C14.9142 5.99007 14.7134 6.56475 14.3245 7.00404C13.9355 7.44334 13.3895 7.71235 12.8041 7.75307V6.80196C12.8052 6.05774 12.5101 5.34347 11.9842 4.81679C11.4582 4.29011 10.7445 3.99414 10.0001 3.99414C9.25586 3.99414 8.54196 4.29012 8.01599 4.81679C7.49002 5.34346 7.19517 6.05774 7.19609 6.80196V7.75307C6.61069 7.71238 6.06464 7.44354 5.67571 7.00423C5.28659 6.56476 5.08581 5.99026 5.11629 5.4041C5.11629 5.09753 4.86773 4.84897 4.56116 4.84897C4.25441 4.84897 4.00584 5.09753 4.00584 5.4041C3.97923 6.24702 4.27003 7.0691 4.82069 7.70771C5.37135 8.34632 6.14175 8.75497 6.9793 8.85276C6.91294 8.92099 6.84954 8.99126 6.78837 9.06321C5.13787 9.1662 3.83423 10.2525 3.83423 11.576C3.83999 11.8783 4.08688 12.1205 4.38936 12.1205C4.69184 12.1205 4.93874 11.8785 4.94469 11.576C4.9841 11.285 5.10977 11.0129 5.30536 10.794C5.50092 10.5752 5.75747 10.42 6.04211 10.3482C5.84708 10.8728 5.76324 11.4324 5.79596 11.9913C5.30312 12.243 4.89002 12.6267 4.60297 13.0999C4.31573 13.5728 4.1657 14.1166 4.16979 14.6699C4.16979 14.9767 4.41836 15.2252 4.72512 15.2252C5.03169 15.2252 5.28044 14.9767 5.28044 14.6699Z" fill="url(#paint4_linear_3577_19953)"/>
<defs>
<linearGradient id="paint0_linear_3577_19953" x1="1" y1="1.00049" x2="13.9673" y2="14.033" gradientUnits="userSpaceOnUse">
<stop stop-color="#478CFF"/>
<stop offset="1" stop-color="#F29C24"/>
</linearGradient>
<linearGradient id="paint1_linear_3577_19953" x1="1" y1="1.00049" x2="13.9673" y2="14.033" gradientUnits="userSpaceOnUse">
<stop stop-color="#478CFF"/>
<stop offset="1" stop-color="#F29C24"/>
</linearGradient>
<linearGradient id="paint2_linear_3577_19953" x1="1" y1="1.00049" x2="13.9673" y2="14.033" gradientUnits="userSpaceOnUse">
<stop stop-color="#478CFF"/>
<stop offset="1" stop-color="#F29C24"/>
</linearGradient>
<linearGradient id="paint3_linear_3577_19953" x1="1" y1="1.00049" x2="13.9673" y2="14.033" gradientUnits="userSpaceOnUse">
<stop stop-color="#478CFF"/>
<stop offset="1" stop-color="#F29C24"/>
</linearGradient>
<linearGradient id="paint4_linear_3577_19953" x1="1" y1="1.00049" x2="13.9673" y2="14.033" gradientUnits="userSpaceOnUse">
<stop stop-color="#478CFF"/>
<stop offset="1" stop-color="#F29C24"/>
</linearGradient>
</defs>
</svg>
