<svg width="40" height="40" viewBox="0 0 40 40" fill="none" xmlns="http://www.w3.org/2000/svg">
<path d="M0 8C0 3.58172 3.58172 0 8 0H32C36.4183 0 40 3.58172 40 8V32C40 36.4183 36.4183 40 32 40H8C3.58172 40 0 36.4183 0 32V8Z" fill="url(#paint0_linear_170_370)" fill-opacity="0.15"/>
<path d="M24.4276 27.2942C24.2805 27.2941 24.1394 27.2355 24.0353 27.1315C23.9312 27.0274 23.8727 26.8864 23.8725 26.7392V25.1231C23.8725 25.0503 23.8581 24.9782 23.8303 24.911C23.8024 24.8437 23.7616 24.7826 23.7101 24.7311C23.6586 24.6796 23.5975 24.6388 23.5302 24.6109C23.463 24.583 23.3909 24.5687 23.318 24.5687C23.2452 24.5687 23.1731 24.583 23.1059 24.6109C23.0386 24.6388 22.9775 24.6796 22.926 24.7311C22.8745 24.7826 22.8337 24.8437 22.8058 24.911C22.778 24.9782 22.7636 25.0503 22.7636 25.1231V25.8901C22.7636 26.0371 22.7052 26.1781 22.6012 26.2821C22.4972 26.3861 22.3562 26.4445 22.2092 26.4445C22.0621 26.4445 21.9211 26.3861 21.8171 26.2821C21.7132 26.1781 21.6547 26.0371 21.6547 25.8901V25.1231C21.6553 25.0499 21.6414 24.9774 21.6138 24.9096C21.5862 24.8418 21.5454 24.7802 21.4939 24.7282C21.4423 24.6762 21.381 24.635 21.3134 24.6069C21.2458 24.5787 21.1734 24.5642 21.1002 24.5642C21.027 24.5642 20.9545 24.5787 20.887 24.6069C20.8194 24.635 20.7581 24.6762 20.7065 24.7282C20.655 24.7802 20.6142 24.8418 20.5866 24.9096C20.559 24.9774 20.545 25.0499 20.5456 25.1231V25.3319C20.5445 25.4783 20.4855 25.6184 20.3815 25.7215C20.2776 25.8247 20.1371 25.8826 19.9906 25.8826C19.8442 25.8826 19.7036 25.8247 19.5997 25.7215C19.4957 25.6184 19.4367 25.4783 19.4356 25.3319V25.1231C19.4362 25.0499 19.4223 24.9774 19.3946 24.9096C19.367 24.8418 19.3263 24.7802 19.2747 24.7282C19.2232 24.6762 19.1618 24.635 19.0943 24.6069C19.0267 24.5787 18.9542 24.5642 18.881 24.5642C18.8078 24.5642 18.7354 24.5787 18.6678 24.6069C18.6002 24.635 18.5389 24.6762 18.4874 24.7282C18.4358 24.7802 18.3951 24.8418 18.3674 24.9096C18.3398 24.9774 18.3259 25.0499 18.3265 25.1231V25.8901C18.3265 26.0371 18.2681 26.1781 18.1641 26.2821C18.0601 26.3861 17.9191 26.4445 17.772 26.4445C17.625 26.4445 17.484 26.3861 17.38 26.2821C17.276 26.1781 17.2176 26.0371 17.2176 25.8901V25.1231C17.2176 24.9761 17.1592 24.8351 17.0552 24.7311C16.9512 24.6271 16.8102 24.5687 16.6632 24.5687C16.5161 24.5687 16.3751 24.6271 16.2711 24.7311C16.1672 24.8351 16.1087 24.9761 16.1087 25.1231V26.7392C16.11 26.8128 16.0966 26.8859 16.0694 26.9543C16.0421 27.0227 16.0014 27.085 15.9498 27.1375C15.8982 27.19 15.8367 27.2317 15.7688 27.2602C15.7009 27.2886 15.628 27.3033 15.5544 27.3033C15.4808 27.3033 15.4079 27.2886 15.34 27.2602C15.2721 27.2317 15.2106 27.19 15.159 27.1375C15.1074 27.085 15.0668 27.0227 15.0395 26.9543C15.0122 26.8859 14.9988 26.8128 15.0001 26.7392V17.583C15.027 16.4467 15.4401 15.3535 16.1714 14.4834C16.9027 13.6133 17.9085 13.0183 19.0232 12.7963C20.1379 12.5744 21.2949 12.7387 22.3038 13.2622C23.3126 13.7858 24.113 14.6373 24.5731 15.6766C24.8393 16.2777 24.9837 16.9257 24.998 17.583C24.9989 17.5898 25.0008 17.5967 24.998 17.603C24.9951 17.6092 25.0038 17.6145 24.998 17.6182V26.7392C24.9979 26.8862 24.9232 27.0272 24.8193 27.1312C24.7155 27.2352 24.5746 27.2939 24.4276 27.2942ZM19.4296 19.0381C19.2889 19.0381 19.2317 19.0926 19.2317 19.2273C19.2317 19.5547 19.5937 19.8208 20.0386 19.8208C20.4828 19.8208 20.8443 19.5546 20.8443 19.2273C20.8443 19.0929 20.787 19.0384 20.6466 19.0384C20.5715 19.041 20.4966 19.0486 20.4225 19.0611L20.4155 19.0623C20.2908 19.0828 20.1649 19.0943 20.0386 19.0967C19.912 19.0943 19.7857 19.0828 19.6608 19.0623C19.5844 19.049 19.5072 19.0409 19.4296 19.0381ZM21.8439 16.3435C21.3531 16.3435 20.954 16.8006 20.954 17.3626C20.954 17.924 21.3531 18.3808 21.8439 18.3808C22.3339 18.3808 22.7324 17.924 22.7324 17.3626C22.7323 16.8006 22.3338 16.3435 21.8439 16.3435ZM18.1541 16.3435C17.6644 16.3435 17.2656 16.8006 17.2656 17.3626C17.2656 17.924 17.6644 18.3808 18.1541 18.3808C18.6438 18.3808 19.0429 17.924 19.0429 17.3626C19.0428 16.8006 18.6441 16.3435 18.1541 16.3435Z" fill="white"/>
<defs>
<linearGradient id="paint0_linear_170_370" x1="40" y1="0" x2="0" y2="40" gradientUnits="userSpaceOnUse">
<stop stop-color="#B6509E"/>
<stop offset="1" stop-color="#2EBAC6"/>
</linearGradient>
</defs>
</svg>
