<svg width="36" height="36" viewBox="0 0 36 36" fill="none" xmlns="http://www.w3.org/2000/svg">
<path d="M0 8C0 3.58172 3.58172 0 8 0H28C32.4183 0 36 3.58172 36 8V28C36 32.4183 32.4183 36 28 36H8C3.58172 36 0 32.4183 0 28V8Z" fill="#006AE3" fill-opacity="0.15"/>
<circle cx="18" cy="17.9993" r="8.33332" fill="white"/>
<path fill-rule="evenodd" clip-rule="evenodd" d="M26.3333 17.9993C26.3333 13.3977 22.6017 9.66602 18 9.66602C13.3983 9.66602 9.66667 13.3977 9.66667 17.9993C9.66667 22.601 13.3983 26.3327 18 26.3327C22.6017 26.3327 26.3333 22.601 26.3333 17.9993ZM21.5001 16.8894L19.1685 17.5077L18.6485 15.0877L19.3418 14.9311L19.6151 16.0777C19.6151 16.0777 20.2451 15.0444 19.4051 13.9744C18.9236 13.4393 18.6881 13.4027 18.1647 13.3213L18.1201 13.3144C17.6318 13.2444 16.4968 13.4094 16.1585 14.7344C16.0152 15.5877 16.1768 16.2194 17.2768 17.0461L17.2152 17.9661C17.2152 17.9661 15.9868 17.1011 15.6702 16.4944C15.4252 16.0144 15.0052 15.0661 15.7635 13.7461C16.1718 13.0861 16.9768 12.4527 18.3951 12.5194C19.1085 12.5494 20.8501 13.4211 20.5801 15.4577C20.5335 15.8394 20.3351 16.3477 20.3351 16.3477L21.2918 16.1344L21.5001 16.8894ZM17.6567 21.5127V14.5794H18.4117V21.5127H17.6567ZM20.1686 22.3144C19.7419 22.9627 18.9203 23.5744 17.5053 23.4711C16.7919 23.4227 15.0753 22.5044 15.3986 20.4761C15.4553 20.0961 15.6669 19.5944 15.6669 19.5944L14.7053 19.7811L14.5169 19.0227L16.8653 18.4661L17.3219 20.8994L16.6236 21.0377L16.3803 19.8827C16.3803 19.8827 15.7236 20.8977 16.5336 21.9911C16.9997 22.538 17.2332 22.5806 17.7544 22.6757L17.8019 22.6844C18.2869 22.7677 19.4269 22.6311 19.8003 21.3161C19.9653 20.4677 19.8203 19.8311 18.7436 18.9744L18.8303 18.0561C18.8303 18.0561 20.0353 18.9527 20.3353 19.5677C20.5653 20.0561 20.9603 21.0161 20.1686 22.3144Z" fill="#006AE3"/>
</svg>
