<svg width="10" height="10" viewBox="0 0 10 10" fill="none" xmlns="http://www.w3.org/2000/svg">
<path fill-rule="evenodd" clip-rule="evenodd" d="M5 10C7.76142 10 10 7.76142 10 5C10 2.23858 7.76142 0 5 0C2.23858 0 0 2.23858 0 5C0 7.76142 2.23858 10 5 10ZM4.13333 7.66667C4.13333 8.14667 4.52 8.53333 5 8.53333C5.48 8.53333 5.86667 8.14667 5.86667 7.66667C5.86667 7.18667 5.48 6.8 5 6.8C4.52 6.8 4.13333 7.18667 4.13333 7.66667ZM4.33333 5C4.33333 5.36667 4.63333 5.66667 5 5.66667C5.36667 5.66667 5.66667 5.36667 5.66667 5V2.33333C5.66667 1.96667 5.36667 1.66667 5 1.66667C4.63333 1.66667 4.33333 1.96667 4.33333 2.33333V5Z" fill="currentColor"/>
</svg>
