<svg width="24" height="24" viewBox="0 0 24 24" fill="none" xmlns="http://www.w3.org/2000/svg">
<path d="M13.9541 2.5C12.4147 2.5 11.266 3.80198 11.266 5.2832V7.84672C9.24712 7.95763 7.40083 8.51492 5.92692 9.38898C5.35893 8.82427 4.59839 8.5735 3.86098 8.57406C3.06147 8.57467 2.24413 8.86151 1.68035 9.51813L1.66744 9.53297L1.65454 9.54781C1.11372 10.2476 0.89957 11.1851 1.04379 12.1158C1.1755 12.9657 1.65096 13.819 2.47748 14.378C2.47206 14.4723 2.4574 14.5647 2.4574 14.66C2.4574 18.4311 6.73836 21.5 12 21.5C17.2616 21.5 21.5426 18.4311 21.5426 14.66C21.5426 14.5647 21.5279 14.4723 21.5225 14.378C22.349 13.819 22.8245 12.9657 22.9562 12.1158C23.1004 11.1851 22.8863 10.2476 22.3455 9.54781L22.3326 9.53297L22.3197 9.51813C21.7558 8.86142 20.9386 8.57467 20.139 8.57406C19.4016 8.5735 18.6409 8.82406 18.0731 9.38898C16.5992 8.51492 14.7529 7.95763 12.734 7.84672V5.2832C12.734 4.53914 13.1489 4.02 13.9541 4.02C14.3363 4.02 14.8019 4.21829 15.5312 4.48312C16.1476 4.70701 16.9499 4.93329 17.9756 5.00117C18.2209 5.75211 18.9021 6.3 19.7075 6.3C20.7168 6.3 21.5426 5.445 21.5426 4.4C21.5426 3.355 20.7168 2.5 19.7075 2.5C19.0184 2.5 18.4211 2.90312 18.1075 3.48859C17.2307 3.43832 16.5865 3.25598 16.0172 3.04922C15.3537 2.80828 14.7442 2.5 13.9541 2.5ZM3.86098 10.0941C4.15103 10.0938 4.42661 10.1727 4.65381 10.3004C3.84343 11.0007 3.22857 11.819 2.8574 12.7125C2.66032 12.4606 2.54156 12.1778 2.49468 11.8753C2.41557 11.3648 2.56312 10.8342 2.79719 10.5201C3.01837 10.2736 3.42228 10.0944 3.86098 10.0941ZM20.1376 10.0941C20.5764 10.0944 20.9817 10.2737 21.2028 10.5201C21.4369 10.8342 21.5844 11.3648 21.5053 11.8753C21.4584 12.1778 21.3397 12.4606 21.1426 12.7125C20.7714 11.819 20.1566 11.0007 19.3462 10.3004C19.5729 10.1728 19.8477 10.0938 20.1376 10.0941ZM8.32977 11.62C9.14089 11.62 9.79786 12.3002 9.79786 13.14C9.79786 13.9798 9.14089 14.66 8.32977 14.66C7.51865 14.66 6.86168 13.9798 6.86168 13.14C6.86168 12.3002 7.51865 11.62 8.32977 11.62ZM15.6702 11.62C16.4813 11.62 17.1383 12.3002 17.1383 13.14C17.1383 13.9798 16.4813 14.66 15.6702 14.66C14.8591 14.66 14.2021 13.9798 14.2021 13.14C14.2021 12.3002 14.8591 11.62 15.6702 11.62ZM15.8451 15.8252C15.3761 17.2442 13.8762 18.46 12 18.46C10.1238 18.46 8.62392 17.2447 8.15486 15.9277C8.99901 16.6367 10.4057 17.1434 12 17.1434C13.5943 17.1434 15.001 16.6362 15.8451 15.8252Z" fill="currentColor"/>
</svg>
