<svg width="24" height="24" viewBox="0 0 24 24" fill="none" xmlns="http://www.w3.org/2000/svg">
<path fill-rule="evenodd" clip-rule="evenodd" d="M9 16V24L12 21.9861L15 24V16C12.7723 16 11.0124 16 9 16Z" fill="url(#paint0_linear_3289_20301)"/>
<path d="M19.0653 6.20529L20.3859 7.5298C21.2047 8.35094 21.2047 9.67545 20.3859 10.4702L19.0653 11.7947V13.9934C19.0653 15.1324 18.1144 16.0596 16.9788 16.0596H14.7865L13.4659 17.3841C12.6735 18.2053 11.3528 18.2053 10.5341 17.3841L9.21346 16.0596H7.02121C5.85924 16.0596 4.9347 15.1324 4.9347 13.9934V11.7947L3.61406 10.4702C2.79531 9.64906 2.79531 8.35094 3.61406 7.5298L4.9347 6.20529V4.0066C4.9347 2.86762 5.88555 1.94037 7.02121 1.94037H9.21346L10.5341 0.615861C11.3265 -0.205287 12.6472 -0.205287 13.4659 0.615861L14.7865 1.94037H16.9788C18.1408 1.94037 19.0653 2.86762 19.0653 4.0066V6.20529Z" fill="url(#paint1_linear_3289_20301)"/>
<path fill-rule="evenodd" clip-rule="evenodd" d="M17.4771 6.86509V4.0066C17.4771 3.76051 17.2768 3.53326 16.9788 3.53326H14.1287L12.3429 1.74221C12.134 1.53276 11.8336 1.55967 11.6753 1.72366L11.6663 1.73301L9.87133 3.53326H7.02121C6.73642 3.53326 6.52293 3.77349 6.52293 4.0066V6.86509L4.73711 8.65614C4.53861 8.85523 4.53861 9.14478 4.73711 9.34386L6.52293 11.1349V13.9934C6.52293 14.2395 6.72322 14.4667 7.02121 14.4667H9.87133L11.6571 16.2578C11.866 16.4672 12.1664 16.4403 12.3247 16.2763L12.3337 16.267L14.1287 14.4667H16.9788C17.2636 14.4667 17.4771 14.2265 17.4771 13.9934V11.1349L19.2721 9.33466L19.2814 9.32561C19.4449 9.16689 19.4717 8.86559 19.2629 8.65614L17.4771 6.86509ZM13.4659 17.3841L14.7865 16.0596H16.9788C18.1144 16.0596 19.0653 15.1324 19.0653 13.9934V11.7947L20.3859 10.4702C21.2047 9.67545 21.2047 8.35094 20.3859 7.5298L19.0653 6.20529V4.0066C19.0653 2.86762 18.1408 1.94037 16.9788 1.94037H14.7865L13.4659 0.615861C12.6472 -0.205287 11.3265 -0.205287 10.5341 0.615861L9.21346 1.94037H7.02121C5.88555 1.94037 4.9347 2.86762 4.9347 4.0066V6.20529L3.61406 7.5298C2.79531 8.35094 2.79531 9.64906 3.61406 10.4702L4.9347 11.7947V13.9934C4.9347 15.1324 5.85924 16.0596 7.02121 16.0596H9.21346L10.5341 17.3841C11.3528 18.2053 12.6735 18.2053 13.4659 17.3841Z" fill="#DB9341"/>
<defs>
<linearGradient id="paint0_linear_3289_20301" x1="11.9985" y1="16" x2="10.4123" y2="23.6721" gradientUnits="userSpaceOnUse">
<stop stop-color="#478CFF"/>
<stop offset="1" stop-color="#B87121"/>
</linearGradient>
<linearGradient id="paint1_linear_3289_20301" x1="3" y1="0" x2="11.9774" y2="9.02251" gradientUnits="userSpaceOnUse">
<stop offset="0.00520833" stop-color="#478CFF"/>
<stop offset="1" stop-color="#B87121"/>
</linearGradient>
</defs>
</svg>
