<svg viewbox='0 0 14 14' width="1em" height="1em" fill="none" xmlns="http://www.w3.org/2000/svg">
<path d="M13.1025 8.61248L12.506 7.71914C12.3679 7.50678 12.2959 7.25709 12.2993 7.00255C12.2964 6.75656 12.3659 6.51531 12.4989 6.30985L13.1025 5.395C13.2884 5.11181 13.2994 4.74564 13.1307 4.45149L12.2406 2.88455C12.0748 2.58991 11.7587 2.4167 11.4256 2.43788L10.3522 2.50476C10.116 2.51908 9.88081 2.46261 9.67582 2.34233L9.63824 2.31845C9.43537 2.19802 9.27196 2.01937 9.1685 1.80489L8.69877 0.830332C8.55104 0.525745 8.2459 0.333061 7.91196 0.333497H6.10582C5.77256 0.333176 5.46782 0.524679 5.31901 0.827943L4.84928 1.78339C4.73975 2.00767 4.56729 2.19387 4.3537 2.31845C4.14044 2.44447 3.89528 2.50347 3.6491 2.48804L2.59689 2.42116C2.26316 2.4002 1.94654 2.57323 1.77955 2.86783L0.872957 4.45149C0.704154 4.74475 0.715103 5.11035 0.901141 5.39261L1.48596 6.28596C1.62401 6.49832 1.69602 6.748 1.69265 7.00255C1.69557 7.24854 1.62604 7.48979 1.49301 7.69525L0.901141 8.6101C0.710336 8.89607 0.699351 9.26846 0.872957 9.56555L1.57756 10.8124C1.85924 11.2981 2.38667 11.5802 2.9398 11.5409L3.6444 11.4956C3.88065 11.4812 4.11583 11.5377 4.32082 11.658L4.3584 11.6819C4.56128 11.8023 4.72468 11.9809 4.82814 12.1954L5.29787 13.17C5.4456 13.4746 5.75074 13.6673 6.08468 13.6668H7.86499C8.19825 13.6671 8.50299 13.4756 8.65179 13.1724L9.12153 12.193C9.22464 11.9783 9.38813 11.7996 9.59127 11.6795L9.62885 11.658C9.83371 11.5352 10.0704 11.4786 10.3076 11.4956L11.3763 11.5624C11.71 11.5834 12.0266 11.4104 12.1936 11.1158L13.0814 9.54883C13.2633 9.2663 13.2715 8.9032 13.1025 8.61248ZM6.99597 9.84502C5.45237 9.84502 4.20104 8.5724 4.20104 7.00255C4.20104 5.4327 5.45237 4.16008 6.99597 4.16008C8.53957 4.16008 9.7909 5.4327 9.7909 7.00255C9.78832 8.57131 8.5385 9.84239 6.99597 9.84502Z" fill="currentColor"/>
</svg>
