<svg width="24" height="24" viewBox="0 0 24 24" fill="none" xmlns="http://www.w3.org/2000/svg">
<path d="M18.0113 15.5226C18.0113 14.9855 18.4452 14.5379 19.0056 14.5379C19.548 14.5379 20 14.9676 20 15.5226L20 19.5153C20 20.0524 19.5661 20.5 19.0056 20.5L4.99435 20.5C4.45198 20.5 4 20.0703 4 19.5153L4 15.5226C4 14.9855 4.45198 14.5379 4.99435 14.5379C5.53672 14.5379 5.9887 14.9676 5.9887 15.5226L5.9887 18.5305L18.0113 18.5305L18.0113 15.5226Z" fill="#8491B8"/>
<path d="M10.9966 6.87493L8.12201 9.72169C7.72427 10.0977 7.0915 10.0977 6.71184 9.72169C6.3141 9.34571 6.3141 8.71906 6.71184 8.32517L11.2858 3.79542C11.6655 3.40153 12.2983 3.40153 12.696 3.79542L17.27 8.32517C17.6678 8.70116 17.6678 9.3278 17.27 9.72169C17.0712 9.91864 16.8181 10.0082 16.5649 10.0082C16.3118 10.0082 16.0587 9.91864 15.8599 9.72169L12.9853 6.85703L12.9853 15.4152C12.9853 15.9523 12.5514 16.3999 11.9909 16.3999C11.4486 16.3999 10.9966 15.9702 10.9966 15.4152L10.9966 6.87493Z" fill="#8491B8"/>
</svg>
