<svg width="38" height="38" viewBox="0 0 38 38" fill="none" xmlns="http://www.w3.org/2000/svg">
<path d="M11.2508 27.5305L11.2515 27.5299C13.3459 25.7523 16.0196 24.6402 19 24.6402C21.9805 24.6402 24.654 25.7522 26.7484 27.5299L26.7491 27.5305C27.0264 27.7645 27.1576 28.1281 27.0937 28.4849C27.0299 28.8416 26.7805 29.1372 26.4393 29.2605C26.0987 29.3835 25.7179 29.3154 25.4409 29.0818C23.666 27.5757 21.4834 26.6652 18.9999 26.6652C16.5165 26.6652 14.3339 27.5756 12.5591 29.0818C12.2821 29.3154 11.9013 29.3836 11.5607 29.2605C11.2194 29.1372 10.97 28.8416 10.9062 28.4849C10.8423 28.1281 10.9735 27.7644 11.2508 27.5305Z" fill="#8491B8"/>
<path d="M14 17.75C14 18.7855 13.1605 19.625 12.125 19.625C11.0895 19.625 10.25 18.7855 10.25 17.75C10.25 16.7145 11.0895 15.875 12.125 15.875C13.1605 15.875 14 16.7145 14 17.75Z" fill="#8491B8"/>
<path d="M25.875 19.625C26.9105 19.625 27.75 18.7855 27.75 17.75C27.75 16.7145 26.9105 15.875 25.875 15.875C24.8395 15.875 24 16.7145 24 17.75C24 18.7855 24.8395 19.625 25.875 19.625Z" fill="#8491B8"/>
<path fill-rule="evenodd" clip-rule="evenodd" d="M36.3274 11.369L36.1835 11.52L36.2647 11.7121C37.2139 13.956 37.75 16.4186 37.75 19.0014C37.75 29.3401 29.3395 37.75 19 37.75C8.66049 37.75 0.25 29.3401 0.25 19.0014C0.25 8.66278 8.66049 0.252894 19 0.252894C22.8744 0.252894 26.4743 1.44886 29.4644 3.46855L29.7072 3.63256L29.8903 3.40382C29.988 3.28186 30.0862 3.15998 30.1842 3.0383L30.1855 3.03671L30.1868 3.03505C30.8151 2.25533 31.4369 1.48355 31.8698 0.748118C32.0412 0.458142 32.3456 0.272309 32.6823 0.252292L32.6842 0.252167C32.8712 0.239923 33.0579 0.279725 33.2236 0.367285C33.389 0.454429 33.5274 0.586198 33.6228 0.747631C34.0405 1.4573 34.6403 2.19938 35.2533 2.95785C35.5231 3.29156 35.7954 3.62844 36.0558 3.96713C36.9318 5.1059 37.75 6.32569 37.75 7.84708C37.75 9.20516 37.2026 10.4514 36.3274 11.369ZM31.0397 5.21457C30.6459 5.72632 30.3315 6.20158 30.1145 6.63401C29.8993 7.06287 29.768 7.47256 29.768 7.84716C29.768 9.55919 31.0885 10.8948 32.7466 10.8948C34.4048 10.8948 35.7248 9.55913 35.7248 7.84716C35.7248 7.47254 35.5935 7.06285 35.3783 6.63401C35.1613 6.20157 34.8471 5.72639 34.4535 5.21462C34.2193 4.91025 33.9584 4.58281 33.6886 4.24429C33.4609 3.9585 33.2269 3.66476 32.9972 3.37019L32.7466 3.04896L31.0397 5.21457ZM28.3972 5.5191L28.5359 5.26468L28.2954 5.10312C25.637 3.31787 22.4485 2.27788 19 2.27788C9.74719 2.27788 2.27511 9.74938 2.27511 19.0015C2.27511 28.2537 9.74727 35.7253 19.0001 35.7253C28.2529 35.7253 35.7251 28.2534 35.7251 19.0015C35.7251 16.8403 35.3093 14.7906 34.5669 12.8993L34.4594 12.6254L34.178 12.7116C33.7263 12.8499 33.2468 12.9194 32.7468 12.9194C29.9954 12.9194 27.7431 10.6283 27.7431 7.84716C27.7431 6.98922 28.0093 6.23042 28.3972 5.5191Z" fill="#8491B8"/>
</svg>
