<svg width="15" height="16" viewBox="0 0 15 16" fill="none" xmlns="http://www.w3.org/2000/svg">
<path d="M8.33333 1.33327C8.33333 0.873035 7.96024 0.499939 7.5 0.499939C7.03976 0.499939 6.66667 0.873035 6.66667 1.33327L6.66666 7.1666L0.833333 7.1666C0.373095 7.1666 -1.26139e-06 7.5397 -1.28151e-06 7.99994C-1.30163e-06 8.46017 0.373095 8.83327 0.833333 8.83327L6.66667 8.83327L6.66666 14.6666C6.66666 15.1268 7.03976 15.4999 7.5 15.4999C7.96024 15.4999 8.33333 15.1268 8.33333 14.6666L8.33333 8.83327L14.1667 8.83327C14.6269 8.83327 15 8.46018 15 7.99994C15 7.5397 14.6269 7.1666 14.1667 7.1666L8.33333 7.1666L8.33333 1.33327Z" fill="currentColor"/>
</svg>
