<svg width="124" height="24" viewBox="0 0 124 24" fill="none" xmlns="http://www.w3.org/2000/svg">
<path d="M12 0C18.6274 0 24 5.37258 24 12C24 18.6274 18.6274 24 12 24C5.37258 24 0 18.6274 0 12C0 5.37258 5.37258 0 12 0ZM21.2294 9.12056L21.1681 9.16719L21.0624 9.24201L20.9411 9.31908C20.1214 9.81395 18.5492 10.2909 16.533 10.5945L16.242 10.6366L15.6692 10.7103C15.0473 10.7839 14.3913 10.8409 13.7088 10.8775L13.1921 10.9011L12.819 10.913L12.5377 10.9191L11.9575 10.9242L11.3773 10.9191L11.0029 10.9104L10.6329 10.8976C10.1315 10.8773 9.64314 10.846 9.17067 10.805L8.70361 10.7608L8.09848 10.6925C7.90027 10.668 7.70565 10.6419 7.51487 10.6141L7.23161 10.5714L6.68314 10.4793C4.89627 10.1582 3.5316 9.7011 2.84307 9.2359C2.86327 9.27613 2.8866 9.31431 2.91379 9.35206L2.93329 9.41689L2.98451 9.56722L3.08933 9.83914L3.22367 10.1585L3.38291 10.5159L3.56246 10.9021L3.75772 11.3076L3.9641 11.7232L4.17699 12.1395L4.39179 12.5472L4.60391 12.9368L4.80875 13.2991L4.907 13.4671L5.09229 13.7709L5.23634 13.9913C5.32713 14.1245 5.40679 14.229 5.47147 14.2969L5.5171 14.3408L5.95875 14.7064L6.32285 15.0027L2.56032 16.7963C4.39846 20.1364 7.95371 22.4 12.0381 22.4C15.9776 22.4 19.4248 20.2941 21.3138 17.1476L21.4402 16.9314L17.5979 15.007L18.3823 14.3407L18.4386 14.2858L18.4738 14.2464L18.5524 14.1498L18.6178 14.0627L18.7637 13.854L18.8433 13.734L19.0494 13.409L19.2723 13.0404L19.5062 12.6391L19.7453 12.2156L19.984 11.7808L20.2165 11.3452L20.4372 10.9198L20.6402 10.5151L20.8198 10.1418L20.9704 9.81074L21.057 9.60602L21.1237 9.43221C21.1518 9.35367 21.1716 9.28818 21.1821 9.23794C21.202 9.19949 21.2178 9.16031 21.2294 9.12056ZM114.45 9.87456C114.729 9.87456 115.028 9.90838 115.348 9.97601C115.667 10.0436 115.976 10.1586 116.272 10.3209C116.497 10.4291 116.637 10.5802 116.691 10.7741C116.745 10.9679 116.734 11.1596 116.657 11.3489C116.581 11.5383 116.459 11.6758 116.293 11.7615C116.15 11.8349 115.986 11.8338 115.8 11.7582L115.705 11.7141C115.345 11.5248 114.994 11.4301 114.652 11.4301C114.121 11.4301 113.71 11.5947 113.417 11.9238C113.125 12.2529 112.979 12.7196 112.979 13.3238C112.979 13.9189 113.125 14.3856 113.417 14.7237C113.71 15.0619 114.121 15.231 114.652 15.231C114.814 15.231 114.985 15.2107 115.165 15.1701C115.345 15.1295 115.525 15.0596 115.705 14.9604C115.93 14.8432 116.126 14.8297 116.293 14.9199C116.459 15.01 116.574 15.1475 116.637 15.3324C116.7 15.5173 116.704 15.7089 116.65 15.9073C116.596 16.1057 116.462 16.259 116.246 16.3672C115.94 16.5205 115.634 16.6309 115.328 16.6986C115.022 16.7662 114.729 16.8 114.45 16.8C113.73 16.8 113.102 16.658 112.567 16.3739C112.031 16.0899 111.62 15.6863 111.332 15.1633C111.044 14.6403 110.899 14.0226 110.899 13.3102C110.899 12.5978 111.044 11.9847 111.332 11.4707C111.62 10.9567 112.031 10.5621 112.567 10.2871C113.102 10.0121 113.73 9.87456 114.45 9.87456ZM120.754 9.87456C121.717 9.87456 122.482 10.1789 123.049 10.7876C123.617 11.3963 123.9 12.2191 123.9 13.2561C123.9 13.5702 123.722 13.7404 123.367 13.7666L123.266 13.7701H119.297L119.325 13.9392C119.412 14.376 119.594 14.7007 119.87 14.9131C120.181 15.1521 120.611 15.2715 121.16 15.2715C121.376 15.2715 121.621 15.2467 121.895 15.1971C122.101 15.1599 122.301 15.1012 122.494 15.0209L122.685 14.9334C122.946 14.8071 123.167 14.7823 123.347 14.859C123.527 14.9356 123.65 15.0641 123.718 15.2445C123.785 15.4248 123.785 15.6119 123.718 15.8058C123.65 15.9997 123.5 16.1598 123.266 16.286C122.951 16.4573 122.602 16.5858 122.219 16.6715C121.837 16.7572 121.47 16.8 121.119 16.8C120.336 16.8 119.663 16.658 119.101 16.3739C118.538 16.0899 118.106 15.6886 117.805 15.1701C117.503 14.6516 117.353 14.0406 117.353 13.3373C117.353 12.652 117.499 12.05 117.791 11.5315C118.084 11.013 118.484 10.6072 118.993 10.3142C119.501 10.0211 120.088 9.87456 120.754 9.87456ZM45.3975 9.87456C46.4235 9.87456 47.1885 10.1068 47.6925 10.5712C48.1629 11.0046 48.4138 11.66 48.4451 12.5372L48.4485 12.7286V15.7314L48.4448 15.8575C48.4079 16.4678 48.0941 16.7729 47.5035 16.7729C46.9021 16.7729 46.5837 16.4654 46.5483 15.8504L46.545 15.7314V15.6503L46.4901 15.7788C46.3517 16.0707 46.1428 16.3074 45.8633 16.4889C45.5438 16.6963 45.1545 16.8 44.6955 16.8C44.2005 16.8 43.764 16.7053 43.386 16.5159C43.008 16.3266 42.7088 16.0696 42.4883 15.745C42.2677 15.4203 42.1575 15.0551 42.1575 14.6493C42.1575 14.1714 42.2835 13.7882 42.5355 13.4996C42.7875 13.211 43.197 13.0059 43.764 12.8842C44.2743 12.7746 44.934 12.7143 45.7432 12.7034L46.5045 12.7015V12.4716L46.5003 12.3282C46.4806 12.0062 46.392 11.7722 46.2345 11.6262C46.0545 11.4594 45.7485 11.376 45.3165 11.376C45.0735 11.376 44.808 11.4053 44.52 11.4639C44.2896 11.5108 44.0448 11.5822 43.7856 11.6782L43.5885 11.7547C43.3365 11.8629 43.125 11.8697 42.954 11.775C42.783 11.6803 42.6705 11.536 42.6165 11.3422C42.5625 11.1483 42.5783 10.9522 42.6637 10.7538C42.7492 10.5554 42.918 10.4111 43.17 10.3209C43.593 10.1586 43.9912 10.0436 44.3647 9.97601C44.7383 9.90838 45.0825 9.87456 45.3975 9.87456ZM98.6145 9.87456C99.6405 9.87456 100.406 10.1068 100.91 10.5712C101.38 11.0046 101.631 11.66 101.662 12.5372L101.665 12.7286V15.7314L101.662 15.8575C101.625 16.4678 101.311 16.7729 100.721 16.7729C100.119 16.7729 99.8007 16.4654 99.7653 15.8504L99.762 15.7314V15.6503L99.7071 15.7788C99.5687 16.0707 99.3598 16.3074 99.0802 16.4889C98.7607 16.6963 98.3715 16.8 97.9125 16.8C97.4175 16.8 96.981 16.7053 96.603 16.5159C96.225 16.3266 95.9257 16.0696 95.7052 15.745C95.4847 15.4203 95.3745 15.0551 95.3745 14.6493C95.3745 14.1714 95.5005 13.7882 95.7525 13.4996C96.0045 13.211 96.414 13.0059 96.981 12.8842C97.4913 12.7746 98.151 12.7143 98.9602 12.7034L99.7215 12.7015V12.4716L99.7173 12.3282C99.6976 12.0062 99.609 11.7722 99.4515 11.6262C99.2715 11.4594 98.9655 11.376 98.5335 11.376C98.2905 11.376 98.025 11.4053 97.737 11.4639C97.5066 11.5108 97.2618 11.5822 97.0026 11.6782L96.8055 11.7547C96.5535 11.8629 96.342 11.8697 96.171 11.775C96 11.6803 95.8875 11.536 95.8335 11.3422C95.7795 11.1483 95.7952 10.9522 95.8808 10.7538C95.9663 10.5554 96.135 10.4111 96.387 10.3209C96.81 10.1586 97.2082 10.0436 97.5817 9.97601C97.9552 9.90838 98.2995 9.87456 98.6145 9.87456ZM67.983 9.87456C69.009 9.87456 69.774 10.1068 70.278 10.5712C70.7484 11.0046 70.9993 11.66 71.0306 12.5372L71.034 12.7286V15.7314L71.0303 15.8575C70.9934 16.4678 70.6796 16.7729 70.089 16.7729C69.4876 16.7729 69.1692 16.4654 69.1338 15.8504L69.1305 15.7314V15.6503L69.0755 15.7788C68.9372 16.0707 68.7283 16.3074 68.4487 16.4889C68.1292 16.6963 67.74 16.8 67.281 16.8C66.786 16.8 66.3495 16.7053 65.9715 16.5159C65.5935 16.3266 65.2943 16.0696 65.0738 15.745C64.8533 15.4203 64.743 15.0551 64.743 14.6493C64.743 14.1714 64.869 13.7882 65.121 13.4996C65.373 13.211 65.7825 13.0059 66.3495 12.8842C66.8598 12.7746 67.5195 12.7143 68.3287 12.7034L69.09 12.7015V12.4716L69.0858 12.3282C69.0661 12.0062 68.9775 11.7722 68.82 11.6262C68.64 11.4594 68.334 11.376 67.902 11.376C67.659 11.376 67.3935 11.4053 67.1055 11.4639C66.8751 11.5108 66.6303 11.5822 66.3711 11.6782L66.174 11.7547C65.922 11.8629 65.7105 11.8697 65.5395 11.775C65.3685 11.6803 65.256 11.536 65.202 11.3422C65.148 11.1483 65.1637 10.9522 65.2492 10.7538C65.3347 10.5554 65.5035 10.4111 65.7555 10.3209C66.1785 10.1586 66.5768 10.0436 66.9502 9.97601C67.3237 9.90838 67.668 9.87456 67.983 9.87456ZM82.212 7.11521L82.3181 7.11882C82.7964 7.15248 83.0355 7.4218 83.0355 7.92678C83.0355 8.44018 82.7964 8.71399 82.3181 8.74822L82.212 8.75188H78.594V11.0784H81.915L82.0229 11.082C82.509 11.1157 82.752 11.385 82.752 11.89C82.752 12.4034 82.509 12.6772 82.0229 12.7114L81.915 12.7151H78.594V15.6638L78.5905 15.7904C78.5526 16.4454 78.2118 16.7729 77.568 16.7729C77.226 16.7729 76.9627 16.6783 76.7782 16.4889C76.6168 16.3232 76.526 16.0919 76.5058 15.795L76.5015 15.6638V8.21083L76.5053 8.08573C76.5431 7.47915 76.8647 7.15691 77.4701 7.119L77.595 7.11521H82.212ZM39.66 6.99347C40.3207 6.99347 40.6705 7.31298 40.7094 7.95201L40.713 8.07557V15.6908L40.7088 15.8158C40.6891 16.0988 40.6005 16.3232 40.443 16.4889C40.263 16.6783 40.002 16.7729 39.66 16.7729C39.327 16.7729 39.0705 16.6783 38.8905 16.4889C38.733 16.3232 38.6444 16.0988 38.6247 15.8158L38.6205 15.6908V12.688H34.1925V15.6908L34.1889 15.8144C34.1505 16.4534 33.8052 16.7729 33.153 16.7729C32.811 16.7729 32.55 16.6783 32.37 16.4889C32.2125 16.3232 32.1239 16.0988 32.1042 15.8158L32.1 15.6908V8.07557L32.1036 7.95201C32.1425 7.31298 32.4923 6.99347 33.153 6.99347C33.8052 6.99347 34.1505 7.31298 34.1889 7.95201L34.1925 8.07557V10.9431H38.6205V8.07557L38.6241 7.95201C38.6625 7.31298 39.0078 6.99347 39.66 6.99347ZM51 6.99347C51.6353 6.99347 51.9716 7.301 52.009 7.91607L52.0125 8.03499V12.7557H52.0395L54.1136 10.4494C54.2663 10.2871 54.4074 10.1609 54.537 10.0707C54.699 9.95797 54.924 9.90162 55.212 9.90162C55.491 9.90162 55.707 9.9715 55.86 10.1113C56.013 10.251 56.0895 10.4269 56.0895 10.6388C56.0895 10.8204 56.0234 10.9971 55.8911 11.1688L55.8195 11.2542L54.0915 13.1885L56.049 15.4474L56.1164 15.5397C56.2392 15.7236 56.291 15.9024 56.2717 16.0763C56.2492 16.2792 56.157 16.4461 55.995 16.5768C55.833 16.7076 55.626 16.7729 55.374 16.7729C55.059 16.7729 54.8137 16.7143 54.6382 16.5971C54.4978 16.5033 54.3503 16.3691 54.1954 16.1946L54.078 16.0561L52.0395 13.7836H52.0125V15.7314L52.009 15.8504C51.9716 16.4654 51.6353 16.7729 51 16.7729C50.3562 16.7729 50.0154 16.4654 49.9776 15.8504L49.974 15.7314V8.03499L49.9776 7.91607C50.0154 7.301 50.3562 6.99347 51 6.99347ZM107.362 9.87456C108.145 9.87456 108.73 10.1023 109.118 10.5576C109.475 10.978 109.667 11.6077 109.695 12.4468L109.698 12.661V15.7314L109.694 15.8504C109.657 16.4654 109.316 16.7729 108.672 16.7729C108.348 16.7729 108.098 16.6828 107.923 16.5024C107.769 16.3446 107.683 16.1281 107.664 15.853L107.66 15.7314V12.7557L107.656 12.6071C107.639 12.2237 107.555 11.9418 107.403 11.7615C107.232 11.5586 106.98 11.4571 106.647 11.4571C106.215 11.4571 105.871 11.5924 105.614 11.8629C105.386 12.1034 105.26 12.4151 105.234 12.7981L105.229 12.945V15.7314L105.226 15.8504C105.189 16.4654 104.852 16.7729 104.217 16.7729C103.573 16.7729 103.232 16.4654 103.195 15.8504L103.191 15.7314V10.9296L103.194 10.8122C103.231 10.2052 103.563 9.90162 104.19 9.90162C104.817 9.90162 105.149 10.2052 105.186 10.8122L105.189 10.9296V10.9837L105.277 10.8525C105.491 10.5556 105.763 10.3243 106.093 10.1586C106.471 9.96925 106.894 9.87456 107.362 9.87456ZM58.533 6.99347C59.1683 6.99347 59.5046 7.301 59.542 7.91607L59.5455 8.03499V12.7557H59.5725L61.6466 10.4494C61.7993 10.2871 61.9404 10.1609 62.07 10.0707C62.232 9.95797 62.457 9.90162 62.745 9.90162C63.024 9.90162 63.24 9.9715 63.393 10.1113C63.546 10.251 63.6225 10.4269 63.6225 10.6388C63.6225 10.8204 63.5564 10.9971 63.4241 11.1688L63.3525 11.2542L61.6245 13.1885L63.582 15.4474L63.6494 15.5397C63.7722 15.7236 63.824 15.9024 63.8047 16.0763C63.7822 16.2792 63.69 16.4461 63.528 16.5768C63.366 16.7076 63.159 16.7729 62.907 16.7729C62.592 16.7729 62.3467 16.7143 62.1712 16.5971C62.0308 16.5033 61.8833 16.3691 61.7285 16.1946L61.611 16.0561L59.5725 13.7836H59.5455V15.7314L59.542 15.8504C59.5046 16.4654 59.1683 16.7729 58.533 16.7729C57.8892 16.7729 57.5484 16.4654 57.5106 15.8504L57.507 15.7314V8.03499L57.5106 7.91607C57.5484 7.301 57.8892 6.99347 58.533 6.99347ZM91.8105 9.87456C92.5935 9.87456 93.1785 10.1023 93.5655 10.5576C93.9227 10.978 94.1151 11.6077 94.1426 12.4468L94.146 12.661V15.7314L94.1425 15.8504C94.1046 16.4654 93.7638 16.7729 93.12 16.7729C92.796 16.7729 92.5462 16.6828 92.3708 16.5024C92.2172 16.3446 92.1308 16.1281 92.1116 15.853L92.1075 15.7314V12.7557L92.1043 12.6071C92.0874 12.2237 92.003 11.9418 91.851 11.7615C91.68 11.5586 91.428 11.4571 91.095 11.4571C90.663 11.4571 90.3187 11.5924 90.0622 11.8629C89.8343 12.1034 89.7076 12.4151 89.6823 12.7981L89.6775 12.945V15.7314L89.674 15.8504C89.6366 16.4654 89.3003 16.7729 88.665 16.7729C88.0212 16.7729 87.6804 16.4654 87.6425 15.8504L87.639 15.7314V10.9296L87.6425 10.8122C87.6793 10.2052 88.0112 9.90162 88.638 9.90162C89.2648 9.90162 89.5967 10.2052 89.6335 10.8122L89.637 10.9296V10.9837L89.725 10.8525C89.9386 10.5556 90.2108 10.3243 90.5415 10.1586C90.9195 9.96925 91.3425 9.87456 91.8105 9.87456ZM85.047 9.90162C85.371 9.90162 85.6207 9.99855 85.7962 10.1924C85.9498 10.3621 86.0362 10.5956 86.0554 10.8929L86.0595 11.0243V15.6503L86.0555 15.7785C86.0368 16.0689 85.9526 16.299 85.803 16.4686C85.632 16.6625 85.38 16.7594 85.047 16.7594C84.714 16.7594 84.4597 16.6625 84.2842 16.4686C84.1307 16.299 84.0443 16.0689 84.0251 15.7785L84.021 15.6503V11.0243L84.0246 10.8961C84.0624 10.2331 84.4032 9.90162 85.047 9.90162ZM6.95957 11.6408C7.38051 12.5003 8.22432 13.1312 9.23754 13.2945L9.40793 13.3174L9.5581 13.3299L9.71612 13.3144L9.88964 13.289C10.6873 13.1518 11.3718 12.7459 11.8327 12.1619L11.9351 12.024L12.0295 11.8777L12.0782 11.9591L12.1682 12.0925C12.6049 12.7023 13.2773 13.1329 14.0474 13.2826L14.2138 13.3104L14.3796 13.3289L14.5348 13.3172C15.6051 13.2135 16.5009 12.6375 16.9934 11.8154L17.0717 11.6762L16.8538 12.4653L16.73 12.845C16.6024 13.2185 16.4632 13.5751 16.3081 13.9289L16.1475 14.2823L15.7525 15.0598L15.7007 15.1471C15.6634 15.2028 15.6207 15.2534 15.5727 15.2989L15.497 15.3634L15.1872 15.5941L14.9693 15.734C14.4557 16.0477 13.9053 16.2733 13.283 16.4427L13.0119 16.5119L12.2219 16.6671L12.0769 16.6812H11.964L11.8188 16.6671L11.0516 16.5167L10.7731 16.4459C10.1361 16.2733 9.58585 16.048 9.08655 15.7443L8.87558 15.6093L8.55086 15.3686L8.46948 15.2992C8.41874 15.2512 8.37501 15.2 8.33806 15.1446L8.28771 15.0582L7.9026 14.301L7.73759 13.9386C7.5791 13.5782 7.43964 13.2219 7.31425 12.8561L7.19337 12.4867L6.95957 11.6408ZM46.5045 14.0271V13.7566L45.8302 13.7584C45.2429 13.7694 44.8197 13.8296 44.5605 13.9392C44.2725 14.0609 44.1285 14.2706 44.1285 14.5682C44.1285 14.8207 44.2163 15.0281 44.3918 15.1904C44.5672 15.3527 44.8215 15.4338 45.1545 15.4338C45.5325 15.4338 45.852 15.3031 46.113 15.0416C46.345 14.8091 46.4739 14.5161 46.4997 14.1625L46.5045 14.0271ZM99.7215 14.0271V13.7566L99.0472 13.7584C98.4599 13.7694 98.0367 13.8296 97.7775 13.9392C97.4895 14.0609 97.3455 14.2706 97.3455 14.5682C97.3455 14.8207 97.4333 15.0281 97.6088 15.1904C97.7843 15.3527 98.0385 15.4338 98.3715 15.4338C98.7495 15.4338 99.069 15.3031 99.33 15.0416C99.562 14.8091 99.6909 14.5161 99.7167 14.1625L99.7215 14.0271ZM69.09 14.0271V13.7566L68.4157 13.7584C67.8284 13.7694 67.4052 13.8296 67.146 13.9392C66.858 14.0609 66.714 14.2706 66.714 14.5682C66.714 14.8207 66.8018 15.0281 66.9772 15.1904C67.1527 15.3527 67.407 15.4338 67.74 15.4338C68.118 15.4338 68.4375 15.3031 68.6985 15.0416C68.9305 14.8091 69.0594 14.5161 69.0852 14.1625L69.09 14.0271ZM120.835 11.2272C120.403 11.2272 120.055 11.3579 119.789 11.6194C119.557 11.8483 119.402 12.1565 119.325 12.5441L119.297 12.7151H122.212C122.158 11.7232 121.699 11.2272 120.835 11.2272ZM12.0156 2.4C11.5304 2.4 10.9317 2.67156 10.1479 3.20834L9.97707 3.32742L9.61778 3.58988C9.65158 3.4652 9.65025 3.37157 9.63422 3.28547L9.61976 3.22194L9.57204 3.06098C9.55571 3.00413 9.54061 2.94219 9.53174 2.86939C8.81564 2.72625 7.80475 3.44539 7.51389 3.97051C7.37923 4.21362 7.30914 4.4271 7.25964 4.63132L7.23206 4.7529L7.17338 5.04147C7.15329 5.13796 7.13106 5.23551 7.10181 5.33636C7.04769 5.24016 7.01227 5.11341 6.98041 4.96442L6.95695 4.84864L6.90834 4.59515C6.82949 4.19535 6.71115 3.71444 6.38082 3.24696C6.2566 3.10852 5.96726 3.0528 5.71139 3.0328L5.60436 3.02628L5.41648 3.02308L5.28668 3.0275L5.24244 3.03268L5.16934 3.13032L5.10871 3.22237L5.07303 3.28263C4.90356 3.58123 4.70476 4.11959 4.9827 4.74535C5.21611 5.03758 5.87865 5.6808 6.22222 5.82772L6.08978 5.81263L5.95795 5.79078L5.68908 5.73788C5.4132 5.68441 5.10929 5.64037 4.71399 5.70583C4.38236 5.75244 3.9001 5.99829 3.63871 6.29686C3.80625 6.40605 3.86995 6.53899 4.00769 6.68422C3.14337 7.02185 2.74617 7.4026 2.74617 7.87432C2.74617 7.9756 2.76967 8.07467 2.81531 8.1713C3.95941 8.98789 6.96439 9.78107 10.6726 9.93414L11.0016 9.94597L11.3772 9.95522L11.9593 9.96063L12.5414 9.95522L12.8236 9.9487L13.1754 9.93698C16.7964 9.7958 19.757 9.04347 20.9868 8.25001L21.0938 8.17778L21.1999 8.09848L21.2615 8.04819L21.2792 7.96195L21.2851 7.87432C21.2851 7.47604 20.9625 7.16874 20.3125 6.8842L20.1682 6.82355L19.9998 6.75783L19.8089 6.68841L19.4882 6.58138L19.2455 6.50619L18.9461 6.41813L18.4217 6.27183L17.3008 5.97562L15.7412 4.65555L15.156 4.17289L14.9515 4.00871C13.6104 2.94052 12.7028 2.4 12.0156 2.4ZM85.047 6.75C85.821 6.75 86.208 7.09267 86.208 7.778C86.208 8.45431 85.821 8.79246 85.047 8.79246C84.669 8.79246 84.3787 8.70454 84.1762 8.5287C83.9737 8.35286 83.8725 8.10262 83.8725 7.778C83.8725 7.44435 83.9737 7.1896 84.1762 7.01376C84.3787 6.83792 84.669 6.75 85.047 6.75Z" fill="#3EBD93"/>
</svg>
