<svg width="96" height="96" viewBox="0 0 96 96" fill="none" xmlns="http://www.w3.org/2000/svg">
<path d="M73.8233 65.8225L73.8232 65.8226L73.8284 65.8324C74.7666 67.6322 74.726 69.8521 73.6805 71.6754L73.6731 71.6883L73.666 71.7013C72.6877 73.4888 70.949 74.5 69.0324 74.5H26.9152C24.9986 74.5 23.2599 73.4888 22.2816 71.7013C21.2802 69.8717 21.2335 67.6958 22.1853 65.8185C22.1854 65.8182 22.1856 65.8178 22.1858 65.8175L43.2087 24.5201C43.2096 24.5185 43.2104 24.5169 43.2112 24.5153C44.2121 22.5888 45.9593 21.5 47.9443 21.5C49.9299 21.5 51.6774 22.5893 52.6782 24.5167C52.6788 24.5178 52.6793 24.519 52.6799 24.5201L73.8233 65.8225ZM44.2742 37.2909L44.2325 37.3394L44.1951 37.3912C43.4278 38.4543 42.9326 39.8195 43.0948 41.3753L43.0958 41.3849L43.097 41.3945L44.8641 56.4617L45.0922 58.4066L45.1846 58.3697C43.8653 59.3104 43.0278 60.8997 43.0278 62.6278C43.0278 65.3737 45.1423 67.7691 47.9443 67.7691C50.7754 67.7691 52.9312 65.4007 52.8608 62.6057C52.8531 60.7496 51.8798 59.0565 50.3824 58.159L50.8643 58.3302L51.0835 56.4617L52.8506 41.3945L52.8608 41.3074V41.2197V41.2186V41.2175V41.2164V41.2153V41.2142V41.2131V41.212V41.2109V41.2099V41.2088V41.2077V41.2066V41.2055V41.2044V41.2033V41.2023V41.2012V41.2001V41.199V41.1979V41.1969V41.1958V41.1947V41.1936V41.1926V41.1915V41.1904V41.1894V41.1883V41.1872V41.1862V41.1851V41.1841V41.183V41.1819V41.1809V41.1798V41.1788V41.1777V41.1767V41.1756V41.1746V41.1735V41.1725V41.1714V41.1704V41.1694V41.1683V41.1673V41.1662V41.1652V41.1642V41.1631V41.1621V41.1611V41.16V41.159V41.158V41.1569V41.1559V41.1549V41.1538V41.1528V41.1518V41.1508V41.1498V41.1487V41.1477V41.1467V41.1457V41.1447V41.1437V41.1426V41.1416V41.1406V41.1396V41.1386V41.1376V41.1366V41.1356V41.1346V41.1336V41.1325V41.1315V41.1305V41.1295V41.1285V41.1275V41.1265V41.1255V41.1246V41.1236V41.1226V41.1216V41.1206V41.1196V41.1186V41.1176V41.1166V41.1156V41.1146V41.1136V41.1127V41.1117V41.1107V41.1097V41.1087V41.1077V41.1068V41.1058V41.1048V41.1038V41.1029V41.1019V41.1009V41.0999V41.099V41.098V41.097V41.096V41.0951V41.0941V41.0931V41.0922V41.0912V41.0902V41.0893V41.0883V41.0873V41.0864V41.0854V41.0844V41.0835V41.0825V41.0815V41.0806V41.0796V41.0787V41.0777V41.0767V41.0758V41.0748V41.0739V41.0729V41.072V41.071V41.0701V41.0691V41.0682V41.0672V41.0663V41.0653V41.0644V41.0634V41.0625V41.0615V41.0606V41.0596V41.0587V41.0577V41.0568V41.0558V41.0549V41.0539V41.053V41.0521V41.0511V41.0502V41.0492V41.0483V41.0474V41.0464V41.0455V41.0445V41.0436V41.0427V41.0417V41.0408V41.0398V41.0389V41.038V41.037V41.0361V41.0352V41.0342V41.0333V41.0324V41.0314V41.0305V41.0296V41.0286V41.0277V41.0268V41.0258V41.0249V41.024V41.0231V41.0221V41.0212V41.0203V41.0193V41.0184V41.0175V41.0166V41.0156V41.0147V41.0138V41.0129V41.0119V41.011V41.0101V41.0092V41.0082V41.0073V41.0064V41.0055V41.0045V41.0036V41.0027V41.0018V41.0008V40.9999V40.999V40.9981V40.9971V40.9962V40.9953V40.9944V40.9935V40.9925V40.9916V40.9907V40.9898V40.9889V40.9879V40.987V40.9861V40.9852V40.9842V40.9833V40.9824V40.9815V40.9806V40.9796V40.9787V40.9778V40.9769V40.976V40.975V40.9741V40.9732V40.9723V40.9714V40.9704V40.9695V40.9686V40.9677V40.9668V40.9659V40.9649V40.964V40.9631V40.9622V40.9613V40.9603V40.9594V40.9585V40.9576V40.9567V40.9557V40.9548V40.9539V40.953V40.9521V40.9511V40.9502V40.9493V40.9484V40.9474V40.9465V40.9456V40.9447V40.9438V40.9428V40.9419V40.941V40.9401V40.9391V40.9382V40.9373V40.9364V40.9355V40.9345V40.9336V40.9327V40.9318V40.9308V40.9299V40.929V40.9281V40.9271V40.9262V40.9253V40.9244V40.9234V40.9225V40.9216V40.9207V40.9197V40.9188V40.9179V40.9169V40.916V40.9151V40.9142V40.9132V40.9123V40.9114V40.9104V40.9095V40.9086V40.9076V40.9067V40.9058V40.9048V40.9039V40.903V40.902V40.9011V40.9002V40.8992V40.8983V40.8974V40.8964V40.8955V40.8946V40.8936V40.8927V40.8917V40.8908V40.8899V40.8889V40.888V40.887V40.8861V40.8852V40.8842V40.8833V40.8823V40.8814V40.8804V40.8795V40.8786V40.8776V40.8767V40.8757V40.8748V40.8738V40.8729V40.8719V40.871V40.87V40.8691V40.8681V40.8672V40.8662V40.8653V40.8643V40.8633V40.8624V40.8614V40.8605V40.8595V40.8586V40.8576V40.8566V40.8557V40.8547V40.8538V40.8528V40.8518V40.8509V40.8499V40.8489V40.848V40.847V40.846V40.8451V40.8441V40.8431V40.8422V40.8412V40.8402V40.8392V40.8383V40.8373V40.8363V40.8353V40.8344V40.8334V40.8324V40.8314V40.8305V40.8295V40.8285V40.8275V40.8265V40.8255V40.8246V40.8236V40.8226V40.8216V40.8206V40.8196V40.8186V40.8176V40.8166V40.8157V40.8147V40.8137V40.8127V40.8117V40.8107V40.8097V40.8087V40.8077V40.8067V40.8057V40.8047V40.8037V40.8027V40.8017V40.8006V40.7996V40.7986V40.7976V40.7966V40.7956V40.7946V40.7936V40.7926V40.7915V40.7905V40.7895V40.7885V40.7875V40.7864V40.7854V40.7844V40.7834V40.7823V40.7813V40.7803V40.7793V40.7782V40.7772V40.7762V40.7751V40.7741V40.7731V40.772V40.771V40.7699V40.7689V40.7679V40.7668V40.7658V40.7647V40.7637V40.7626V40.7616V40.7605V40.7595V40.7584V40.7574V40.7563V40.7553V40.7542V40.7532V40.7521V40.751V40.75V40.7489V40.7478V40.7468V40.7457V40.7446V40.7436V40.7425V40.7414V40.7404V40.7393V40.7382V40.7371V40.736V40.735V40.7339V40.7328V40.7317V40.7306V40.7295V40.7285V40.7274V40.7263V40.7252V40.7241V40.723V40.7219V40.7208V40.7197V40.7186V40.7175C52.8608 37.9716 50.7463 35.5762 47.9443 35.5762C46.5456 35.5762 45.1943 36.2212 44.2742 37.2909Z" stroke="#CD334D" stroke-width="3"/>
</svg>
