<svg width="1em" height="1em" viewBox="0 0 18 18" fill="none" xmlns="http://www.w3.org/2000/svg">
<path d="M15.528 2.57933C15.528 2.08341 15.9311 1.67605 16.4219 1.67605C16.9127 1.67605 17.3159 2.0657 17.3334 2.56162V5.99763C17.3334 6.49355 16.9303 6.90091 16.4395 6.90091H13.0389C12.5481 6.90091 12.145 6.49355 12.145 5.99763C12.145 5.50171 12.5306 5.11206 13.0214 5.11206H14.2835L13.5823 4.40361C11.0407 1.81774 6.88642 1.81774 4.34478 4.40361C3.03015 5.73196 2.329 7.57395 2.43418 9.46906C2.46923 9.96498 2.10113 10.3901 1.61034 10.4255H1.55775C1.10201 10.4255 0.716381 10.0535 0.681324 9.57533C0.541096 7.1843 1.41752 4.82868 3.10026 3.12839C4.6603 1.55207 6.76372 0.666504 8.97231 0.666504C11.1809 0.666504 13.2668 1.55207 14.8268 3.1461L15.528 3.85455V2.57933Z" fill="currentColor"/>
<path d="M9.81368 8.38901L11.8996 8.97349C12.3728 9.09747 12.6533 9.59339 12.5131 10.0893C12.3904 10.479 12.0398 10.7446 11.6542 10.7446C11.5793 10.7446 11.5173 10.7317 11.4461 10.7169L11.4088 10.7092L8.67432 9.9299C8.2887 9.82364 8.02577 9.46941 8.02577 9.06205V5.28952C8.02577 4.7936 8.42892 4.38624 8.91972 4.38624C9.41052 4.38624 9.81368 4.7936 9.81368 5.28952V8.38901Z" fill="currentColor"/>
<path d="M6.88641 15.4024C6.46572 15.2607 6.06257 15.0836 5.67694 14.8533C5.29132 14.6231 4.80052 14.7648 4.59018 15.1544C4.36231 15.5441 4.50254 16.04 4.88816 16.2525C5.36143 16.5359 5.86976 16.7661 6.39561 16.9256C6.48325 16.961 6.57089 16.961 6.64101 16.961C6.97405 16.961 7.28956 16.7484 7.39473 16.4119C7.51743 16.0046 7.30709 15.5441 6.88641 15.4024Z" fill="currentColor"/>
<path d="M1.97843 11.7019C2.36406 11.5071 2.85486 11.6488 3.04767 12.0561C3.25801 12.4635 3.48588 12.8355 3.76634 13.172C4.02927 13.5262 3.97668 14.0221 3.62611 14.3055C3.48588 14.4295 3.3106 14.4826 3.13531 14.4826C2.88991 14.4826 2.66204 14.3763 2.50429 14.1815C2.17125 13.7564 1.87326 13.2782 1.62786 12.7823C1.41752 12.3927 1.59281 11.8967 1.97843 11.7019Z" fill="currentColor"/>
<path d="M13.9329 13.489C13.8452 13.5953 13.7401 13.7015 13.6524 13.7901C13.4246 14.0203 13.1967 14.2152 12.9513 14.41C12.6007 14.6756 12.5306 15.1893 12.7935 15.5435C12.9513 15.756 13.1967 15.8623 13.4246 15.8623C13.5998 15.8623 13.7576 15.8092 13.8978 15.7029C14.1958 15.4727 14.4763 15.2247 14.7567 14.9413C14.8794 14.8173 15.0021 14.6933 15.1073 14.5694C15.4053 14.2329 15.3702 13.7192 15.0372 13.4358C14.7217 13.117 14.2133 13.1525 13.9329 13.489Z" fill="currentColor"/>
<path d="M9.37548 15.7214C9.81369 15.7037 10.2694 15.6329 10.6901 15.5089C11.1108 15.4026 11.5315 15.6506 11.6542 16.0757C11.7769 16.5007 11.514 16.9435 11.0933 17.0675C10.5674 17.2092 10.0065 17.2977 9.46312 17.3332H9.41053C9.00738 17.3332 8.63928 16.9967 8.62175 16.5716C8.60422 16.1288 8.93726 15.7569 9.37548 15.7214Z" fill="currentColor"/>
</svg>
