<svg width="60" height="60" viewBox="0 0 60 60" fill="none" xmlns="http://www.w3.org/2000/svg">
<rect width="60" height="60" fill="#131833"/>
<path d="M6 42.497C6 35.2807 11.9098 29.4307 19.2 29.4307H40.8C48.0902 29.4307 54 35.2807 54 42.497V48.4363C54 50.4044 52.3882 51.9998 50.4 51.9998H9.6C7.61177 51.9998 6 50.4044 6 48.4363V42.497Z" fill="#FABA4B"/>
<path d="M6 42.497C6 35.2807 11.9504 29.4307 19.2906 29.4307H26.1913C20.2266 29.4307 15.3913 34.217 15.3913 40.1213V48.4363C15.3913 50.4044 17.0031 51.9998 18.9913 51.9998H9.62471C7.62284 51.9998 6 50.4044 6 48.4363V42.497Z" fill="url(#paint0_linear_1519_11976)"/>
<path d="M33.7346 29.4307H30V51.9998H40.984C42.9859 51.9998 44.6087 50.4044 44.6087 48.4363V40.1213C44.6087 34.217 39.7402 29.4307 33.7346 29.4307Z" fill="#F29C24"/>
<path opacity="0.3" d="M53.3691 38.5076C52.0489 39.8678 50.1869 40.7152 48.1235 40.7152H11.8764C9.81306 40.7152 7.95105 39.8678 6.63086 38.5076C8.34613 33.2424 13.3656 29.4307 19.2906 29.4307H40.7094C46.6344 29.4307 51.6538 33.2424 53.3691 38.5076Z" fill="#0F1C4D"/>
<path d="M32.25 22.254C35.5637 22.254 38.25 19.5949 38.25 16.3147C38.25 13.0346 35.5637 10.3755 32.25 10.3755C28.9363 10.3755 26.25 13.0346 26.25 16.3147C26.25 19.5949 28.9363 22.254 32.25 22.254Z" fill="url(#paint1_linear_1519_11976)"/>
<path d="M36.25 13.9393C36.25 16.0957 34.4784 17.8785 32.25 17.8785C30.0216 17.8785 28.25 16.0957 28.25 13.9393C28.25 11.7828 30.0216 10 32.25 10C34.4784 10 36.25 11.7828 36.25 13.9393Z" fill="#FABA4B" stroke="#FABA4B" stroke-width="4"/>
<path d="M19.75 34.1324C23.0637 34.1324 25.75 31.4733 25.75 28.1932C25.75 24.913 23.0637 22.2539 19.75 22.2539C16.4363 22.2539 13.75 24.913 13.75 28.1932C13.75 31.4733 16.4363 34.1324 19.75 34.1324Z" fill="url(#paint2_linear_1519_11976)"/>
<path d="M23.75 25.8177C23.75 27.9741 21.9784 29.7569 19.75 29.7569C17.5216 29.7569 15.75 27.9741 15.75 25.8177C15.75 23.6612 17.5216 21.8784 19.75 21.8784C21.9784 21.8784 23.75 23.6612 23.75 25.8177Z" fill="#FABA4B" stroke="#FABA4B" stroke-width="4"/>
<path d="M41 37.3995C44.3137 37.3995 47 34.7404 47 31.4603C47 28.1801 44.3137 25.521 41 25.521C37.6863 25.521 35 28.1801 35 31.4603C35 34.7404 37.6863 37.3995 41 37.3995Z" fill="url(#paint3_linear_1519_11976)"/>
<path d="M45 29.0843C45 31.2407 43.2284 33.0235 41 33.0235C38.7716 33.0235 37 31.2407 37 29.0843C37 26.9278 38.7716 25.145 41 25.145C43.2284 25.145 45 26.9278 45 29.0843Z" fill="#FABA4B" stroke="#FABA4B" stroke-width="4"/>
<defs>
<linearGradient id="paint0_linear_1519_11976" x1="20.7" y1="51.9998" x2="-6.59061" y2="21.4334" gradientUnits="userSpaceOnUse">
<stop stop-color="#F29C24"/>
<stop offset="1" stop-color="#478CFF"/>
</linearGradient>
<linearGradient id="paint1_linear_1519_11976" x1="26.25" y1="13.2037" x2="33.4147" y2="17.2679" gradientUnits="userSpaceOnUse">
<stop stop-color="#478CFF"/>
<stop offset="1" stop-color="#F29C24"/>
</linearGradient>
<linearGradient id="paint2_linear_1519_11976" x1="13.75" y1="25.0821" x2="20.9147" y2="29.1463" gradientUnits="userSpaceOnUse">
<stop stop-color="#478CFF"/>
<stop offset="1" stop-color="#F29C24"/>
</linearGradient>
<linearGradient id="paint3_linear_1519_11976" x1="35" y1="28.3492" x2="42.1647" y2="32.4134" gradientUnits="userSpaceOnUse">
<stop stop-color="#478CFF"/>
<stop offset="1" stop-color="#F29C24"/>
</linearGradient>
</defs>
</svg>
