<svg width="40" height="40" viewBox="0 0 40 40" fill="none" xmlns="http://www.w3.org/2000/svg">
<path d="M0 8C0 3.58172 3.58172 0 8 0H32C36.4183 0 40 3.58172 40 8V32C40 36.4183 36.4183 40 32 40H8C3.58172 40 0 36.4183 0 32V8Z" fill="#00D395" fill-opacity="0.1"/>
<path fill-rule="evenodd" clip-rule="evenodd" d="M14.6152 24.3022C14.2336 24.0675 14 23.6508 14 23.202V20.6966C14 20.3991 14.2412 20.1581 14.5373 20.1594C14.6318 20.1594 14.725 20.185 14.8066 20.2324L20.4339 23.529C20.7632 23.7213 20.9662 24.0752 20.9662 24.4586V27.0538C20.9675 27.4102 20.6803 27.7 20.3255 27.7C20.2068 27.7 20.0893 27.6667 19.9885 27.6051L14.6152 24.3022ZM23.0032 19.5465C23.3325 19.7388 23.5341 20.094 23.5354 20.4761V25.7433C23.5354 25.8985 23.4525 26.0421 23.3172 26.1178L22.0855 26.814C22.0702 26.823 22.0536 26.8294 22.0357 26.8345V23.9098C22.0357 23.5316 21.8379 23.1802 21.5137 22.9853L16.5718 20.0158V16.7141C16.5718 16.4166 16.813 16.1756 17.1091 16.1768C17.2036 16.1768 17.2967 16.2025 17.3784 16.2499L23.0032 19.5465ZM25.4665 15.6563C25.7971 15.8486 26 16.2038 26 16.5872V24.2804C25.9987 24.4381 25.9119 24.583 25.7741 24.6586L24.6063 25.292V19.9363C24.6063 19.558 24.4084 19.208 24.0868 19.0131L19.0351 15.9691V12.838C19.0351 12.7431 19.0606 12.6495 19.1066 12.5675C19.2559 12.311 19.5839 12.2238 19.8392 12.3726L25.4665 15.6563Z" fill="#00D395"/>
</svg>
