<svg width="346" height="346" viewBox="0 0 346 346" fill="none" xmlns="http://www.w3.org/2000/svg">
<rect width="346" height="346" fill="#0E101F"/>
<path d="M67.97 48.9399L67.97 140.71" stroke="#243259" stroke-linecap="round"/>
<path d="M38.5601 48.9399L38.5601 161.71" stroke="#243259" stroke-linecap="round"/>
<line x1="97.3801" y1="48.9399" x2="97.3801" y2="130.98" stroke="#243259" stroke-linecap="round"/>
<path d="M128.885 49.3049L128.885 149.645" stroke="#243259" stroke-linecap="round"/>
<path d="M158.295 49.3049L158.295 96.8799" stroke="#243259" stroke-linecap="round"/>
<line x1="187.34" y1="48.9399" x2="187.34" y2="60.0499" stroke="#243259" stroke-linecap="round"/>
<line x1="189.067" y1="221.943" x2="188.641" y2="290.142" stroke="#243259" stroke-linecap="round"/>
<line x1="157.93" y1="279.03" x2="157.93" y2="290.14" stroke="#243259" stroke-linecap="round"/>
<line x1="218.48" y1="227.13" x2="218.48" y2="290.14" stroke="#243259" stroke-linecap="round"/>
<line x1="249.62" y1="230.59" x2="249.62" y2="290.14" stroke="#243259" stroke-linecap="round"/>
<line x1="279.03" y1="228.86" x2="279.03" y2="290.14" stroke="#243259" stroke-linecap="round"/>
<path d="M171.935 213.664C165.208 238.619 153.395 270.465 135.486 280.805L135.482 280.807C116.507 291.19 93.4262 290.762 74.7032 279.685C55.9805 268.602 44.3675 248.5 44.1292 226.747C43.8861 204.993 55.0505 184.787 73.5257 173.538L73.5272 173.54C102.227 156.971 171.514 182.047 174.444 183.121C195.593 191.407 226.764 196.75 226.764 196.75C226.764 196.75 190.808 194.655 180.453 202.985C174.883 207.465 171.935 213.664 171.935 213.664Z" fill="url(#paint0_angular_1740_16719)"/>
<path d="M176.085 152.332C182.812 127.377 194.625 95.5311 212.534 85.1911L212.537 85.1892C231.513 74.8065 254.594 75.2339 273.317 86.3116C292.039 97.3939 303.652 117.496 303.891 139.249C304.134 161.003 292.969 181.209 274.494 192.459L274.493 192.456C245.793 209.026 176.506 183.949 173.576 182.876C152.426 174.589 121.256 169.246 121.256 169.246C121.256 169.246 157.212 171.341 167.566 163.012C173.136 158.531 176.085 152.332 176.085 152.332Z" fill="url(#paint1_angular_1740_16719)"/>
<path d="M171.933 213.662L171.935 213.664C165.207 238.619 153.395 270.465 135.486 280.805L135.482 280.807C116.506 291.19 93.4261 290.762 74.7032 279.685C55.9805 268.602 44.3675 248.5 44.1292 226.747C43.886 204.993 55.0504 184.787 73.5256 173.538L73.5271 173.54C102.227 156.971 171.513 182.047 174.444 183.121" stroke="#6BA2FF" stroke-width="2" stroke-linecap="round"/>
<path d="M176.164 152.332C182.891 127.377 194.704 95.5312 212.613 85.1911L212.616 85.1892C231.592 74.8065 254.672 75.234 273.395 86.3116C292.118 97.3939 303.731 117.496 303.969 139.249C304.213 161.003 293.048 181.209 274.573 192.459L274.572 192.456C245.872 209.026 176.585 183.949 173.655 182.876M176.164 152.332L176.165 152.335M176.164 152.332L169.766 130.847M176.164 152.332L195.593 137.972" stroke="#6BA2FF" stroke-width="2" stroke-linecap="round"/>
<ellipse cx="290.64" cy="176.46" rx="13.84" ry="13.84" fill="url(#paint2_linear_1740_16719)"/>
<ellipse cx="290.64" cy="169.54" rx="13.84" ry="13.84" fill="#6BA2FF"/>
<ellipse cx="44.9799" cy="238.74" rx="13.84" ry="13.84" fill="url(#paint3_linear_1740_16719)"/>
<ellipse cx="44.9799" cy="231.82" rx="13.84" ry="13.84" fill="#6BA2FF"/>
<path d="M142.602 123.92L117.777 75.4256C116.325 72.625 113.697 70.9299 110.654 70.9299C107.612 70.9299 104.984 72.625 103.532 75.4256L78.8453 123.92C77.4623 126.647 77.5315 129.816 78.9836 132.469C80.4358 135.122 83.0635 136.67 85.9678 136.67H135.41C138.315 136.67 140.942 135.122 142.395 132.469C143.916 129.816 143.985 126.573 142.602 123.92Z" fill="url(#paint4_linear_1740_16719)"/>
<path fill-rule="evenodd" clip-rule="evenodd" d="M107.681 92.3764C108.442 91.492 109.548 90.9761 110.655 90.9761C112.867 90.9761 114.665 92.8923 114.665 95.2506V95.8402L112.591 113.528C111.968 113.307 111.346 113.233 110.655 113.233C110.032 113.233 109.341 113.307 108.787 113.528L106.713 95.8402C106.575 94.5137 106.99 93.3345 107.681 92.3764ZM110.655 125.246C108.442 125.246 106.644 123.33 106.644 120.972C106.644 118.613 108.442 116.697 110.655 116.697C112.867 116.697 114.665 118.613 114.665 120.972C114.734 123.33 112.936 125.246 110.655 125.246Z" fill="#0F1C4D"/>
<defs>
<radialGradient id="paint0_angular_1740_16719" cx="0" cy="0" r="1" gradientUnits="userSpaceOnUse" gradientTransform="translate(171.548 213.672) rotate(-23.5523) scale(75.7782 73.994)">
<stop offset="0.359351" stop-color="#0F1C4D"/>
<stop offset="0.688877" stop-color="#478CFF"/>
<stop offset="0.998524" stop-color="#0E101F"/>
</radialGradient>
<radialGradient id="paint1_angular_1740_16719" cx="0" cy="0" r="1" gradientUnits="userSpaceOnUse" gradientTransform="translate(176.472 152.325) rotate(156.448) scale(75.7782 73.994)">
<stop offset="0.480769" stop-color="#0F1C4D"/>
<stop offset="0.644378" stop-color="#478CFF"/>
<stop offset="0.998524" stop-color="#0E101F"/>
</radialGradient>
<linearGradient id="paint2_linear_1740_16719" x1="290.64" y1="162.62" x2="290.64" y2="190.3" gradientUnits="userSpaceOnUse">
<stop stop-color="#0F1C4D"/>
<stop offset="1" stop-color="#478CFF"/>
</linearGradient>
<linearGradient id="paint3_linear_1740_16719" x1="44.9799" y1="224.9" x2="44.9799" y2="252.58" gradientUnits="userSpaceOnUse">
<stop stop-color="#0F1C4D"/>
<stop offset="1" stop-color="#478CFF"/>
</linearGradient>
<linearGradient id="paint4_linear_1740_16719" x1="120.235" y1="82.1749" x2="88.2299" y2="144.455" gradientUnits="userSpaceOnUse">
<stop stop-color="#F29C24"/>
<stop offset="0.245738" stop-color="#FABA4B"/>
<stop offset="1" stop-color="#478CFF"/>
</linearGradient>
</defs>
</svg>
