<svg width="24" height="24" viewBox="0 0 24 24" fill="none" xmlns="http://www.w3.org/2000/svg">
<path d="M4.21268 10.9783C9.59896 8.60871 16.5692 5.71971 17.5314 5.31985C20.0552 4.27328 20.8297 4.47385 20.4435 6.79157C20.1662 8.45742 19.3661 13.9727 18.7284 17.4056C18.35 19.4413 17.501 19.6826 16.166 18.8019C15.524 18.378 12.2835 16.2351 11.5802 15.732C10.9382 15.2734 10.0528 14.7219 11.1632 13.6354C11.5584 13.2484 14.1487 10.7751 16.1668 8.84999C16.4312 8.59714 16.0991 8.18185 15.794 8.38456C13.0738 10.1884 9.30239 12.6921 8.82239 13.0183C8.09725 13.5107 7.40082 13.7366 6.15068 13.3774C5.20611 13.1061 4.28339 12.7826 3.92425 12.6591C2.54125 12.1843 2.86953 11.5693 4.21268 10.9783Z" fill="currentColor"/>
</svg>
