<svg width="24" height="24" viewBox="0 0 24 24" fill="none" xmlns="http://www.w3.org/2000/svg">
<path d="M7.22585 5.82001C10.6368 5.82001 13.4017 8.58678 13.4017 11.9995C13.4017 15.4123 10.6366 18.1789 7.22585 18.1789C3.81511 18.1789 1.0498 15.4123 1.0498 11.9995C1.0498 8.58678 3.8149 5.82001 7.22585 5.82001ZM17.0886 6.18199C18.794 6.18199 20.1766 8.78633 20.1766 11.9995C20.1768 15.2119 18.7942 17.8171 17.0888 17.8171C15.3833 17.8171 14.0007 15.2119 14.0007 11.9995C14.0007 8.78717 15.3831 6.18199 17.0886 6.18199ZM21.8619 6.78793C22.4616 6.78793 22.948 9.12121 22.948 11.9995C22.948 14.877 22.4618 17.2111 21.8619 17.2111C21.262 17.2111 20.7761 14.8777 20.7761 11.9995C20.7761 9.12141 21.2622 6.78793 21.8619 6.78793Z" fill="currentColor"/>
</svg>
