<svg width="96" height="96" viewBox="0 0 96 96" fill="none" xmlns="http://www.w3.org/2000/svg">
<path d="M47.9698 59.993V63.4507H44.9499V60.0039C43.8698 59.8354 42.815 59.5313 41.8105 59.0985C40.8469 58.6991 39.9495 58.1548 39.1491 57.4842L40.7785 54.2119C41.6386 54.9673 42.6191 55.572 43.6789 56.0008C44.6106 56.4188 45.6139 56.6522 46.6337 56.688C47.1515 56.7174 47.6671 56.6002 48.1219 56.3498C48.2945 56.2422 48.4356 56.0907 48.531 55.9106C48.6264 55.7305 48.6726 55.5283 48.6651 55.3245C48.6672 55.1502 48.6324 54.9775 48.5631 54.8176C48.4939 54.6578 48.3916 54.5146 48.2631 54.3974C47.9621 54.1392 47.6158 53.9394 47.242 53.8084C46.8401 53.6666 46.2643 53.492 45.5257 53.2848C44.5925 53.0411 43.6777 52.7313 42.7882 52.3577C42.0631 52.039 41.4285 51.5442 40.9415 50.9179C40.3997 50.1814 40.1273 49.28 40.1702 48.3655C40.1461 47.7606 40.2476 47.1573 40.4683 46.5939C40.6889 46.0306 41.024 45.5195 41.452 45.0932C42.4034 44.1638 43.6322 43.5737 44.9499 43.4134V40.1412H47.9698V43.4134C48.9094 43.5305 49.8342 43.7462 50.729 44.057C51.5506 44.3281 52.338 44.6942 53.0754 45.1477L51.4894 48.5291C50.6162 48.0147 49.6913 47.5942 48.7302 47.2747C47.9406 46.9915 47.1129 46.8297 46.2752 46.7948C45.8477 46.7729 45.4227 46.8712 45.0477 47.0784C44.9027 47.1662 44.7839 47.2914 44.7036 47.4411C44.6234 47.5908 44.5846 47.7593 44.5914 47.9292C44.5892 48.0961 44.6231 48.2614 44.6906 48.414C44.7581 48.5665 44.8577 48.7025 44.9825 48.8127C45.2646 49.0662 45.5929 49.2626 45.9493 49.3908C46.3404 49.5435 46.9053 49.7289 47.6548 49.958C48.601 50.223 49.5299 50.5472 50.4357 50.9288C51.1746 51.2649 51.8199 51.778 52.315 52.4231C52.8376 53.1835 53.0936 54.0967 53.0429 55.0191C53.0671 55.6484 52.9553 56.2755 52.7153 56.8573C52.4753 57.4391 52.1127 57.9618 51.6524 58.3895C50.615 59.2862 49.3308 59.8454 47.9698 59.993Z" fill="#8491B8"/>
<path fill-rule="evenodd" clip-rule="evenodd" d="M63.9385 51.8122C63.9406 48.2716 62.897 44.8098 60.9395 41.8649C58.982 38.9199 56.1987 36.624 52.9416 35.2676C49.6845 33.9111 46.0999 33.5551 42.6412 34.2445C39.1825 34.934 36.0052 36.6378 33.5111 39.1407C31.0169 41.6435 29.3181 44.8328 28.6294 48.3053C27.9407 51.7777 28.293 55.3772 29.6419 58.6485C30.9909 61.9198 33.2757 64.716 36.2074 66.6833C39.1392 68.6506 42.5861 69.7006 46.1123 69.7006C50.8373 69.6977 55.3681 67.8125 58.7103 64.4587C62.0524 61.1049 63.9327 56.5566 63.9385 51.8122ZM30.4695 51.8122C30.4674 48.7026 31.3839 45.6622 33.1031 43.0757C34.8223 40.4893 37.267 38.473 40.1277 37.282C42.9885 36.091 46.1368 35.7788 49.1743 36.3849C52.2118 36.9911 55.002 38.4883 57.1919 40.6871C59.3817 42.8859 60.8728 45.6876 61.4765 48.7376C62.0801 51.7875 61.7692 54.9488 60.5831 57.8213C59.397 60.6938 57.3889 63.1484 54.813 64.8747C52.2371 66.601 49.2092 67.5212 46.1123 67.5191C41.9653 67.5133 37.9899 65.8566 35.0575 62.9123C32.1252 59.9679 30.4753 55.9761 30.4695 51.8122Z" fill="#8491B8"/>
<path fill-rule="evenodd" clip-rule="evenodd" d="M83.8175 66.2975C83.6461 65.9201 83.3711 65.5997 83.0248 65.3736C82.6785 65.1476 82.2752 65.0254 81.8622 65.0213H76.6588V24.3251C76.6588 23.7466 76.4299 23.1917 76.0225 22.7826C75.615 22.3735 75.0624 22.1436 74.4862 22.1436H57.7463C57.1701 22.1436 56.6175 22.3735 56.21 22.7826C55.8026 23.1917 55.5737 23.7466 55.5737 24.3251V29.9971C52.3439 28.572 48.8377 27.8902 45.3116 28.0015C41.7855 28.1129 38.3288 29.0146 35.1947 30.6406V10.9088C35.1947 10.3302 34.9658 9.77536 34.5583 9.36625C34.1509 8.95713 33.5983 8.72729 33.0221 8.72729H19.8452C19.269 8.72729 18.7164 8.95713 18.3089 9.36625C17.9015 9.77536 17.6726 10.3302 17.6726 10.9088V37.087H14.1313C13.7207 37.0948 13.3208 37.2194 12.9778 37.4461C12.6349 37.6728 12.3629 37.9925 12.1935 38.3681C12.0241 38.7437 11.9642 39.1598 12.0207 39.5682C12.0771 39.9766 12.2477 40.3606 12.5127 40.6756L22.398 51.9758C22.4186 55.7638 23.3388 59.4921 25.0824 62.8513C26.826 66.2104 29.3425 69.1034 32.4231 71.29C35.5036 73.4765 39.0593 74.8936 42.7947 75.4234C46.5301 75.9532 50.3376 75.5806 53.9008 74.3364L64.5682 86.531C64.7706 86.7624 65.0195 86.948 65.2985 87.0759C65.5774 87.2037 65.8802 87.2708 66.1868 87.2728C66.4935 87.2708 66.7962 87.2037 67.0752 87.0759C67.3542 86.948 67.6031 86.7624 67.8054 86.531L83.4264 68.6099C83.7115 68.3061 83.9007 67.9245 83.9703 67.5131C84.0398 67.1016 83.9867 66.6787 83.8175 66.2975ZM18.7806 39.2685C19.0687 39.2685 19.345 39.1536 19.5488 38.949C19.7525 38.7445 19.8669 38.467 19.8669 38.1777V10.9088H33.0872V31.9059L32.9677 31.9932L32.4789 32.3313C28.2269 35.3163 25.0732 39.6253 23.506 44.5914L23.4409 44.7986C23.3648 45.0495 23.2888 45.3004 23.2236 45.5513L23.0933 46.0748L22.9629 46.6202C22.9086 46.8711 22.8543 47.1329 22.8108 47.3837C22.7845 47.5358 22.7701 47.5957 22.758 47.646C22.7502 47.6787 22.7433 47.7074 22.7348 47.7546C22.6805 48.0927 22.637 48.42 22.5936 48.7472V48.8672L14.1313 39.2685H18.7806ZM24.5598 51.8122C24.5598 51.1687 24.5598 50.536 24.6575 49.9034L24.7227 49.2598C24.7987 48.6708 24.8748 48.0818 24.9943 47.5146V47.3728C25.1246 46.7511 25.2767 46.1403 25.4614 45.5295C25.4614 45.4832 25.4813 45.433 25.5018 45.3812C25.5152 45.3475 25.5289 45.313 25.5374 45.2786C26.9971 40.686 29.9357 36.7108 33.8911 33.9783L34.2496 33.7384C37.789 31.3846 41.9433 30.1357 46.1887 30.1493C50.434 30.1629 54.5803 31.4383 58.1048 33.8147L58.2025 33.8802C62.1901 36.6083 65.1598 40.5918 66.6431 45.2022C66.677 45.2988 66.706 45.3971 66.73 45.4967C66.9309 46.1345 67.0977 46.7826 67.2297 47.4383C67.3601 48.06 67.4469 48.7036 67.523 49.358V49.7943C67.5882 50.4488 67.6316 51.1141 67.6316 51.7904C67.6316 52.4667 67.6316 53.1102 67.523 53.7647C67.523 53.9937 67.523 54.2119 67.447 54.4409C67.4039 54.5708 67.3747 54.8092 67.3437 55.0629C67.32 55.2567 67.2952 55.4598 67.2623 55.6299C67.2303 55.7948 67.208 55.9251 67.188 56.0418C67.1603 56.2029 67.1371 56.338 67.0993 56.5025C67.0342 56.7861 66.9581 57.0588 66.8821 57.3315C66.5511 58.6203 66.1039 59.8763 65.5459 61.0837L65.4047 61.3673C65.1983 61.7926 64.9702 62.218 64.7312 62.6325C64.7087 62.6835 64.6795 62.7312 64.6443 62.7743C63.913 64.0248 63.0577 65.1979 62.0915 66.2757C61.9611 66.4284 61.8308 66.5811 61.6896 66.7229C61.6511 66.7614 61.5967 66.817 61.5324 66.8824L61.531 66.8838C61.3592 67.0589 61.1184 67.3043 60.9291 67.4864L60.2774 68.0754L59.593 68.6753C59.2019 68.9807 58.8 69.2862 58.3981 69.5698L57.8766 69.9188C57.453 70.2024 57.0185 70.4642 56.5622 70.7151C56.4224 70.8008 56.2771 70.8755 56.1301 70.9509L56.129 70.9515C56.0708 70.9814 56.0123 71.0114 55.9539 71.0423C55.7475 71.1513 55.2369 71.4022 54.8676 71.5658L54.1398 71.8822C50.8704 73.2054 47.3275 73.7025 43.8222 73.3296C40.3169 72.9568 36.9563 71.7254 34.0356 69.7438C31.115 67.7621 28.7235 65.0907 27.0713 61.9642C25.4191 58.8377 24.5567 55.3516 24.5598 51.8122ZM66.1651 85.0803L81.7576 67.2028H75.6051C75.317 67.2028 75.0407 67.0879 74.8369 66.8833C74.6332 66.6788 74.5188 66.4013 74.5188 66.1121V24.4233H57.8223V31.1533L58.6045 31.6441C62.1224 33.8209 65.0103 36.8861 66.9798 40.5338C67.4692 41.4602 67.9044 42.4144 68.2834 43.3916C68.3051 43.457 68.3214 43.4979 68.3431 43.5523C68.3648 43.6069 68.392 43.6751 68.4355 43.7952C68.4788 43.9149 68.5195 44.0373 68.5601 44.1597C68.6009 44.2824 68.6419 44.406 68.6853 44.526L68.8809 45.1586C68.9048 45.2549 68.9267 45.3257 68.9511 45.4048C68.982 45.5048 69.017 45.6181 69.0655 45.8131C69.0828 45.8822 69.1004 45.9522 69.1182 46.0228C69.1903 46.309 69.2653 46.6064 69.3263 46.9038L69.424 47.4601C69.4423 47.5551 69.4641 47.6502 69.4859 47.7455C69.5417 47.9892 69.5978 48.2345 69.5978 48.4854L69.663 49.0199C69.7608 49.3253 69.7608 49.6307 69.7608 49.947V53.8301C69.4641 57.4499 68.3466 60.9536 66.4939 64.073C64.6412 67.1925 62.1023 69.845 59.0716 71.8276L58.8978 71.9476C58.4632 72.2203 58.0396 72.4821 57.5942 72.7329H57.5182C57.051 72.9947 56.5839 73.2347 56.0951 73.4638H56.0082L66.1651 85.0803Z" fill="#8491B8"/>
</svg>
