<svg width="36" height="36" viewBox="0 0 36 36" fill="none" xmlns="http://www.w3.org/2000/svg">
<path fill-rule="evenodd" clip-rule="evenodd" d="M11.5 24V36L18 32.9791L24.5 36V24C19.6733 24 15.8601 24 11.5 24Z" fill="url(#paint0_linear_3289_20199)"/>
<path d="M30.5605 11.0316L32.9083 13.3863C34.3639 14.8461 34.3639 17.2008 32.9083 18.6137L30.5605 20.9684V24.8772C30.5605 26.902 28.8701 28.5505 26.8512 28.5505H22.9539L20.6061 30.9051C19.1973 32.365 16.8495 32.365 15.3939 30.9051L13.0462 28.5505H9.14881C7.08308 28.5505 5.43946 26.902 5.43946 24.8772V20.9684L3.09166 18.6137C1.63611 17.1539 1.63611 14.8461 3.09166 13.3863L5.43946 11.0316V7.12285C5.43946 5.09799 7.12987 3.44955 9.14881 3.44955H13.0462L15.3939 1.09486C16.8027 -0.364955 19.1505 -0.364955 20.6061 1.09486L22.9539 3.44955H26.8512C28.9169 3.44955 30.5605 5.09799 30.5605 7.12285V11.0316Z" fill="url(#paint1_linear_3289_20199)"/>
<path fill-rule="evenodd" clip-rule="evenodd" d="M27.737 12.2046V7.12285C27.737 6.68534 27.3809 6.28136 26.8512 6.28136H21.7843L18.6095 3.09726C18.2383 2.72491 17.7042 2.77274 17.4228 3.06429L17.4068 3.0809L14.2157 6.28136H9.14881C8.64253 6.28136 8.26299 6.70842 8.26299 7.12285V12.2046L5.0882 15.3887C4.73531 15.7426 4.73531 16.2574 5.0882 16.6113L8.26299 19.7954V24.8772C8.26299 25.3147 8.61905 25.7186 9.14881 25.7186H14.2157L17.3905 28.9027C17.7617 29.2751 18.2958 29.2273 18.5772 28.9357L18.5932 28.9191L21.7843 25.7186H26.8512C27.3575 25.7186 27.737 25.2916 27.737 24.8772V19.7954L30.9281 16.595L30.9447 16.5789C31.2354 16.2967 31.2831 15.761 30.9118 15.3887L27.737 12.2046ZM20.6061 30.9051L22.9539 28.5505H26.8512C28.8701 28.5505 30.5605 26.902 30.5605 24.8772V20.9684L32.9083 18.6137C34.3639 17.2008 34.3639 14.8461 32.9083 13.3863L30.5605 11.0316V7.12285C30.5605 5.09799 28.9169 3.44955 26.8512 3.44955H22.9539L20.6061 1.09486C19.1505 -0.364955 16.8027 -0.364955 15.3939 1.09486L13.0462 3.44955H9.14881C7.12987 3.44955 5.43946 5.09799 5.43946 7.12285V11.0316L3.09166 13.3863C1.63611 14.8461 1.63611 17.1539 3.09166 18.6137L5.43946 20.9684V24.8772C5.43946 26.902 7.08308 28.5505 9.14881 28.5505H13.0462L15.3939 30.9051C16.8495 32.365 19.1973 32.365 20.6061 30.9051Z" fill="#DB9341"/>
<defs>
<linearGradient id="paint0_linear_3289_20199" x1="17.9967" y1="24" x2="16.3136" y2="35.7591" gradientUnits="userSpaceOnUse">
<stop stop-color="#478CFF"/>
<stop offset="1" stop-color="#B87121"/>
</linearGradient>
<linearGradient id="paint1_linear_3289_20199" x1="2" y1="0" x2="17.9598" y2="16.04" gradientUnits="userSpaceOnUse">
<stop offset="0.00520833" stop-color="#478CFF"/>
<stop offset="1" stop-color="#B87121"/>
</linearGradient>
</defs>
</svg>
