<svg width="346" height="346" viewBox="0 0 346 346" fill="none" xmlns="http://www.w3.org/2000/svg">
<rect width="346" height="346" fill="#0E101F"/>
<line x1="67.5374" y1="47.21" x2="67.5373" y2="288.41" stroke="#243259" stroke-linecap="round"/>
<line x1="97.8125" y1="47.21" x2="97.8125" y2="288.41" stroke="#243259" stroke-linecap="round"/>
<line x1="128.087" y1="47.21" x2="128.087" y2="288.41" stroke="#243259" stroke-linecap="round"/>
<line x1="158.362" y1="47.21" x2="158.362" y2="288.41" stroke="#243259" stroke-linecap="round"/>
<line x1="188.637" y1="47.21" x2="188.637" y2="288.41" stroke="#243259" stroke-linecap="round"/>
<line x1="218.912" y1="47.21" x2="218.912" y2="288.41" stroke="#243259" stroke-linecap="round"/>
<line x1="249.187" y1="47.21" x2="249.188" y2="288.41" stroke="#243259" stroke-linecap="round"/>
<line x1="279.462" y1="47.21" x2="279.462" y2="288.41" stroke="#243259" stroke-linecap="round"/>
<line x1="52.3999" y1="273.272" x2="293.6" y2="273.272" stroke="#243259" stroke-linecap="round"/>
<line x1="52.3999" y1="242.997" x2="293.6" y2="242.997" stroke="#243259" stroke-linecap="round"/>
<line x1="52.3999" y1="212.722" x2="293.6" y2="212.722" stroke="#243259" stroke-linecap="round"/>
<line x1="52.3999" y1="182.447" x2="293.6" y2="182.447" stroke="#243259" stroke-linecap="round"/>
<line x1="52.3999" y1="152.172" x2="293.6" y2="152.172" stroke="#243259" stroke-linecap="round"/>
<line x1="52.3999" y1="121.897" x2="293.6" y2="121.897" stroke="#243259" stroke-linecap="round"/>
<line x1="52.3999" y1="91.6224" x2="293.6" y2="91.6224" stroke="#243259" stroke-linecap="round"/>
<line x1="52.3999" y1="61.3474" x2="293.6" y2="61.3474" stroke="#243259" stroke-linecap="round"/>
<path fill-rule="evenodd" clip-rule="evenodd" d="M77.8499 160.89H25.95C26.2597 162.544 26.6099 164.519 26.9944 166.688C27.7436 170.914 28.623 175.875 29.5874 180.626C31.7106 189.968 33.5331 197.813 35.0487 204.168C36.8692 211.64 38.6897 217.247 40.8151 221.358C43.5458 226.962 46.2764 230.326 49.6145 231.447C50.222 231.82 51.1323 231.82 52.0425 231.82C54.4705 231.82 57.8089 230.699 61.147 225.468C63.2723 222.106 65.0927 217.247 67.2158 210.523C68.5533 206.406 69.7274 201.278 71.0982 195.291C71.5932 193.129 72.1138 190.856 72.6771 188.477C72.8609 187.572 73.0491 186.651 73.2413 185.71C74.6358 178.884 76.2358 171.053 77.8357 161.2C77.8357 161.102 77.8409 160.998 77.8499 160.89Z" fill="url(#paint0_linear_1740_16750)"/>
<path fill-rule="evenodd" clip-rule="evenodd" d="M180.058 157.696C180.625 158.529 181.151 159.718 181.65 160.89H77.8499C78.2599 157.583 78.8465 153.985 79.4332 150.386L79.882 147.519C80.7198 142.906 81.4946 138.292 82.2634 133.714C83.1913 128.188 84.1106 122.713 85.1219 117.352C86.971 106.795 88.8201 97.7433 90.3618 90.2024C91.019 87.5597 91.6191 85.0569 92.1882 82.6834C93.4865 77.2687 94.6235 72.5267 95.9092 68.3317C97.7585 61.9213 99.9173 56.6426 101.766 52.8707C104.54 47.9681 107.314 44.9511 110.397 43.8201C112.556 43.0652 116.871 42.3129 121.494 46.8371C123.96 49.0989 126.117 52.4948 128.276 57.0189C128.765 58.2166 129.285 59.4522 129.836 60.762C131.021 63.5769 132.35 66.7345 133.823 70.5938C135.672 75.4965 137.521 81.152 139.063 86.0548L139.988 88.6956C140.758 90.7695 141.452 92.9375 142.145 95.1055C142.839 97.2735 143.532 99.4417 144.303 101.516C145.21 103.896 146.009 106.076 146.745 108.083C147.757 110.846 148.65 113.283 149.543 115.467C151.084 119.615 152.934 123.384 154.475 126.401C156.015 129.418 157.556 132.059 159.098 134.321L163.721 139.976C164.492 140.73 165.34 141.484 166.187 142.238C167.035 142.993 167.883 143.747 168.653 144.5C169.388 145.399 170.263 146.212 171.179 147.063C172.182 147.996 173.234 148.973 174.201 150.155C176.36 152.417 178.209 155.056 180.058 157.696Z" fill="url(#paint1_linear_1740_16750)"/>
<path fill-rule="evenodd" clip-rule="evenodd" d="M181.65 160.89H268.15L267.481 164.866C267.162 166.764 266.842 168.661 266.523 170.559L264.315 184.79C263.842 188.16 263.291 191.53 262.739 194.9C262.187 198.27 261.635 201.64 261.162 205.01C260.435 209.454 259.777 213.572 259.164 217.405L259.156 217.457L259.151 217.485L259.143 217.537L259.143 217.539L259.142 217.542C257.905 225.278 256.855 231.849 255.804 237.588C253.913 248.822 252.022 257.811 250.446 265.3C248.555 273.912 246.664 280.654 244.773 285.896C242.566 292.265 240.361 296.382 237.839 299.004C235.317 301.627 232.796 302.75 230.274 302.75C228.383 302.75 226.492 302 224.916 300.877C222.079 299.007 219.557 295.635 217.035 290.019C215.145 285.899 213.254 280.281 211.363 273.541C210.373 270.014 209.383 266.042 208.237 261.441C207.559 258.718 206.826 255.774 206.005 252.572C205.059 248.828 204.193 244.896 203.326 240.964C202.459 237.032 201.592 233.1 200.647 229.355L200.332 228.232C199.544 224.675 198.678 221.025 197.811 217.375C196.944 213.723 196.077 210.071 195.289 206.513C193.818 200.107 192.348 194.608 191.026 189.661C190.647 188.246 190.281 186.876 189.93 185.543C188.345 179.89 186.759 175.028 185.359 170.734C185.09 169.908 184.827 169.102 184.572 168.316C184.069 166.97 183.616 165.864 183.173 164.782C182.672 163.557 182.183 162.363 181.65 160.89Z" fill="url(#paint2_linear_1740_16750)"/>
<path fill-rule="evenodd" clip-rule="evenodd" d="M316.887 143.236C317.93 149.387 319.116 155.906 320.05 160.89H268.15C268.432 158.924 268.689 157.169 269.06 155.268C270.809 144.052 272.558 134.636 274.038 126.671L274.206 125.764C276.022 116.446 277.838 109.069 279.654 103.247C281.774 96.2601 283.892 91.9893 286.314 88.8832C290.25 84.2226 295.092 83.4481 299.028 86.9415C301.754 89.2729 303.872 93.1539 306.294 99.3661C308.109 104.026 309.925 110.236 311.741 118.39C313.255 124.989 315.071 133.143 316.887 143.236Z" fill="url(#paint3_linear_1740_16750)"/>
<path d="M25.95 160.89C26.2596 162.544 26.6097 164.518 26.994 166.686L26.9944 166.688C27.7436 170.914 28.623 175.875 29.5874 180.626C31.7106 189.968 33.5331 197.813 35.0487 204.168C36.8692 211.64 38.6897 217.247 40.8151 221.358C43.5458 226.962 46.2764 230.326 49.6145 231.447C50.222 231.82 51.1323 231.82 52.0425 231.82C54.4705 231.82 57.8089 230.699 61.147 225.468C63.2723 222.106 65.0927 217.247 67.2158 210.523C68.5532 206.406 69.7273 201.278 71.0981 195.292C71.593 193.13 72.1138 190.856 72.6771 188.477C72.8606 187.573 73.0486 186.653 73.2405 185.714L73.2413 185.71C74.6358 178.884 76.2358 171.053 77.8357 161.2C77.8357 161.102 77.8409 160.998 77.85 160.89C78.26 157.583 78.8466 153.985 79.4333 150.386L79.882 147.519C80.7199 142.906 81.4947 138.292 82.2635 133.714L82.264 133.711L82.2643 133.709C83.192 128.185 84.111 122.712 85.122 117.352C86.9711 106.795 88.8202 97.7433 90.3619 90.2024C91.0191 87.5597 91.6192 85.0569 92.1883 82.6834C93.4866 77.2687 94.6236 72.5267 95.9093 68.3317C97.7586 61.9213 99.9174 56.6426 101.767 52.8707C104.54 47.9681 107.314 44.9511 110.397 43.8201C112.556 43.0652 116.872 42.3129 121.494 46.8371C123.96 49.0989 126.117 52.4948 128.276 57.0189C128.764 58.216 129.284 59.451 129.835 60.7601L129.836 60.762C131.021 63.5769 132.35 66.7345 133.823 70.5938C135.672 75.4966 137.521 81.152 139.063 86.0548L139.988 88.6956C140.758 90.7692 141.452 92.9368 142.145 95.1044L142.145 95.1061C142.839 97.274 143.532 99.4419 144.303 101.516C145.211 103.896 146.009 106.076 146.745 108.083L146.745 108.085C147.758 110.847 148.65 113.283 149.543 115.467C151.085 119.615 152.934 123.384 154.475 126.401C156.015 129.418 157.556 132.059 159.098 134.321L163.721 139.976C164.492 140.73 165.34 141.485 166.187 142.238C167.035 142.993 167.883 143.747 168.653 144.5C169.388 145.399 170.263 146.212 171.179 147.063C172.182 147.996 173.234 148.973 174.201 150.155C176.36 152.417 178.209 155.056 180.058 157.696C180.625 158.529 181.151 159.718 181.65 160.89C182.183 162.363 182.672 163.557 183.173 164.781C183.616 165.863 184.07 166.97 184.572 168.316C184.827 169.102 185.09 169.908 185.359 170.734C186.759 175.028 188.345 179.89 189.93 185.543C190.281 186.874 190.647 188.243 191.024 189.656L191.026 189.661C192.348 194.608 193.818 200.107 195.289 206.513C196.077 210.07 196.944 213.721 197.81 217.372L197.811 217.375C198.678 221.025 199.544 224.675 200.332 228.232L200.647 229.355C201.592 233.1 202.459 237.032 203.326 240.964C204.193 244.895 205.06 248.828 206.005 252.572C206.826 255.774 207.559 258.718 208.237 261.441C209.383 266.042 210.373 270.014 211.363 273.541C213.254 280.281 215.145 285.899 217.036 290.019C219.557 295.635 222.079 299.007 224.916 300.877C226.492 302 228.383 302.75 230.274 302.75C232.796 302.75 235.317 301.627 237.839 299.004C240.361 296.382 242.566 292.265 244.774 285.896C246.664 280.654 248.555 273.912 250.446 265.3C252.022 257.811 253.913 248.822 255.804 237.588C256.855 231.849 257.905 225.278 259.142 217.542L259.143 217.539L259.143 217.537L259.151 217.485L259.168 217.378C259.78 213.553 260.437 209.443 261.162 205.01C261.635 201.64 262.187 198.27 262.739 194.9C263.291 191.53 263.843 188.16 264.315 184.79L266.523 170.559C266.842 168.661 267.162 166.764 267.481 164.866L268.15 160.89C268.433 158.924 268.689 157.169 269.06 155.268C270.809 144.052 272.559 134.636 274.038 126.671L274.206 125.764C276.022 116.446 277.838 109.069 279.654 103.247C281.774 96.2601 283.892 91.9893 286.314 88.8832C290.25 84.2226 295.092 83.4481 299.028 86.9415C301.754 89.2729 303.872 93.1538 306.294 99.366C308.109 104.026 309.925 110.236 311.741 118.39C313.255 124.989 315.071 133.143 316.887 143.236C317.93 149.387 319.116 155.906 320.05 160.89" stroke="#6BA2FF" stroke-width="2" stroke-linecap="round"/>
<path d="M227.232 129.75C240.94 129.75 252.053 118.637 252.053 104.928C252.053 91.2196 240.94 80.1066 227.232 80.1066C213.523 80.1066 202.41 91.2196 202.41 104.928C202.41 118.637 213.523 129.75 227.232 129.75Z" fill="url(#paint4_linear_1740_16750)"/>
<path d="M227.232 120.574C240.94 120.574 252.053 109.46 252.053 95.7518C252.053 82.0431 240.94 70.9301 227.232 70.9301C213.523 70.9301 202.41 82.0431 202.41 95.7518C202.41 109.46 213.523 120.574 227.232 120.574Z" fill="url(#paint5_linear_1740_16750)"/>
<defs>
<linearGradient id="paint0_linear_1740_16750" x1="51.9" y1="160.89" x2="51.9" y2="231.82" gradientUnits="userSpaceOnUse">
<stop stop-color="#0F1C4D"/>
<stop offset="1" stop-color="#478CFF"/>
</linearGradient>
<linearGradient id="paint1_linear_1740_16750" x1="129.75" y1="43.25" x2="129.75" y2="160.89" gradientUnits="userSpaceOnUse">
<stop stop-color="#478CFF"/>
<stop offset="1" stop-color="#0F1C4D"/>
</linearGradient>
<linearGradient id="paint2_linear_1740_16750" x1="224.9" y1="160.89" x2="224.9" y2="302.75" gradientUnits="userSpaceOnUse">
<stop stop-color="#0F1C4D"/>
<stop offset="0.567708" stop-color="#478CFF"/>
<stop offset="1" stop-color="#F29C24"/>
</linearGradient>
<linearGradient id="paint3_linear_1740_16750" x1="294.1" y1="84.77" x2="294.1" y2="160.89" gradientUnits="userSpaceOnUse">
<stop stop-color="#478CFF"/>
<stop offset="1" stop-color="#0F1C4D"/>
</linearGradient>
<linearGradient id="paint4_linear_1740_16750" x1="202.41" y1="91.9264" x2="263.825" y2="140.13" gradientUnits="userSpaceOnUse">
<stop stop-color="#478CFF"/>
<stop offset="1" stop-color="#F29C24"/>
</linearGradient>
<linearGradient id="paint5_linear_1740_16750" x1="226.63" y1="95.15" x2="244.795" y2="77.85" gradientUnits="userSpaceOnUse">
<stop stop-color="#FABA4B"/>
<stop offset="1" stop-color="#F29C24"/>
</linearGradient>
</defs>
</svg>
