<svg width="24" height="24" viewBox="0 0 24 24" fill="none" xmlns="http://www.w3.org/2000/svg">
<path d="M20.5716 12C20.5716 15.84 18.0516 19.0886 14.5716 20.1772V18C14.5716 17.2672 14.263 16.6114 13.7744 16.14C16.0201 15.7329 17.143 14.4257 17.143 12C17.143 10.95 16.9287 10.1186 16.5087 9.47145C16.6973 8.73859 16.8087 7.69716 16.2859 6.85716C15.2744 6.85716 14.5673 7.45287 14.1516 7.94145C13.5301 7.79145 12.8144 7.7143 12.0001 7.7143C11.2287 7.7143 10.5173 7.80002 9.883 7.97573C9.47157 7.48287 8.75157 6.85716 7.71443 6.85716C7.10585 7.8343 7.35442 8.88859 7.58585 9.48002C7.123 10.1272 6.85728 10.9586 6.85728 12C6.85728 14.4257 7.98014 15.7329 10.2259 16.14C9.93871 16.4186 9.71585 16.7572 9.57871 17.1429H8.57157C7.95442 17.1429 7.71443 16.8686 7.38443 16.4229C7.05443 15.9772 6.69871 15.6772 6.27443 15.5529C6.04728 15.5272 5.893 15.7114 6.09442 15.8743C6.76728 16.3586 6.81443 17.1514 7.08443 17.67C7.32871 18.1372 7.83442 18.4286 8.40442 18.4286H9.42871V20.1772C5.94871 19.0886 3.42871 15.84 3.42871 12C3.42871 7.2643 7.26442 3.42859 12.0001 3.42859C16.7359 3.42859 20.5716 7.2643 20.5716 12Z" fill="currentColor"/>
</svg>
