<svg width="24" height="24" viewBox="0 0 24 24" fill="none" xmlns="http://www.w3.org/2000/svg">
<path d="M20.8798 6.13071C20.7534 5.99999 20.5588 5.96271 20.393 6.03899L20.3227 6.07113C20.2631 6.09856 20.2035 6.12599 20.1435 6.15299C20.318 5.87485 20.4564 5.57742 20.552 5.26971C20.6051 5.09999 20.5472 4.91442 20.4067 4.80471C20.2661 4.69499 20.0724 4.68342 19.9202 4.77642C19.4312 5.07342 18.9615 5.28728 18.476 5.43642C17.7431 4.72542 16.745 4.28571 15.6431 4.28571C13.3944 4.28571 11.5717 6.10842 11.5717 8.35713C11.5717 8.35928 11.5717 8.44413 11.5717 8.57142L11.1435 8.53713C6.97653 8.04428 5.79024 5.24142 5.74095 5.12056C5.66124 4.91913 5.48553 4.77213 5.27338 4.72799C5.06167 4.68299 4.84181 4.74942 4.68838 4.90242C4.60353 4.98771 3.85738 5.77713 3.85738 7.28571C3.85738 8.36056 4.33653 9.23228 4.95667 9.91028C4.66781 9.73413 4.49938 9.59142 4.4951 9.58756C4.29753 9.41528 4.01467 9.37928 3.77981 9.49842C3.54581 9.61799 3.40781 9.86785 3.43138 10.1297C3.43953 10.2201 3.6221 11.9353 5.60338 13.2304L5.2421 13.296C5.0231 13.3358 4.8401 13.4863 4.75867 13.6937C4.67767 13.9016 4.70938 14.136 4.8431 14.3143C4.8881 14.3747 5.7251 15.4628 7.54267 16.0886C6.57195 16.4121 5.23824 16.7143 3.6431 16.7143C3.3911 16.7143 3.16181 16.8617 3.05767 17.0914C2.9531 17.3211 2.99296 17.5907 3.15924 17.7801C3.22824 17.8594 4.90096 19.7143 9.21453 19.7143C16.3772 19.7143 19.7145 13.065 19.7145 8.57142V8.35713C19.7145 8.29371 19.7077 8.23156 19.7051 8.16899C20.6017 7.30242 20.939 6.65228 20.9552 6.62013C21.0362 6.45728 21.0062 6.26099 20.8798 6.13071Z" fill="currentColor"/>
</svg>
