<svg width="2em" height="1em" viewBox="0 0 48 24" fill="none" xmlns="http://www.w3.org/2000/svg">
<path d="M2.16603 12.4471C2.69534 12.4471 3.12617 12.29 3.45853 11.9757C3.79089 11.6615 3.95706 11.2641 3.95706 10.7835C3.95706 10.3398 3.79089 9.97015 3.45853 9.6744C3.12617 9.37865 2.69534 9.23077 2.16603 9.23077C1.63672 9.23077 1.20589 9.38481 0.873535 9.69289C0.541178 10.001 0.375 10.383 0.375 10.8389C0.375 11.2949 0.541178 11.6769 0.873535 11.985C1.20589 12.2931 1.63672 12.4471 2.16603 12.4471ZM3.60624 23.7782V13.8334H0.725821V23.7782H3.60624ZM12.7276 24C13.6631 24 14.5925 23.8583 15.5157 23.5749C16.4389 23.2914 17.2513 22.8848 17.953 22.3549V17.1052H15.2203V20.8946C14.5309 21.2643 13.7554 21.4491 12.8938 21.4491C12.0813 21.4491 11.3581 21.2735 10.7242 20.9223C10.0903 20.5711 9.59481 20.0813 9.23784 19.4528C8.88086 18.8243 8.70237 18.1096 8.70237 17.3086C8.70237 16.4952 8.88086 15.7743 9.23784 15.1459C9.59481 14.5174 10.0933 14.0306 10.7334 13.6856C11.3735 13.3405 12.106 13.168 12.9307 13.168C14.2355 13.168 15.3495 13.6548 16.2727 14.6283L18.193 12.8538C17.5652 12.1267 16.7897 11.5722 15.8665 11.1901C14.9433 10.8081 13.9154 10.6171 12.783 10.6171C11.4289 10.6171 10.2103 10.9036 9.12705 11.4767C8.04382 12.0497 7.19754 12.8445 6.58822 13.8612C5.9789 14.8778 5.67424 16.027 5.67424 17.3086C5.67424 18.5902 5.9789 19.7393 6.58822 20.7559C7.19754 21.7726 8.03766 22.5674 9.10859 23.1405C10.1795 23.7135 11.3858 24 12.7276 24ZM23.5846 23.9261C25.0617 23.9261 26.0711 23.4639 26.6127 22.5397V23.7782H29.3085V18.1034C29.3085 16.6246 28.8961 15.5186 28.0714 14.7854C27.2466 14.0522 26.0649 13.6856 24.5262 13.6856C23.7261 13.6856 22.9475 13.7903 22.1905 13.9998C21.4335 14.2093 20.7841 14.5051 20.2425 14.8871L21.2765 16.9019C21.6335 16.6185 22.0674 16.3936 22.5783 16.2272C23.0891 16.0608 23.6092 15.9777 24.1385 15.9777C24.9017 15.9777 25.4741 16.1471 25.8557 16.486C26.2373 16.8249 26.428 17.3086 26.428 17.937H24.1385C22.686 17.937 21.612 18.202 20.9165 18.7319C20.221 19.2618 19.8732 19.9888 19.8732 20.9131C19.8732 21.4923 20.021 22.0098 20.3164 22.4658C20.6118 22.9217 21.0396 23.2791 21.5996 23.5379C22.1597 23.7967 22.8214 23.9261 23.5846 23.9261ZM24.3047 21.9852C23.8 21.9852 23.403 21.8773 23.1137 21.6617C22.8244 21.446 22.6798 21.1534 22.6798 20.7837C22.6798 20.0073 23.2707 19.6191 24.4524 19.6191H26.428V20.6358C26.268 21.0794 25.9972 21.4152 25.6156 21.6432C25.234 21.8712 24.797 21.9852 24.3047 21.9852ZM33.3521 12.4471C33.8815 12.4471 34.3123 12.29 34.6446 11.9757C34.977 11.6615 35.1432 11.2641 35.1432 10.7835C35.1432 10.3398 34.977 9.97015 34.6446 9.6744C34.3123 9.37865 33.8815 9.23077 33.3521 9.23077C32.8228 9.23077 32.392 9.38481 32.0596 9.69289C31.7273 10.001 31.5611 10.383 31.5611 10.8389C31.5611 11.2949 31.7273 11.6769 32.0596 11.985C32.392 12.2931 32.8228 12.4471 33.3521 12.4471ZM34.7924 23.7782V13.8334H31.9119V23.7782H34.7924ZM40.3501 23.7782V18.8613C40.3501 17.974 40.5655 17.3055 40.9963 16.8557C41.4272 16.4059 42.0057 16.181 42.732 16.181C43.3844 16.181 43.8829 16.3751 44.2276 16.7633C44.5722 17.1514 44.7446 17.7399 44.7446 18.5285V23.7782H47.625V18.0849C47.625 16.6308 47.2465 15.534 46.4894 14.7946C45.7324 14.0553 44.7384 13.6856 43.5075 13.6856C42.8305 13.6856 42.2088 13.7996 41.6426 14.0275C41.0763 14.2555 40.6024 14.579 40.2208 14.998V13.8334H37.4697V23.7782H40.3501ZM12.8277 2.60672L13.4202 2.64148L13.8888 2.6753L14.3601 2.71483L15.0862 2.7861L15.8545 2.87344L16.4008 2.94154L17.2874 3.05996L20.7564 3.56145L22.621 3.83827L24.8909 4.19021L27.951 4.68715L33.9898 5.70892L41.5292 6.99828L44.718 7.52672L46.7845 7.85752L48 8.05619V9.15586L46.6081 8.9444L44.7648 8.64981L41.7077 8.14495L36.7712 7.30412L29.193 6.01068L25.5639 5.41278L24.221 5.19921L22.9446 5.00126L21.4622 4.77798L17.7753 4.24025L16.8376 4.10968L16.2653 4.0341L15.4703 3.93651L14.9735 3.88115L14.4959 3.83287L14.0311 3.79112L13.573 3.75532L13.1152 3.72491C8.24999 3.42961 4.70107 4.26799 2.05838 6.77487C1.52723 7.27864 1.01941 7.81828 0.625333 8.33759C0.356238 8.69126 0.147793 8.98899 0 9.23077V7.36335C0.383332 6.89948 0.814102 6.42218 1.27523 5.98482C4.11918 3.28703 7.85578 2.35719 12.8277 2.60672ZM47.9993 0L48 1.10048H0V0H47.9993Z" fill="white"/>
</svg>
