<svg width="96" height="36" viewBox="0 0 96 36" fill="none" xmlns="http://www.w3.org/2000/svg">
<path d="M64.1001 12H66.1001V26H64.1001V12Z" fill="white"/>
<path d="M80.0515 26L77.0315 21.7C76.6582 21.7267 76.3648 21.74 76.1515 21.74H72.6915V26H70.6915V12H76.1515C77.9648 12 79.3915 12.4333 80.4315 13.3C81.4715 14.1667 81.9915 15.36 81.9915 16.88C81.9915 17.96 81.7248 18.88 81.1915 19.64C80.6582 20.4 79.8982 20.9533 78.9115 21.3L82.2315 26H80.0515ZM76.0915 20.04C77.3582 20.04 78.3248 19.7667 78.9915 19.22C79.6582 18.6733 79.9915 17.8933 79.9915 16.88C79.9915 15.8667 79.6582 15.0933 78.9915 14.56C78.3248 14.0133 77.3582 13.74 76.0915 13.74H72.6915V20.04H76.0915Z" fill="white"/>
<path d="M89.7028 26.16C88.6494 26.16 87.6294 26 86.6428 25.68C85.6694 25.3467 84.9028 24.92 84.3428 24.4L85.0828 22.84C85.6161 23.32 86.2961 23.7133 87.1228 24.02C87.9628 24.3133 88.8228 24.46 89.7028 24.46C90.8628 24.46 91.7294 24.2667 92.3028 23.88C92.8761 23.48 93.1628 22.9533 93.1628 22.3C93.1628 21.82 93.0028 21.4333 92.6828 21.14C92.3761 20.8333 91.9894 20.6 91.5228 20.44C91.0694 20.28 90.4228 20.1 89.5828 19.9C88.5294 19.6467 87.6761 19.3933 87.0228 19.14C86.3828 18.8867 85.8294 18.5 85.3628 17.98C84.9094 17.4467 84.6828 16.7333 84.6828 15.84C84.6828 15.0933 84.8761 14.42 85.2628 13.82C85.6628 13.22 86.2628 12.74 87.0628 12.38C87.8628 12.02 88.8561 11.84 90.0428 11.84C90.8694 11.84 91.6828 11.9467 92.4828 12.16C93.2828 12.3733 93.9694 12.68 94.5428 13.08L93.8828 14.68C93.2961 14.3067 92.6694 14.0267 92.0028 13.84C91.3361 13.64 90.6828 13.54 90.0428 13.54C88.9094 13.54 88.0561 13.7467 87.4828 14.16C86.9228 14.5733 86.6428 15.1067 86.6428 15.76C86.6428 16.24 86.8028 16.6333 87.1228 16.94C87.4428 17.2333 87.8361 17.4667 88.3028 17.64C88.7828 17.8 89.4294 17.9733 90.2428 18.16C91.2961 18.4133 92.1428 18.6667 92.7828 18.92C93.4228 19.1733 93.9694 19.56 94.4228 20.08C94.8894 20.6 95.1228 21.3 95.1228 22.18C95.1228 22.9133 94.9228 23.5867 94.5228 24.2C94.1228 24.8 93.5161 25.28 92.7028 25.64C91.8894 25.9867 90.8894 26.16 89.7028 26.16Z" fill="white"/>
<path d="M5.16603 18.4471C5.69534 18.4471 6.12617 18.29 6.45853 17.9757C6.79089 17.6615 6.95706 17.2641 6.95706 16.7835C6.95706 16.3398 6.79089 15.9702 6.45853 15.6744C6.12617 15.3786 5.69534 15.2308 5.16603 15.2308C4.63672 15.2308 4.20589 15.3848 3.87353 15.6929C3.54118 16.001 3.375 16.383 3.375 16.8389C3.375 17.2949 3.54118 17.6769 3.87353 17.985C4.20589 18.2931 4.63672 18.4471 5.16603 18.4471ZM6.60624 29.7782V19.8334H3.72582V29.7782H6.60624ZM15.7276 30C16.6631 30 17.5925 29.8583 18.5157 29.5749C19.4389 29.2914 20.2513 28.8848 20.953 28.3549V23.1052H18.2203V26.8946C17.5309 27.2643 16.7554 27.4491 15.8938 27.4491C15.0813 27.4491 14.3581 27.2735 13.7242 26.9223C13.0903 26.5711 12.5948 26.0813 12.2378 25.4528C11.8809 24.8243 11.7024 24.1096 11.7024 23.3086C11.7024 22.4952 11.8809 21.7743 12.2378 21.1459C12.5948 20.5174 13.0933 20.0306 13.7334 19.6856C14.3735 19.3405 15.106 19.168 15.9307 19.168C17.2355 19.168 18.3495 19.6548 19.2727 20.6283L21.193 18.8538C20.5652 18.1267 19.7897 17.5722 18.8665 17.1901C17.9433 16.8081 16.9154 16.6171 15.783 16.6171C14.4289 16.6171 13.2103 16.9036 12.1271 17.4767C11.0438 18.0497 10.1975 18.8445 9.58822 19.8612C8.9789 20.8778 8.67424 22.027 8.67424 23.3086C8.67424 24.5902 8.9789 25.7393 9.58822 26.7559C10.1975 27.7726 11.0377 28.5674 12.1086 29.1405C13.1795 29.7135 14.3858 30 15.7276 30ZM26.5846 29.9261C28.0617 29.9261 29.0711 29.4639 29.6127 28.5397V29.7782H32.3085V24.1034C32.3085 22.6246 31.8961 21.5186 31.0714 20.7854C30.2466 20.0522 29.0649 19.6856 27.5262 19.6856C26.7261 19.6856 25.9475 19.7903 25.1905 19.9998C24.4335 20.2093 23.7841 20.5051 23.2425 20.8871L24.2765 22.9019C24.6335 22.6185 25.0674 22.3936 25.5783 22.2272C26.0891 22.0608 26.6092 21.9777 27.1385 21.9777C27.9017 21.9777 28.4741 22.1471 28.8557 22.486C29.2373 22.8249 29.428 23.3086 29.428 23.937H27.1385C25.686 23.937 24.612 24.202 23.9165 24.7319C23.221 25.2618 22.8732 25.9888 22.8732 26.9131C22.8732 27.4923 23.021 28.0098 23.3164 28.4658C23.6118 28.9217 24.0396 29.2791 24.5996 29.5379C25.1597 29.7967 25.8214 29.9261 26.5846 29.9261ZM27.3047 27.9852C26.8 27.9852 26.403 27.8773 26.1137 27.6617C25.8244 27.446 25.6798 27.1534 25.6798 26.7837C25.6798 26.0073 26.2707 25.6191 27.4524 25.6191H29.428V26.6358C29.268 27.0794 28.9972 27.4152 28.6156 27.6432C28.234 27.8712 27.797 27.9852 27.3047 27.9852ZM36.3521 18.4471C36.8815 18.4471 37.3123 18.29 37.6446 17.9757C37.977 17.6615 38.1432 17.2641 38.1432 16.7835C38.1432 16.3398 37.977 15.9702 37.6446 15.6744C37.3123 15.3786 36.8815 15.2308 36.3521 15.2308C35.8228 15.2308 35.392 15.3848 35.0596 15.6929C34.7273 16.001 34.5611 16.383 34.5611 16.8389C34.5611 17.2949 34.7273 17.6769 35.0596 17.985C35.392 18.2931 35.8228 18.4471 36.3521 18.4471ZM37.7924 29.7782V19.8334H34.9119V29.7782H37.7924ZM43.3501 29.7782V24.8613C43.3501 23.974 43.5655 23.3055 43.9963 22.8557C44.4272 22.4059 45.0057 22.181 45.732 22.181C46.3844 22.181 46.8829 22.3751 47.2276 22.7633C47.5722 23.1514 47.7446 23.7399 47.7446 24.5285V29.7782H50.625V24.0849C50.625 22.6308 50.2465 21.534 49.4894 20.7946C48.7324 20.0553 47.7384 19.6856 46.5075 19.6856C45.8305 19.6856 45.2088 19.7996 44.6426 20.0275C44.0763 20.2555 43.6024 20.579 43.2208 20.998V19.8334H40.4697V29.7782H43.3501ZM15.8277 8.60672L16.4202 8.64148L16.8888 8.6753L17.3601 8.71483L18.0862 8.7861L18.8545 8.87344L19.4008 8.94154L20.2874 9.05996L23.7564 9.56145L25.621 9.83827L27.8909 10.1902L30.951 10.6871L36.9898 11.7089L44.5292 12.9983L47.718 13.5267L49.7845 13.8575L51 14.0562V15.1559L49.6081 14.9444L47.7648 14.6498L44.7077 14.1449L39.7712 13.3041L32.193 12.0107L28.5639 11.4128L27.221 11.1992L25.9446 11.0013L24.4622 10.778L20.7753 10.2402L19.8376 10.1097L19.2653 10.0341L18.4703 9.93651L17.9735 9.88115L17.4959 9.83287L17.0311 9.79112L16.573 9.75532L16.1152 9.72491C11.25 9.42961 7.70107 10.268 5.05838 12.7749C4.52723 13.2786 4.01941 13.8183 3.62533 14.3376C3.35624 14.6913 3.14779 14.989 3 15.2308V13.3634C3.38333 12.8995 3.8141 12.4222 4.27523 11.9848C7.11918 9.28703 10.8558 8.35719 15.8277 8.60672ZM50.9993 6L51 7.10048H3V6H50.9993Z" fill="white"/>
<path d="M5.16603 18.4471C5.69534 18.4471 6.12617 18.29 6.45853 17.9757C6.79089 17.6615 6.95706 17.2641 6.95706 16.7835C6.95706 16.3398 6.79089 15.9702 6.45853 15.6744C6.12617 15.3786 5.69534 15.2308 5.16603 15.2308C4.63672 15.2308 4.20589 15.3848 3.87353 15.6929C3.54118 16.001 3.375 16.383 3.375 16.8389C3.375 17.2949 3.54118 17.6769 3.87353 17.985C4.20589 18.2931 4.63672 18.4471 5.16603 18.4471ZM6.60624 29.7782V19.8334H3.72582V29.7782H6.60624ZM15.7276 30C16.6631 30 17.5925 29.8583 18.5157 29.5749C19.4389 29.2914 20.2513 28.8848 20.953 28.3549V23.1052H18.2203V26.8946C17.5309 27.2643 16.7554 27.4491 15.8938 27.4491C15.0813 27.4491 14.3581 27.2735 13.7242 26.9223C13.0903 26.5711 12.5948 26.0813 12.2378 25.4528C11.8809 24.8243 11.7024 24.1096 11.7024 23.3086C11.7024 22.4952 11.8809 21.7743 12.2378 21.1459C12.5948 20.5174 13.0933 20.0306 13.7334 19.6856C14.3735 19.3405 15.106 19.168 15.9307 19.168C17.2355 19.168 18.3495 19.6548 19.2727 20.6283L21.193 18.8538C20.5652 18.1267 19.7897 17.5722 18.8665 17.1901C17.9433 16.8081 16.9154 16.6171 15.783 16.6171C14.4289 16.6171 13.2103 16.9036 12.1271 17.4767C11.0438 18.0497 10.1975 18.8445 9.58822 19.8612C8.9789 20.8778 8.67424 22.027 8.67424 23.3086C8.67424 24.5902 8.9789 25.7393 9.58822 26.7559C10.1975 27.7726 11.0377 28.5674 12.1086 29.1405C13.1795 29.7135 14.3858 30 15.7276 30ZM26.5846 29.9261C28.0617 29.9261 29.0711 29.4639 29.6127 28.5397V29.7782H32.3085V24.1034C32.3085 22.6246 31.8961 21.5186 31.0714 20.7854C30.2466 20.0522 29.0649 19.6856 27.5262 19.6856C26.7261 19.6856 25.9475 19.7903 25.1905 19.9998C24.4335 20.2093 23.7841 20.5051 23.2425 20.8871L24.2765 22.9019C24.6335 22.6185 25.0674 22.3936 25.5783 22.2272C26.0891 22.0608 26.6092 21.9777 27.1385 21.9777C27.9017 21.9777 28.4741 22.1471 28.8557 22.486C29.2373 22.8249 29.428 23.3086 29.428 23.937H27.1385C25.686 23.937 24.612 24.202 23.9165 24.7319C23.221 25.2618 22.8732 25.9888 22.8732 26.9131C22.8732 27.4923 23.021 28.0098 23.3164 28.4658C23.6118 28.9217 24.0396 29.2791 24.5996 29.5379C25.1597 29.7967 25.8214 29.9261 26.5846 29.9261ZM27.3047 27.9852C26.8 27.9852 26.403 27.8773 26.1137 27.6617C25.8244 27.446 25.6798 27.1534 25.6798 26.7837C25.6798 26.0073 26.2707 25.6191 27.4524 25.6191H29.428V26.6358C29.268 27.0794 28.9972 27.4152 28.6156 27.6432C28.234 27.8712 27.797 27.9852 27.3047 27.9852ZM36.3521 18.4471C36.8815 18.4471 37.3123 18.29 37.6446 17.9757C37.977 17.6615 38.1432 17.2641 38.1432 16.7835C38.1432 16.3398 37.977 15.9702 37.6446 15.6744C37.3123 15.3786 36.8815 15.2308 36.3521 15.2308C35.8228 15.2308 35.392 15.3848 35.0596 15.6929C34.7273 16.001 34.5611 16.383 34.5611 16.8389C34.5611 17.2949 34.7273 17.6769 35.0596 17.985C35.392 18.2931 35.8228 18.4471 36.3521 18.4471ZM37.7924 29.7782V19.8334H34.9119V29.7782H37.7924ZM43.3501 29.7782V24.8613C43.3501 23.974 43.5655 23.3055 43.9963 22.8557C44.4272 22.4059 45.0057 22.181 45.732 22.181C46.3844 22.181 46.8829 22.3751 47.2276 22.7633C47.5722 23.1514 47.7446 23.7399 47.7446 24.5285V29.7782H50.625V24.0849C50.625 22.6308 50.2465 21.534 49.4894 20.7946C48.7324 20.0553 47.7384 19.6856 46.5075 19.6856C45.8305 19.6856 45.2088 19.7996 44.6426 20.0275C44.0763 20.2555 43.6024 20.579 43.2208 20.998V19.8334H40.4697V29.7782H43.3501ZM15.8277 8.60672L16.4202 8.64148L16.8888 8.6753L17.3601 8.71483L18.0862 8.7861L18.8545 8.87344L19.4008 8.94154L20.2874 9.05996L23.7564 9.56145L25.621 9.83827L27.8909 10.1902L30.951 10.6871L36.9898 11.7089L44.5292 12.9983L47.718 13.5267L49.7845 13.8575L51 14.0562V15.1559L49.6081 14.9444L47.7648 14.6498L44.7077 14.1449L39.7712 13.3041L32.193 12.0107L28.5639 11.4128L27.221 11.1992L25.9446 11.0013L24.4622 10.778L20.7753 10.2402L19.8376 10.1097L19.2653 10.0341L18.4703 9.93651L17.9735 9.88115L17.4959 9.83287L17.0311 9.79112L16.573 9.75532L16.1152 9.72491C11.25 9.42961 7.70107 10.268 5.05838 12.7749C4.52723 13.2786 4.01941 13.8183 3.62533 14.3376C3.35624 14.6913 3.14779 14.989 3 15.2308V13.3634C3.38333 12.8995 3.8141 12.4222 4.27523 11.9848C7.11918 9.28703 10.8558 8.35719 15.8277 8.60672ZM50.9993 6L51 7.10048H3V6H50.9993Z" fill="url(#paint0_linear_2276_15144)"/>
<defs>
<linearGradient id="paint0_linear_2276_15144" x1="3" y1="18" x2="51" y2="18" gradientUnits="userSpaceOnUse">
<stop stop-color="#FABA4B"/>
<stop offset="1" stop-color="#F29C24"/>
</linearGradient>
</defs>
</svg>
