<svg width="18" height="18" viewBox="0 0 18 18" fill="none" xmlns="http://www.w3.org/2000/svg">
<path fill-rule="evenodd" clip-rule="evenodd" d="M18 9C18 4.0302 13.9698 0 9 0C4.0302 0 0 4.0302 0 9C0 13.9698 4.0302 18 9 18C13.9698 18 18 13.9698 18 9ZM12.7802 7.80127L10.262 8.46907L9.70036 5.85547L10.4492 5.68627L10.7444 6.92467C10.7444 6.92467 11.4248 5.80867 10.5176 4.65307C9.99748 4.07521 9.74316 4.03566 9.17786 3.94776L9.12977 3.94027C8.60237 3.86467 7.37657 4.04287 7.01117 5.47387C6.85637 6.39547 7.03097 7.07767 8.21897 7.97047L8.15237 8.96407C8.15237 8.96407 6.82577 8.02987 6.48377 7.37467C6.21917 6.85627 5.76557 5.83207 6.58457 4.40647C7.02557 3.69367 7.89497 3.00967 9.42677 3.08167C10.1972 3.11407 12.0782 4.05547 11.7866 6.25507C11.7362 6.66727 11.522 7.21627 11.522 7.21627L12.5552 6.98587L12.7802 7.80127ZM8.62921 12.7945V5.30647H9.44459V12.7945H8.62921ZM11.3421 13.6603C10.8813 14.3605 9.99388 15.0211 8.46568 14.9095C7.69528 14.8573 5.84128 13.8655 6.19048 11.6749C6.25168 11.2645 6.48028 10.7227 6.48028 10.7227L5.44168 10.9243L5.23828 10.1053L7.77448 9.50408L8.26768 12.1321L7.51348 12.2815L7.25068 11.0341C7.25068 11.0341 6.54148 12.1303 7.41628 13.3111C7.91963 13.9018 8.17182 13.9478 8.73473 14.0505L8.78608 14.0599C9.30988 14.1499 10.5411 14.0023 10.9443 12.5821C11.1225 11.6659 10.9659 10.9783 9.80308 10.0531L9.89668 9.06128C9.89668 9.06128 11.1981 10.0297 11.5221 10.6939C11.7705 11.2213 12.1971 12.2581 11.3421 13.6603Z" fill="#006AE3"/>
</svg>
