<svg width="12" height="16" viewBox="0 0 12 16" fill="none" xmlns="http://www.w3.org/2000/svg">
<path fill-rule="evenodd" clip-rule="evenodd" d="M0.615188 12.3022C0.233567 12.0675 0 11.6508 0 11.202V8.6966C0 8.39913 0.241225 8.15808 0.537332 8.15936C0.63178 8.15936 0.724952 8.18501 0.806637 8.23245L6.43395 11.529C6.76324 11.7213 6.96618 12.0752 6.96618 12.4586V15.0538C6.96745 15.4102 6.68028 15.7 6.32546 15.7C6.20676 15.7 6.08934 15.6667 5.98851 15.6051L0.615188 12.3022ZM9.00319 7.54647C9.33248 7.7388 9.53414 8.09397 9.53542 8.47607V13.7433C9.53542 13.8985 9.45246 14.0421 9.31717 14.1178L8.08551 14.814C8.0702 14.823 8.05361 14.8294 8.03574 14.8345V11.9098C8.03574 11.5316 7.83791 11.1802 7.51372 10.9853L2.57179 8.01576V4.71409C2.57179 4.41662 2.81302 4.17556 3.10913 4.17685C3.20357 4.17685 3.29675 4.20249 3.37843 4.24993L9.00319 7.54647ZM11.4665 3.65627C11.7971 3.8486 12 4.20377 12 4.58715V12.2804C11.9987 12.4381 11.9119 12.583 11.7741 12.6586L10.6063 13.292V7.93626C10.6063 7.55801 10.4084 7.20797 10.0868 7.01307L5.0351 3.96913V0.837995C5.0351 0.743112 5.06063 0.649511 5.10657 0.56745C5.2559 0.31101 5.58392 0.22382 5.83918 0.372555L11.4665 3.65627Z" fill="#00D395"/>
</svg>
