<svg width="10" height="16" viewBox="0 0 10 16" fill="none" xmlns="http://www.w3.org/2000/svg">
<path d="M9.42763 15.2942C9.28047 15.2941 9.13938 15.2355 9.0353 15.1315C8.93123 15.0274 8.87267 14.8864 8.87248 14.7392V13.1231C8.87248 13.0503 8.85814 12.9782 8.83027 12.911C8.80241 12.8437 8.76157 12.7826 8.71009 12.7311C8.6586 12.6796 8.59748 12.6388 8.53022 12.6109C8.46295 12.583 8.39085 12.5687 8.31804 12.5687C8.24524 12.5687 8.17314 12.583 8.10587 12.6109C8.03861 12.6388 7.97749 12.6796 7.926 12.7311C7.87452 12.7826 7.83368 12.8437 7.80582 12.911C7.77795 12.9782 7.76361 13.0503 7.76361 13.1231V13.8901C7.76361 14.0371 7.7052 14.1781 7.60122 14.2821C7.49725 14.3861 7.35623 14.4445 7.20918 14.4445C7.06214 14.4445 6.92111 14.3861 6.81714 14.2821C6.71316 14.1781 6.65475 14.0371 6.65475 13.8901V13.1231C6.65532 13.0499 6.6414 12.9774 6.61378 12.9096C6.58617 12.8418 6.54541 12.7802 6.49386 12.7282C6.44231 12.6762 6.38098 12.635 6.31341 12.6069C6.24584 12.5787 6.17338 12.5642 6.10018 12.5642C6.02699 12.5642 5.95452 12.5787 5.88696 12.6069C5.81939 12.635 5.75806 12.6762 5.70651 12.7282C5.65495 12.7802 5.6142 12.8418 5.58658 12.9096C5.55897 12.9774 5.54505 13.0499 5.54562 13.1231V13.3319C5.54447 13.4783 5.4855 13.6184 5.38154 13.7215C5.27758 13.8247 5.13706 13.8826 4.99061 13.8826C4.84416 13.8826 4.70364 13.8247 4.59968 13.7215C4.49572 13.6184 4.43675 13.4783 4.43561 13.3319V13.1231C4.43618 13.0499 4.42225 12.9774 4.39464 12.9096C4.36703 12.8418 4.32627 12.7802 4.27471 12.7282C4.22316 12.6762 4.16183 12.635 4.09427 12.6069C4.0267 12.5787 3.95423 12.5642 3.88104 12.5642C3.80785 12.5642 3.73538 12.5787 3.66781 12.6069C3.60025 12.635 3.53892 12.6762 3.48737 12.7282C3.43581 12.7802 3.39505 12.8418 3.36744 12.9096C3.33983 12.9774 3.3259 13.0499 3.32647 13.1231V13.8901C3.32647 14.0371 3.26806 14.1781 3.16408 14.2821C3.06011 14.3861 2.91909 14.4445 2.77204 14.4445C2.625 14.4445 2.48398 14.3861 2.38 14.2821C2.27602 14.1781 2.21761 14.0371 2.21761 13.8901V13.1231C2.21761 12.9761 2.1592 12.8351 2.05522 12.7311C1.95124 12.6271 1.81022 12.5687 1.66318 12.5687C1.51613 12.5687 1.37511 12.6271 1.27114 12.7311C1.16716 12.8351 1.10875 12.9761 1.10875 13.1231V14.7392C1.11003 14.8128 1.09664 14.8859 1.06936 14.9543C1.04208 15.0227 1.00145 15.085 0.949848 15.1375C0.898246 15.19 0.836704 15.2317 0.768811 15.2602C0.700918 15.2886 0.628035 15.3033 0.554415 15.3033C0.480795 15.3033 0.407912 15.2886 0.340019 15.2602C0.272127 15.2317 0.210584 15.19 0.158982 15.1375C0.107381 15.085 0.0667538 15.0227 0.0394722 14.9543C0.0121907 14.8859 -0.00119909 14.8128 8.42484e-05 14.7392V5.58296C0.0269786 4.4467 0.440097 3.35349 1.17138 2.48342C1.90267 1.61335 2.90851 1.01831 4.0232 0.796331C5.13789 0.574352 6.29495 0.738672 7.30376 1.26222C8.31258 1.78577 9.11297 2.63732 9.5731 3.6766C9.83934 4.27772 9.98374 4.92567 9.99795 5.58296C9.99889 5.58979 10.0008 5.59674 9.99795 5.60299C9.99506 5.60924 10.0038 5.61454 9.99795 5.61824V14.7392C9.99786 14.8862 9.92318 15.0272 9.81933 15.1312C9.71548 15.2352 9.57463 15.2939 9.42763 15.2942ZM4.42964 7.03813C4.28886 7.03813 4.23171 7.09265 4.23171 7.2273C4.23171 7.55467 4.59375 7.8208 5.03858 7.8208C5.48281 7.8208 5.84427 7.5546 5.84427 7.2273C5.84427 7.09292 5.78699 7.0384 5.64664 7.0384C5.5715 7.04104 5.49662 7.04863 5.42249 7.06114L5.41548 7.06232C5.29083 7.08279 5.16487 7.09429 5.03858 7.09673C4.91199 7.09428 4.78575 7.08279 4.6608 7.06232C4.58439 7.04897 4.50716 7.04088 4.42964 7.03813ZM6.84392 4.34352C6.35306 4.34352 5.95399 4.80059 5.95399 5.36259C5.95399 5.92401 6.35306 6.38077 6.84392 6.38077C7.33394 6.38077 7.73241 5.92401 7.73241 5.36259C7.73231 4.80059 7.33384 4.34352 6.84392 4.34352ZM3.15411 4.34352C2.6644 4.34352 2.26563 4.80059 2.26563 5.36259C2.26563 5.92401 2.6644 6.38077 3.15411 6.38077C3.64383 6.38077 4.04287 5.92401 4.04287 5.36259C4.04284 4.80059 3.64407 4.34352 3.15411 4.34352Z" fill="currentColor"/>
</svg>
